M48
; DRILL file {KiCad 9.0.4} date 2025-08-21T00:06:39-0700
; FORMAT={-:-/ absolute / metric / decimal}
; #@! TF.CreationDate,2025-08-21T00:06:39-07:00
; #@! TF.GenerationSoftware,Kicad,Pcbnew,9.0.4
; #@! TF.FileFunction,Plated,1,4,PTH
FMAT,2
METRIC
; #@! TA.AperFunction,Plated,PTH,ViaDrill
T1C0.300
; #@! TA.AperFunction,Plated,PTH,ComponentDrill
T2C0.300
; #@! TA.AperFunction,Plated,PTH,ComponentDrill
T3C0.350
; #@! TA.AperFunction,Plated,PTH,ViaDrill
T4C0.400
; #@! TA.AperFunction,Plated,PTH,ComponentDrill
T5C0.600
; #@! TA.AperFunction,Plated,PTH,ComponentDrill
T6C0.650
; #@! TA.AperFunction,Plated,PTH,ComponentDrill
T7C0.700
; #@! TA.AperFunction,Plated,PTH,ComponentDrill
T8C0.900
; #@! TA.AperFunction,Plated,PTH,ComponentDrill
T9C0.920
; #@! TA.AperFunction,Plated,PTH,ComponentDrill
T10C3.200
%
G90
G05
T1
X47.782Y-107.9
X48.6Y-108.301
X48.672Y-107.041
X49.5Y-105.55
X49.81Y-105.03
X49.95Y-99.85
X49.95Y-102.65
X50.12Y-105.55
X50.5Y-109.65
X50.5Y-110.35
X51.0Y-110.0
X51.5Y-104.6
X52.2Y-103.0
X52.805Y-103.0
X53.025Y-104.475
X53.814Y-67.75
X54.6Y-54.95
X55.15Y-84.0
X55.15Y-87.85
X55.15Y-88.55
X55.15Y-93.55
X55.15Y-94.25
X55.387Y-77.692
X55.387Y-78.3
X55.4Y-100.071
X55.65Y-83.65
X55.65Y-84.35
X55.65Y-88.2
X55.65Y-93.9
X55.75Y-99.55
X56.0Y-64.864
X56.0Y-79.764
X56.1Y-100.071
X56.5Y-97.8
X56.999Y-97.45
X56.999Y-98.15
X57.4Y-86.85
X57.6Y-102.1
X57.85Y-91.2
X57.95Y-56.65
X58.0Y-61.0
X58.2Y-77.5
X58.375Y-105.945
X58.4Y-60.4
X58.4Y-100.25
X58.4Y-101.35
X58.9Y-105.64
X58.9Y-106.25
X59.022Y-81.828
X59.025Y-82.825
X59.1Y-69.6
X59.1Y-80.3
X59.6Y-81.0
X59.6Y-96.5
X59.6Y-97.5
X59.9Y-66.8
X60.0Y-100.25
X60.0Y-101.35
X60.0Y-104.0
X60.2Y-93.45
X60.2Y-94.55
X60.4Y-106.0
X60.75Y-106.5
X60.8Y-97.0
X61.0Y-93.45
X61.0Y-94.55
X61.1Y-106.0
X61.6Y-73.4
X61.6Y-100.25
X61.6Y-101.35
X61.8Y-93.45
X61.8Y-94.55
X62.0Y-96.5
X62.0Y-97.5
X62.45Y-94.4
X62.45Y-110.95
X62.75Y-58.7
X62.8Y-93.9
X63.15Y-94.4
X63.2Y-100.25
X63.2Y-101.35
X63.2Y-104.0
X63.4Y-73.6
X64.25Y-79.7
X64.5Y-110.25
X64.64Y-105.8
X64.654Y-95.85
X64.654Y-96.55
X64.75Y-90.8
X65.0Y-107.1
X65.018Y-97.68
X65.15Y-96.2
X65.3Y-91.251
X65.3Y-96.8
X65.4Y-73.6
X65.536Y-106.75
X65.536Y-107.45
X65.55Y-64.09
X65.55Y-64.7
X65.697Y-104.787
X65.9Y-76.65
X66.0Y-73.4
X66.05Y-104.29
X66.15Y-108.3
X66.397Y-104.787
X66.5Y-107.8
X66.6Y-73.8
X66.75Y-76.65
X66.85Y-108.3
X67.0Y-72.2
X67.087Y-66.9
X68.8Y-77.95
X68.8Y-78.95
X69.4Y-94.2
X69.95Y-104.85
X69.95Y-106.35
X69.95Y-107.85
X70.0Y-99.8
X70.0Y-100.6
X70.0Y-101.4
X70.0Y-102.6
T2
X46.01Y-106.7
X46.01Y-107.6
X46.01Y-108.4
X46.01Y-109.3
T3
X45.11Y-105.5
X45.11Y-106.3
X45.11Y-107.15
X45.11Y-108.85
X45.11Y-109.7
X45.11Y-110.5
T4
X53.65Y-70.3
X54.05Y-84.15
X54.05Y-84.95
X55.15Y-69.5
X55.15Y-70.3
X55.3Y-76.8
X55.6Y-54.0
X55.6Y-54.8
X55.6Y-55.6
X56.4Y-54.0
X56.4Y-54.8
X56.4Y-55.6
X56.5Y-44.0
X57.2Y-54.0
X57.2Y-54.8
X57.2Y-55.6
X57.35Y-62.25
X57.55Y-69.6
X58.0Y-44.0
X58.35Y-72.4
X58.8Y-46.0
X59.1Y-62.35
X59.5Y-39.5
X59.5Y-41.0
X59.5Y-42.5
X60.0Y-60.5
X60.0Y-62.0
X61.0Y-39.5
X61.0Y-41.0
X61.0Y-42.5
X61.15Y-72.4
X61.5Y-58.95
X61.5Y-60.5
X61.5Y-62.0
X61.6Y-112.4
X61.6Y-113.2
X61.6Y-114.0
X61.6Y-114.8
X61.9Y-72.4
X62.0Y-51.0
X62.0Y-54.0
X62.15Y-88.3
X62.25Y-62.5
X62.4Y-112.4
X62.4Y-113.2
X62.4Y-114.0
X62.4Y-114.8
X62.5Y-39.5
X62.5Y-41.0
X62.5Y-42.5
X62.5Y-75.95
X62.95Y-68.15
X62.95Y-69.6
X62.95Y-71.05
X63.0Y-60.5
X63.0Y-62.0
X63.5Y-51.0
X63.5Y-52.5
X63.5Y-54.0
X64.0Y-39.5
X64.0Y-41.0
X64.0Y-42.5
X64.4Y-68.15
X64.4Y-69.6
X64.4Y-71.05
X64.5Y-60.5
X64.5Y-62.0
X64.85Y-82.55
X64.97Y-64.395
X65.5Y-39.5
X65.5Y-41.0
X65.5Y-42.5
X65.55Y-113.4
X65.55Y-114.2
X65.55Y-115.0
X65.6Y-63.05
X65.6Y-110.4
X65.6Y-111.2
X65.85Y-68.15
X65.85Y-69.6
X65.85Y-71.05
X66.0Y-59.0
X66.0Y-60.5
X66.0Y-62.0
X66.35Y-113.4
X66.35Y-114.2
X66.35Y-115.0
X66.4Y-110.4
X66.4Y-111.2
X66.5Y-51.0
X66.8Y-65.15
X67.0Y-41.0
X67.0Y-42.5
X67.0Y-44.0
X67.0Y-45.5
X67.15Y-113.4
X67.15Y-114.2
X67.15Y-115.0
X67.5Y-59.0
X67.5Y-60.5
X67.5Y-62.0
X67.862Y-86.383
X67.862Y-87.2
X68.45Y-47.0
X68.5Y-44.0
X68.5Y-45.5
X68.5Y-48.5
X68.5Y-50.0
X68.65Y-73.15
X69.0Y-62.0
X69.645Y-65.4
X69.65Y-73.45
X69.95Y-47.0
X69.95Y-79.75
X70.0Y-44.0
X70.0Y-45.5
X70.0Y-48.5
X70.0Y-50.0
X70.45Y-75.95
X70.55Y-72.8
X71.15Y-110.65
X71.45Y-47.0
X71.5Y-45.5
X71.5Y-48.5
X71.5Y-50.0
X72.95Y-47.0
X73.0Y-44.0
X73.0Y-45.5
X73.0Y-48.5
X73.0Y-50.0
T7
X51.53Y-86.5
X51.53Y-89.0
X51.53Y-91.0
X51.53Y-93.5
X53.03Y-86.0
X53.03Y-88.0
X53.03Y-90.0
X53.03Y-92.0
X53.03Y-94.0
T9
X51.45Y-46.5
X51.45Y-49.0
X51.45Y-51.0
X51.45Y-53.5
X51.45Y-66.5
X51.45Y-69.0
X51.45Y-71.0
X51.45Y-73.5
T10
X55.6Y-41.0
X55.6Y-115.0
X71.0Y-41.0
X71.0Y-115.0
T5
X43.35Y-82.15G85X44.25Y-82.15
G05
X43.35Y-97.85G85X44.25Y-97.85
G05
X49.75Y-82.15G85X51.45Y-82.15
G05
X49.75Y-97.85G85X51.45Y-97.85
G05
T6
X41.675Y-101.925G85X41.025Y-101.925
G05
X41.675Y-114.075G85X41.025Y-114.075
G05
X45.635Y-101.925G85X44.785Y-101.925
G05
X45.635Y-114.075G85X44.785Y-114.075
G05
X46.01Y-104.925G85X46.01Y-104.675
G05
X46.01Y-111.325G85X46.01Y-111.075
G05
X47.775Y-103.535G85X47.325Y-103.535
G05
X47.775Y-112.465G85X47.325Y-112.465
G05
T8
X50.0Y-42.15G85X51.2Y-42.15
G05
X50.0Y-57.85G85X51.2Y-57.85
G05
X50.0Y-62.15G85X51.2Y-62.15
G05
X50.0Y-77.85G85X51.2Y-77.85
G05
M30
