G04 #@! TF.GenerationSoftware,KiCad,Pcbnew,9.0.4*
G04 #@! TF.CreationDate,2025-08-21T00:06:41-07:00*
G04 #@! TF.ProjectId,DisplayAdapter,44697370-6c61-4794-9164-61707465722e,rev?*
G04 #@! TF.SameCoordinates,Original*
G04 #@! TF.FileFunction,Profile,NP*
%FSLAX46Y46*%
G04 Gerber Fmt 4.6, Leading zero omitted, Abs format (unit mm)*
G04 Created by KiCad (PCBNEW 9.0.4) date 2025-08-21 00:06:41*
%MOMM*%
%LPD*%
G01*
G04 APERTURE LIST*
G04 #@! TA.AperFunction,Profile*
%ADD10C,0.100000*%
G04 #@! TD*
G04 APERTURE END LIST*
D10*
X40000000Y-59200000D02*
X40000000Y-60800000D01*
X71000000Y-38000000D02*
G75*
G02*
X74000000Y-41000000I0J-3000000D01*
G01*
X40000000Y-79200000D02*
X40000000Y-81200000D01*
X71000000Y-38000000D02*
X42000000Y-38000000D01*
X40000000Y-98800000D02*
X40000000Y-101200000D01*
X74000000Y-115000000D02*
G75*
G02*
X71000000Y-118000000I-3000000J0D01*
G01*
X42000000Y-118000000D02*
X71000000Y-118000000D01*
X74000000Y-115000000D02*
X74000000Y-41000000D01*
X40000000Y-40000000D02*
G75*
G02*
X42000000Y-38000000I2000000J0D01*
G01*
X42000000Y-118000000D02*
G75*
G02*
X40000000Y-116000000I0J2000000D01*
G01*
X40000000Y-40000000D02*
X40000000Y-40800000D01*
X40000000Y-114800000D02*
X40000000Y-116000000D01*
X40000000Y-83150000D02*
X40000000Y-81200000D01*
X40000000Y-96850000D02*
X40000000Y-98800000D01*
X50500000Y-83150000D02*
X40000000Y-83150000D01*
X50500000Y-95850000D02*
X50500000Y-84150000D01*
X50500000Y-96850000D02*
X40000000Y-96850000D01*
X50500000Y-83150000D02*
G75*
G02*
X50500000Y-84150000I0J-500000D01*
G01*
X50500000Y-95850000D02*
G75*
G02*
X50500000Y-96850000I0J-500000D01*
G01*
X40000000Y-103250000D02*
X40000000Y-101200000D01*
X40000000Y-103250000D02*
X43590000Y-103250000D01*
X40000000Y-112750000D02*
X40000000Y-114800000D01*
X40000000Y-112750000D02*
X43590000Y-112750000D01*
X44590000Y-103250000D02*
X44590000Y-112750000D01*
X43590000Y-103250000D02*
G75*
G02*
X44590000Y-103250000I500000J0D01*
G01*
X44590000Y-112750000D02*
G75*
G02*
X43590000Y-112750000I-500000J0D01*
G01*
X40000000Y-63000000D02*
X40000000Y-60800000D01*
X40000000Y-63000000D02*
X49100000Y-63000000D01*
X40000000Y-77000000D02*
X40000000Y-79200000D01*
X40000000Y-77000000D02*
X49100000Y-77000000D01*
X49100000Y-76000000D02*
X49100000Y-64000000D01*
X49100000Y-63000000D02*
G75*
G02*
X49100000Y-64000000I0J-500000D01*
G01*
X49100000Y-76000000D02*
G75*
G02*
X49100000Y-77000000I0J-500000D01*
G01*
X40000000Y-43000000D02*
X40000000Y-40800000D01*
X40000000Y-43000000D02*
X49100000Y-43000000D01*
X40000000Y-57000000D02*
X40000000Y-59200000D01*
X40000000Y-57000000D02*
X49100000Y-57000000D01*
X49100000Y-56000000D02*
X49100000Y-44000000D01*
X49100000Y-43000000D02*
G75*
G02*
X49100000Y-44000000I0J-500000D01*
G01*
X49100000Y-56000000D02*
G75*
G02*
X49100000Y-57000000I0J-500000D01*
G01*
M02*
