G04 #@! TF.GenerationSoftware,KiCad,Pcbnew,9.0.4*
G04 #@! TF.CreationDate,2025-08-21T00:06:41-07:00*
G04 #@! TF.ProjectId,DisplayAdapter,44697370-6c61-4794-9164-61707465722e,rev?*
G04 #@! TF.SameCoordinates,Original*
G04 #@! TF.FileFunction,Legend,Bot*
G04 #@! TF.FilePolarity,Positive*
%FSLAX46Y46*%
G04 Gerber Fmt 4.6, Leading zero omitted, Abs format (unit mm)*
G04 Created by KiCad (PCBNEW 9.0.4) date 2025-08-21 00:06:41*
%MOMM*%
%LPD*%
G01*
G04 APERTURE LIST*
G04 Aperture macros list*
%AMRoundRect*
0 Rectangle with rounded corners*
0 $1 Rounding radius*
0 $2 $3 $4 $5 $6 $7 $8 $9 X,Y pos of 4 corners*
0 Add a 4 corners polygon primitive as box body*
4,1,4,$2,$3,$4,$5,$6,$7,$8,$9,$2,$3,0*
0 Add four circle primitives for the rounded corners*
1,1,$1+$1,$2,$3*
1,1,$1+$1,$4,$5*
1,1,$1+$1,$6,$7*
1,1,$1+$1,$8,$9*
0 Add four rect primitives between the rounded corners*
20,1,$1+$1,$2,$3,$4,$5,0*
20,1,$1+$1,$4,$5,$6,$7,0*
20,1,$1+$1,$6,$7,$8,$9,0*
20,1,$1+$1,$8,$9,$2,$3,0*%
G04 Aperture macros list end*
%ADD10C,0.150000*%
%ADD11C,0.100000*%
%ADD12C,0.375000*%
%ADD13C,0.200000*%
%ADD14C,0.990600*%
%ADD15C,1.200000*%
%ADD16RoundRect,0.600000X0.450000X-0.000010X0.450000X0.000010X-0.450000X0.000010X-0.450000X-0.000010X0*%
%ADD17RoundRect,0.600000X0.850000X-0.000010X0.850000X0.000010X-0.850000X0.000010X-0.850000X-0.000010X0*%
%ADD18C,0.350000*%
%ADD19RoundRect,0.087500X0.212500X-0.087500X0.212500X0.087500X-0.212500X0.087500X-0.212500X-0.087500X0*%
%ADD20O,0.850000X1.100000*%
%ADD21C,0.550000*%
%ADD22C,0.450000*%
%ADD23O,1.800000X1.150000*%
%ADD24O,2.000000X1.140000*%
%ADD25O,1.600000X1.000000*%
%ADD26O,2.000000X1.150000*%
%ADD27C,1.520000*%
%ADD28RoundRect,0.225000X1.025000X-0.525000X1.025000X0.525000X-1.025000X0.525000X-1.025000X-0.525000X0*%
%ADD29RoundRect,0.750000X-0.600000X-0.000010X0.600000X-0.000010X0.600000X0.000010X-0.600000X0.000010X0*%
%ADD30C,5.300000*%
G04 APERTURE END LIST*
D10*
G36*
X55786147Y-94626174D02*
G01*
X55856794Y-94619152D01*
X55891193Y-94609333D01*
X55922557Y-94593995D01*
X55950946Y-94573620D01*
X55976412Y-94548565D01*
X55997917Y-94519864D01*
X56014880Y-94488421D01*
X56027639Y-94454951D01*
X56036557Y-94420521D01*
X56043579Y-94350607D01*
X56043579Y-94342180D01*
X55851909Y-94342180D01*
X55851909Y-94344989D01*
X55849833Y-94383457D01*
X55840735Y-94420521D01*
X55831991Y-94437637D01*
X55819730Y-94452700D01*
X55804282Y-94463200D01*
X55786147Y-94466683D01*
X55771680Y-94464092D01*
X55758853Y-94456242D01*
X55739985Y-94432428D01*
X55729483Y-94404462D01*
X55723193Y-94375092D01*
X55719713Y-94344989D01*
X55718980Y-94314214D01*
X55718980Y-93746228D01*
X55868701Y-93746228D01*
X55868701Y-93586737D01*
X55528715Y-93586737D01*
X55528715Y-94314214D01*
X55532928Y-94390479D01*
X55539387Y-94428318D01*
X55550392Y-94464607D01*
X55566059Y-94499235D01*
X55586784Y-94532445D01*
X55612086Y-94562112D01*
X55641372Y-94586301D01*
X55674226Y-94604834D01*
X55709882Y-94617076D01*
X55747358Y-94623884D01*
X55786147Y-94626174D01*
G37*
G36*
X55046030Y-94626174D02*
G01*
X55120890Y-94619884D01*
X55157234Y-94611163D01*
X55192270Y-94597536D01*
X55224884Y-94578854D01*
X55254491Y-94554855D01*
X55280092Y-94526576D01*
X55300653Y-94495382D01*
X55316388Y-94461528D01*
X55327276Y-94425467D01*
X55333554Y-94388152D01*
X55335641Y-94350607D01*
X55335641Y-94342180D01*
X55143971Y-94342180D01*
X55143971Y-94346393D01*
X55139087Y-94389075D01*
X55132274Y-94409892D01*
X55121623Y-94428948D01*
X55107107Y-94445010D01*
X55088711Y-94456913D01*
X55067894Y-94464243D01*
X55046030Y-94466683D01*
X55023048Y-94463562D01*
X55001273Y-94454105D01*
X54982473Y-94439518D01*
X54968422Y-94421254D01*
X54958461Y-94400128D01*
X54952302Y-94377168D01*
X54948089Y-94329602D01*
X54951630Y-94286920D01*
X54963537Y-94245643D01*
X54986618Y-94209984D01*
X55002498Y-94195460D01*
X55020873Y-94184094D01*
X55061478Y-94171516D01*
X55104832Y-94168707D01*
X55104832Y-94009216D01*
X55066363Y-94007140D01*
X55048011Y-94003109D01*
X55030643Y-93995233D01*
X55001273Y-93970748D01*
X54981733Y-93937897D01*
X54972635Y-93900833D01*
X54970498Y-93862304D01*
X54973307Y-93821088D01*
X54984542Y-93781887D01*
X54994796Y-93764307D01*
X55009027Y-93749036D01*
X55026351Y-93738487D01*
X55046030Y-93734993D01*
X55064769Y-93738097D01*
X55082422Y-93747632D01*
X55097240Y-93761588D01*
X55107640Y-93777735D01*
X55118814Y-93814799D01*
X55121623Y-93855343D01*
X55121623Y-93859556D01*
X55313232Y-93859556D01*
X55313232Y-93848321D01*
X55305538Y-93776331D01*
X55295888Y-93741397D01*
X55282457Y-93708431D01*
X55264689Y-93677746D01*
X55241913Y-93649691D01*
X55215078Y-93625472D01*
X55185248Y-93606338D01*
X55152775Y-93592014D01*
X55118082Y-93582524D01*
X55046030Y-93575502D01*
X54973307Y-93582524D01*
X54938070Y-93592370D01*
X54905468Y-93607742D01*
X54875796Y-93628285D01*
X54849476Y-93653904D01*
X54827210Y-93683190D01*
X54809603Y-93714781D01*
X54796147Y-93748311D01*
X54786522Y-93783292D01*
X54778828Y-93855343D01*
X54785850Y-93923914D01*
X54794935Y-93956630D01*
X54808199Y-93987540D01*
X54825487Y-94016374D01*
X54846667Y-94042800D01*
X54871293Y-94066182D01*
X54899179Y-94086153D01*
X54867161Y-94106460D01*
X54838301Y-94130971D01*
X54813103Y-94159134D01*
X54792140Y-94190444D01*
X54775855Y-94224339D01*
X54764845Y-94260359D01*
X54758523Y-94297631D01*
X54756419Y-94335219D01*
X54758531Y-94374072D01*
X54764845Y-94412156D01*
X54775481Y-94449151D01*
X54790735Y-94484879D01*
X54810658Y-94518114D01*
X54835493Y-94547833D01*
X54864555Y-94573377D01*
X54897042Y-94593995D01*
X54932222Y-94609396D01*
X54969094Y-94619152D01*
X55046030Y-94626174D01*
G37*
G36*
X49786147Y-113026174D02*
G01*
X49856794Y-113019152D01*
X49891193Y-113009333D01*
X49922557Y-112993995D01*
X49950946Y-112973620D01*
X49976412Y-112948565D01*
X49997917Y-112919864D01*
X50014880Y-112888421D01*
X50027639Y-112854951D01*
X50036557Y-112820521D01*
X50043579Y-112750607D01*
X50043579Y-112742180D01*
X49851909Y-112742180D01*
X49851909Y-112744989D01*
X49849833Y-112783457D01*
X49840735Y-112820521D01*
X49831991Y-112837637D01*
X49819730Y-112852700D01*
X49804282Y-112863200D01*
X49786147Y-112866683D01*
X49771680Y-112864092D01*
X49758853Y-112856242D01*
X49739985Y-112832428D01*
X49729483Y-112804462D01*
X49723193Y-112775092D01*
X49719713Y-112744989D01*
X49718980Y-112714214D01*
X49718980Y-112146228D01*
X49868701Y-112146228D01*
X49868701Y-111986737D01*
X49528715Y-111986737D01*
X49528715Y-112714214D01*
X49532928Y-112790479D01*
X49539387Y-112828318D01*
X49550392Y-112864607D01*
X49566059Y-112899235D01*
X49586784Y-112932445D01*
X49612086Y-112962112D01*
X49641372Y-112986301D01*
X49674226Y-113004834D01*
X49709882Y-113017076D01*
X49747358Y-113023884D01*
X49786147Y-113026174D01*
G37*
G36*
X49222312Y-113015000D02*
G01*
X48974711Y-112146228D01*
X49321658Y-112146228D01*
X49321658Y-111986737D01*
X48778828Y-111986737D01*
X48778828Y-112146228D01*
X49026430Y-113015000D01*
X49222312Y-113015000D01*
G37*
G36*
X54386147Y-74026174D02*
G01*
X54456794Y-74019152D01*
X54491193Y-74009333D01*
X54522557Y-73993995D01*
X54550946Y-73973620D01*
X54576412Y-73948565D01*
X54597917Y-73919864D01*
X54614880Y-73888421D01*
X54627639Y-73854951D01*
X54636557Y-73820521D01*
X54643579Y-73750607D01*
X54643579Y-73742180D01*
X54451909Y-73742180D01*
X54451909Y-73744989D01*
X54449833Y-73783457D01*
X54440735Y-73820521D01*
X54431991Y-73837637D01*
X54419730Y-73852700D01*
X54404282Y-73863200D01*
X54386147Y-73866683D01*
X54371680Y-73864092D01*
X54358853Y-73856242D01*
X54339985Y-73832428D01*
X54329483Y-73804462D01*
X54323193Y-73775092D01*
X54319713Y-73744989D01*
X54318980Y-73714214D01*
X54318980Y-73146228D01*
X54468701Y-73146228D01*
X54468701Y-72986737D01*
X54128715Y-72986737D01*
X54128715Y-73714214D01*
X54132928Y-73790479D01*
X54139387Y-73828318D01*
X54150392Y-73864607D01*
X54166059Y-73899235D01*
X54186784Y-73932445D01*
X54212086Y-73962112D01*
X54241372Y-73986301D01*
X54274226Y-74004834D01*
X54309882Y-74017076D01*
X54347358Y-74023884D01*
X54386147Y-74026174D01*
G37*
G36*
X53646030Y-74026174D02*
G01*
X53717410Y-74019884D01*
X53751649Y-74011168D01*
X53784577Y-73997536D01*
X53815173Y-73979164D01*
X53842646Y-73956259D01*
X53866448Y-73929588D01*
X53885999Y-73900266D01*
X53901368Y-73868628D01*
X53912560Y-73835237D01*
X53924467Y-73764590D01*
X53731393Y-73764590D01*
X53725104Y-73800982D01*
X53709716Y-73834504D01*
X53697656Y-73848139D01*
X53682422Y-73858318D01*
X53665026Y-73864569D01*
X53646030Y-73866683D01*
X53628582Y-73864087D01*
X53612447Y-73856242D01*
X53598477Y-73844365D01*
X53587290Y-73829680D01*
X53572635Y-73795364D01*
X53564209Y-73758972D01*
X53560057Y-73722641D01*
X53559324Y-73686249D01*
X53560057Y-73648452D01*
X53563537Y-73612793D01*
X53571231Y-73577805D01*
X53585214Y-73544282D01*
X53609027Y-73516988D01*
X53624598Y-73508552D01*
X53641878Y-73505753D01*
X53671981Y-73509966D01*
X53685589Y-73515914D01*
X53697138Y-73525354D01*
X53713197Y-73551243D01*
X53718814Y-73581285D01*
X53910484Y-73581285D01*
X53910484Y-72986737D01*
X53405390Y-72986737D01*
X53405390Y-73146228D01*
X53718814Y-73146228D01*
X53718814Y-73353285D01*
X53681018Y-73347667D01*
X53641878Y-73346263D01*
X53600220Y-73348890D01*
X53559324Y-73356765D01*
X53520510Y-73370664D01*
X53485868Y-73391081D01*
X53455387Y-73417497D01*
X53429203Y-73449822D01*
X53407778Y-73485785D01*
X53391407Y-73523278D01*
X53379716Y-73562375D01*
X53372539Y-73603023D01*
X53367654Y-73686249D01*
X53372539Y-73769474D01*
X53379873Y-73810197D01*
X53392140Y-73849952D01*
X53409232Y-73887848D01*
X53431280Y-73923408D01*
X53458118Y-73955132D01*
X53489348Y-73981477D01*
X53524699Y-74001831D01*
X53564209Y-74015671D01*
X53605546Y-74023579D01*
X53646030Y-74026174D01*
G37*
D11*
G36*
X72747731Y-91615000D02*
G01*
X72747731Y-90586737D01*
X72568701Y-90586737D01*
X72449755Y-91069361D01*
X72330808Y-90586737D01*
X72151778Y-90586737D01*
X72151778Y-91615000D01*
X72325252Y-91615000D01*
X72325252Y-91409347D01*
X72323176Y-91281364D01*
X72316154Y-91154724D01*
X72304980Y-91028145D01*
X72291669Y-90901505D01*
X72392419Y-91305788D01*
X72507091Y-91305788D01*
X72607841Y-90901505D01*
X72594530Y-91028145D01*
X72583356Y-91154724D01*
X72576395Y-91281364D01*
X72574258Y-91409347D01*
X72574258Y-91615000D01*
X72747731Y-91615000D01*
G37*
G36*
X71746030Y-91626174D02*
G01*
X71817410Y-91619884D01*
X71851649Y-91611168D01*
X71884577Y-91597536D01*
X71915173Y-91579164D01*
X71942646Y-91556259D01*
X71966448Y-91529588D01*
X71985999Y-91500266D01*
X72001368Y-91468628D01*
X72012560Y-91435237D01*
X72024467Y-91364590D01*
X71831393Y-91364590D01*
X71825104Y-91400982D01*
X71809716Y-91434504D01*
X71797656Y-91448139D01*
X71782422Y-91458318D01*
X71765026Y-91464569D01*
X71746030Y-91466683D01*
X71728582Y-91464087D01*
X71712447Y-91456242D01*
X71698477Y-91444365D01*
X71687290Y-91429680D01*
X71672635Y-91395364D01*
X71664209Y-91358972D01*
X71660057Y-91322641D01*
X71659324Y-91286249D01*
X71660057Y-91248452D01*
X71663537Y-91212793D01*
X71671231Y-91177805D01*
X71685214Y-91144282D01*
X71709027Y-91116988D01*
X71724598Y-91108552D01*
X71741878Y-91105753D01*
X71771981Y-91109966D01*
X71785589Y-91115914D01*
X71797138Y-91125354D01*
X71813197Y-91151243D01*
X71818814Y-91181285D01*
X72010484Y-91181285D01*
X72010484Y-90586737D01*
X71505390Y-90586737D01*
X71505390Y-90746228D01*
X71818814Y-90746228D01*
X71818814Y-90953285D01*
X71781018Y-90947667D01*
X71741878Y-90946263D01*
X71700220Y-90948890D01*
X71659324Y-90956765D01*
X71620510Y-90970664D01*
X71585868Y-90991081D01*
X71555387Y-91017497D01*
X71529203Y-91049822D01*
X71507778Y-91085785D01*
X71491407Y-91123278D01*
X71479716Y-91162375D01*
X71472539Y-91203023D01*
X71467654Y-91286249D01*
X71472539Y-91369474D01*
X71479873Y-91410197D01*
X71492140Y-91449952D01*
X71509232Y-91487848D01*
X71531280Y-91523408D01*
X71558118Y-91555132D01*
X71589348Y-91581477D01*
X71624699Y-91601831D01*
X71664209Y-91615671D01*
X71705546Y-91623579D01*
X71746030Y-91626174D01*
G37*
G36*
X68170113Y-82865867D02*
G01*
X68165936Y-82808375D01*
X68154025Y-82758430D01*
X68134942Y-82714802D01*
X68108339Y-82675380D01*
X68076173Y-82642797D01*
X68037978Y-82616434D01*
X67995590Y-82597327D01*
X67948757Y-82585612D01*
X67896561Y-82581568D01*
X67827145Y-82587651D01*
X67759052Y-82605992D01*
X67692564Y-82636537D01*
X67618368Y-82684272D01*
X67544121Y-82743473D01*
X67455397Y-82824651D01*
X67363666Y-82916727D01*
X67251821Y-83036043D01*
X67251821Y-82558609D01*
X67170000Y-82570821D01*
X67170000Y-83136549D01*
X67249684Y-83136549D01*
X67442819Y-82940544D01*
X67587472Y-82808469D01*
X67649194Y-82760805D01*
X67700556Y-82728053D01*
X67751702Y-82703245D01*
X67798192Y-82688241D01*
X67845750Y-82679922D01*
X67897294Y-82677067D01*
X67955561Y-82683202D01*
X68002053Y-82700313D01*
X68039382Y-82727686D01*
X68067454Y-82764421D01*
X68084879Y-82809883D01*
X68091100Y-82866599D01*
X68087888Y-82918403D01*
X68079085Y-82959913D01*
X68065638Y-82992995D01*
X68034228Y-83039396D01*
X67984183Y-83090631D01*
X68036573Y-83156638D01*
X68080506Y-83114470D01*
X68114065Y-83071857D01*
X68138483Y-83028532D01*
X68155554Y-82981795D01*
X68166319Y-82927979D01*
X68170113Y-82865867D01*
G37*
G36*
X67789487Y-81651494D02*
G01*
X67891761Y-81667906D01*
X67973948Y-81692803D01*
X68039443Y-81724825D01*
X68087309Y-81760301D01*
X68123317Y-81800629D01*
X68148907Y-81846314D01*
X68164632Y-81898427D01*
X68170113Y-81958504D01*
X68164648Y-82018250D01*
X68148951Y-82070189D01*
X68123379Y-82115831D01*
X68087360Y-82156230D01*
X68039443Y-82191878D01*
X67973924Y-82224057D01*
X67891729Y-82249068D01*
X67789463Y-82265551D01*
X67663248Y-82271563D01*
X67536620Y-82265544D01*
X67434118Y-82249050D01*
X67351828Y-82224038D01*
X67286320Y-82191878D01*
X67238403Y-82156230D01*
X67222170Y-82138023D01*
X67389696Y-82138023D01*
X67458094Y-82154348D01*
X67547764Y-82165451D01*
X67663248Y-82169591D01*
X67782525Y-82164912D01*
X67873609Y-82152446D01*
X67941783Y-82134236D01*
X67991693Y-82111828D01*
X68038015Y-82078587D01*
X68068701Y-82042492D01*
X68086537Y-82002947D01*
X68092566Y-81958504D01*
X68088097Y-81915468D01*
X68075288Y-81878710D01*
X68054309Y-81846901D01*
X68024361Y-81819225D01*
X67389696Y-82138023D01*
X67222170Y-82138023D01*
X67202384Y-82115831D01*
X67176812Y-82070189D01*
X67161115Y-82018250D01*
X67155650Y-81958504D01*
X67233869Y-81958504D01*
X67238695Y-82002259D01*
X67252579Y-82039702D01*
X67275494Y-82072234D01*
X67308546Y-82100654D01*
X67950416Y-81781917D01*
X67881244Y-81763883D01*
X67787485Y-81751442D01*
X67663248Y-81746746D01*
X67545245Y-81751373D01*
X67454601Y-81763732D01*
X67386279Y-81781844D01*
X67335840Y-81804204D01*
X67289064Y-81837302D01*
X67258047Y-81873500D01*
X67239987Y-81913402D01*
X67233869Y-81958504D01*
X67155650Y-81958504D01*
X67161131Y-81898427D01*
X67176856Y-81846314D01*
X67202446Y-81800629D01*
X67238454Y-81760301D01*
X67286320Y-81724825D01*
X67351805Y-81692822D01*
X67434086Y-81667924D01*
X67536596Y-81651501D01*
X67663248Y-81645507D01*
X67789487Y-81651494D01*
G37*
G36*
X68170113Y-81144443D02*
G01*
X68165936Y-81086952D01*
X68154025Y-81037007D01*
X68134942Y-80993379D01*
X68108339Y-80953957D01*
X68076173Y-80921373D01*
X68037978Y-80895010D01*
X67995590Y-80875903D01*
X67948757Y-80864189D01*
X67896561Y-80860144D01*
X67827145Y-80866227D01*
X67759052Y-80884569D01*
X67692564Y-80915113D01*
X67618368Y-80962848D01*
X67544121Y-81022050D01*
X67455397Y-81103227D01*
X67363666Y-81195303D01*
X67251821Y-81314619D01*
X67251821Y-80837185D01*
X67170000Y-80849398D01*
X67170000Y-81415125D01*
X67249684Y-81415125D01*
X67442819Y-81219120D01*
X67587472Y-81087046D01*
X67649194Y-81039382D01*
X67700556Y-81006629D01*
X67751702Y-80981822D01*
X67798192Y-80966817D01*
X67845750Y-80958498D01*
X67897294Y-80955643D01*
X67955561Y-80961779D01*
X68002053Y-80978890D01*
X68039382Y-81006263D01*
X68067454Y-81042997D01*
X68084879Y-81088460D01*
X68091100Y-81145176D01*
X68087888Y-81196980D01*
X68079085Y-81238489D01*
X68065638Y-81271571D01*
X68034228Y-81317972D01*
X67984183Y-81369207D01*
X68036573Y-81435214D01*
X68080506Y-81393047D01*
X68114065Y-81350434D01*
X68138483Y-81307109D01*
X68155554Y-81260371D01*
X68166319Y-81206555D01*
X68170113Y-81144443D01*
G37*
G36*
X68156435Y-79980809D02*
G01*
X68080354Y-79996563D01*
X68080354Y-80395045D01*
X67739330Y-80395045D01*
X67762310Y-80347169D01*
X67775600Y-80306018D01*
X67782798Y-80264062D01*
X67785308Y-80216992D01*
X67779969Y-80156707D01*
X67764754Y-80105146D01*
X67740200Y-80060661D01*
X67705929Y-80022086D01*
X67664576Y-79991984D01*
X67614230Y-79969510D01*
X67553050Y-79955094D01*
X67478722Y-79949912D01*
X67414585Y-79954484D01*
X67358144Y-79967591D01*
X67308180Y-79988686D01*
X67263073Y-80018290D01*
X67225737Y-80054705D01*
X67195462Y-80098534D01*
X67173841Y-80147387D01*
X67160368Y-80203170D01*
X67155650Y-80267245D01*
X67159060Y-80322655D01*
X67168885Y-80372294D01*
X67184715Y-80416966D01*
X67219193Y-80480083D01*
X67266231Y-80540797D01*
X67324361Y-80483339D01*
X67283721Y-80433007D01*
X67256095Y-80381734D01*
X67239639Y-80325896D01*
X67233869Y-80260772D01*
X67238181Y-80209674D01*
X67250331Y-80166929D01*
X67269679Y-80130973D01*
X67296334Y-80100671D01*
X67328810Y-80077353D01*
X67369678Y-80059663D01*
X67420798Y-80048140D01*
X67484462Y-80043946D01*
X67541182Y-80047301D01*
X67584965Y-80056333D01*
X67618368Y-80069836D01*
X67648261Y-80089574D01*
X67670926Y-80112587D01*
X67687306Y-80139139D01*
X67702537Y-80184282D01*
X67707761Y-80234944D01*
X67705425Y-80281897D01*
X67699152Y-80318230D01*
X67674727Y-80399380D01*
X67674727Y-80479736D01*
X68156435Y-80479736D01*
X68156435Y-79980809D01*
G37*
G36*
X67577824Y-79657126D02*
G01*
X67661050Y-79657126D01*
X67661050Y-79095673D01*
X67577824Y-79095673D01*
X67577824Y-79657126D01*
G37*
G36*
X67789487Y-78208647D02*
G01*
X67891761Y-78225059D01*
X67973948Y-78249956D01*
X68039443Y-78281978D01*
X68087309Y-78317454D01*
X68123317Y-78357782D01*
X68148907Y-78403467D01*
X68164632Y-78455580D01*
X68170113Y-78515657D01*
X68164648Y-78575403D01*
X68148951Y-78627341D01*
X68123379Y-78672984D01*
X68087360Y-78713383D01*
X68039443Y-78749031D01*
X67973924Y-78781210D01*
X67891729Y-78806220D01*
X67789463Y-78822704D01*
X67663248Y-78828715D01*
X67536620Y-78822697D01*
X67434118Y-78806203D01*
X67351828Y-78781191D01*
X67286320Y-78749031D01*
X67238403Y-78713383D01*
X67222170Y-78695176D01*
X67389696Y-78695176D01*
X67458094Y-78711501D01*
X67547764Y-78722604D01*
X67663248Y-78726744D01*
X67782525Y-78722065D01*
X67873609Y-78709599D01*
X67941783Y-78691388D01*
X67991693Y-78668981D01*
X68038015Y-78635740D01*
X68068701Y-78599645D01*
X68086537Y-78560099D01*
X68092566Y-78515657D01*
X68088097Y-78472620D01*
X68075288Y-78435863D01*
X68054309Y-78404054D01*
X68024361Y-78376378D01*
X67389696Y-78695176D01*
X67222170Y-78695176D01*
X67202384Y-78672984D01*
X67176812Y-78627341D01*
X67161115Y-78575403D01*
X67155650Y-78515657D01*
X67233869Y-78515657D01*
X67238695Y-78559412D01*
X67252579Y-78596855D01*
X67275494Y-78629387D01*
X67308546Y-78657807D01*
X67950416Y-78339070D01*
X67881244Y-78321036D01*
X67787485Y-78308595D01*
X67663248Y-78303899D01*
X67545245Y-78308526D01*
X67454601Y-78320885D01*
X67386279Y-78338997D01*
X67335840Y-78361357D01*
X67289064Y-78394454D01*
X67258047Y-78430652D01*
X67239987Y-78470554D01*
X67233869Y-78515657D01*
X67155650Y-78515657D01*
X67161131Y-78455580D01*
X67176856Y-78403467D01*
X67202446Y-78357782D01*
X67238454Y-78317454D01*
X67286320Y-78281978D01*
X67351805Y-78249975D01*
X67434086Y-78225076D01*
X67536596Y-78208654D01*
X67663248Y-78202660D01*
X67789487Y-78208647D01*
G37*
G36*
X67493809Y-77335185D02*
G01*
X67546709Y-77355311D01*
X67593944Y-77388965D01*
X67634192Y-77432338D01*
X67668531Y-77484011D01*
X67696953Y-77545097D01*
X67746121Y-77468537D01*
X67795689Y-77415160D01*
X67833519Y-77389254D01*
X67875329Y-77373797D01*
X67922390Y-77368510D01*
X67985849Y-77375411D01*
X68036573Y-77394705D01*
X68079667Y-77425215D01*
X68113387Y-77463642D01*
X68138854Y-77508193D01*
X68156435Y-77556577D01*
X68166746Y-77606863D01*
X68170113Y-77655678D01*
X68166877Y-77698064D01*
X68156435Y-77746903D01*
X68138788Y-77794852D01*
X68112655Y-77840570D01*
X68078212Y-77880584D01*
X68034375Y-77913110D01*
X68001226Y-77928431D01*
X67962603Y-77938048D01*
X67917383Y-77941442D01*
X67863748Y-77936468D01*
X67818855Y-77922399D01*
X67780973Y-77899799D01*
X67748416Y-77869233D01*
X67718955Y-77829538D01*
X67692679Y-77779143D01*
X67661132Y-77837717D01*
X67626159Y-77886268D01*
X67587838Y-77925994D01*
X67543431Y-77956558D01*
X67492146Y-77975145D01*
X67432072Y-77981620D01*
X67380515Y-77977184D01*
X67333664Y-77964230D01*
X67290594Y-77942847D01*
X67252364Y-77913680D01*
X67219540Y-77876808D01*
X67191859Y-77831228D01*
X67172305Y-77781379D01*
X67159991Y-77723817D01*
X67155837Y-77660013D01*
X67234602Y-77660013D01*
X67241106Y-77732531D01*
X67258667Y-77787142D01*
X67285587Y-77827991D01*
X67322995Y-77858885D01*
X67369471Y-77877928D01*
X67427737Y-77884717D01*
X67492992Y-77878160D01*
X67542592Y-77860293D01*
X67584693Y-77831893D01*
X67618002Y-77796423D01*
X67644805Y-77755563D01*
X67666118Y-77712404D01*
X67629094Y-77612630D01*
X67719973Y-77612630D01*
X67763387Y-77738232D01*
X67788107Y-77787284D01*
X67817915Y-77821519D01*
X67842330Y-77837153D01*
X67874078Y-77847249D01*
X67915245Y-77850950D01*
X67968974Y-77844775D01*
X68012066Y-77827429D01*
X68046953Y-77799293D01*
X68072604Y-77762119D01*
X68088836Y-77715165D01*
X68094703Y-77655678D01*
X68088920Y-77595107D01*
X68073008Y-77547737D01*
X68048053Y-77510659D01*
X68013893Y-77482388D01*
X67972059Y-77465076D01*
X67920252Y-77458941D01*
X67871464Y-77463790D01*
X67832957Y-77477215D01*
X67802466Y-77498447D01*
X67762772Y-77543883D01*
X67719973Y-77612630D01*
X67629094Y-77612630D01*
X67611896Y-77566285D01*
X67580476Y-77506546D01*
X67544057Y-77463276D01*
X67514648Y-77442793D01*
X67477772Y-77429885D01*
X67431339Y-77425235D01*
X67377101Y-77432215D01*
X67330712Y-77452474D01*
X67290228Y-77486601D01*
X67260509Y-77530684D01*
X67241518Y-77587299D01*
X67234602Y-77660013D01*
X67155837Y-77660013D01*
X67155650Y-77657144D01*
X67159816Y-77592324D01*
X67171735Y-77535267D01*
X67190821Y-77484830D01*
X67217841Y-77438457D01*
X67250417Y-77400360D01*
X67288824Y-77369609D01*
X67332319Y-77346844D01*
X67380180Y-77333022D01*
X67433476Y-77328271D01*
X67493809Y-77335185D01*
G37*
G36*
X67577824Y-77074991D02*
G01*
X67661050Y-77074991D01*
X67661050Y-76513538D01*
X67577824Y-76513538D01*
X67577824Y-77074991D01*
G37*
G36*
X68170113Y-75980172D02*
G01*
X68165936Y-75922681D01*
X68154025Y-75872736D01*
X68134942Y-75829108D01*
X68108339Y-75789686D01*
X68076173Y-75757102D01*
X68037978Y-75730739D01*
X67995590Y-75711632D01*
X67948757Y-75699918D01*
X67896561Y-75695874D01*
X67827145Y-75701956D01*
X67759052Y-75720298D01*
X67692564Y-75750843D01*
X67618368Y-75798578D01*
X67544121Y-75857779D01*
X67455397Y-75938956D01*
X67363666Y-76031033D01*
X67251821Y-76150348D01*
X67251821Y-75672915D01*
X67170000Y-75685127D01*
X67170000Y-76250854D01*
X67249684Y-76250854D01*
X67442819Y-76054849D01*
X67587472Y-75922775D01*
X67649194Y-75875111D01*
X67700556Y-75842358D01*
X67751702Y-75817551D01*
X67798192Y-75802547D01*
X67845750Y-75794228D01*
X67897294Y-75791372D01*
X67955561Y-75797508D01*
X68002053Y-75814619D01*
X68039382Y-75841992D01*
X68067454Y-75878727D01*
X68084879Y-75924189D01*
X68091100Y-75980905D01*
X68087888Y-76032709D01*
X68079085Y-76074219D01*
X68065638Y-76107301D01*
X68034228Y-76153702D01*
X67984183Y-76204937D01*
X68036573Y-76270943D01*
X68080506Y-76228776D01*
X68114065Y-76186163D01*
X68138483Y-76142838D01*
X68155554Y-76096101D01*
X68166319Y-76042284D01*
X68170113Y-75980172D01*
G37*
G36*
X67789487Y-74765800D02*
G01*
X67891761Y-74782212D01*
X67973948Y-74807109D01*
X68039443Y-74839131D01*
X68087309Y-74874607D01*
X68123317Y-74914935D01*
X68148907Y-74960620D01*
X68164632Y-75012732D01*
X68170113Y-75072810D01*
X68164648Y-75132556D01*
X68148951Y-75184494D01*
X68123379Y-75230137D01*
X68087360Y-75270535D01*
X68039443Y-75306184D01*
X67973924Y-75338363D01*
X67891729Y-75363373D01*
X67789463Y-75379856D01*
X67663248Y-75385868D01*
X67536620Y-75379850D01*
X67434118Y-75363356D01*
X67351828Y-75338344D01*
X67286320Y-75306184D01*
X67238403Y-75270535D01*
X67222170Y-75252329D01*
X67389696Y-75252329D01*
X67458094Y-75268654D01*
X67547764Y-75279757D01*
X67663248Y-75283897D01*
X67782525Y-75279218D01*
X67873609Y-75266752D01*
X67941783Y-75248541D01*
X67991693Y-75226133D01*
X68038015Y-75192893D01*
X68068701Y-75156797D01*
X68086537Y-75117252D01*
X68092566Y-75072810D01*
X68088097Y-75029773D01*
X68075288Y-74993016D01*
X68054309Y-74961207D01*
X68024361Y-74933531D01*
X67389696Y-75252329D01*
X67222170Y-75252329D01*
X67202384Y-75230137D01*
X67176812Y-75184494D01*
X67161115Y-75132556D01*
X67155650Y-75072810D01*
X67233869Y-75072810D01*
X67238695Y-75116565D01*
X67252579Y-75154007D01*
X67275494Y-75186539D01*
X67308546Y-75214959D01*
X67950416Y-74896222D01*
X67881244Y-74878189D01*
X67787485Y-74865748D01*
X67663248Y-74861051D01*
X67545245Y-74865678D01*
X67454601Y-74878038D01*
X67386279Y-74896149D01*
X67335840Y-74918510D01*
X67289064Y-74951607D01*
X67258047Y-74987805D01*
X67239987Y-75027707D01*
X67233869Y-75072810D01*
X67155650Y-75072810D01*
X67161131Y-75012732D01*
X67176856Y-74960620D01*
X67202446Y-74914935D01*
X67238454Y-74874607D01*
X67286320Y-74839131D01*
X67351805Y-74807128D01*
X67434086Y-74782229D01*
X67536596Y-74765806D01*
X67663248Y-74759813D01*
X67789487Y-74765800D01*
G37*
G36*
X68327344Y-73314078D02*
G01*
X67024980Y-73314078D01*
X67024980Y-73390160D01*
X68327344Y-73390160D01*
X68327344Y-73314078D01*
G37*
G36*
X67614399Y-71553148D02*
G01*
X67634853Y-71484288D01*
X67665019Y-71423944D01*
X67705790Y-71372212D01*
X67756182Y-71332780D01*
X67794599Y-71314346D01*
X67837932Y-71302971D01*
X67887219Y-71299014D01*
X67951356Y-71305233D01*
X68004788Y-71322823D01*
X68049696Y-71351151D01*
X68087498Y-71390910D01*
X68115597Y-71437775D01*
X68137166Y-71496508D01*
X68151292Y-71569633D01*
X68156435Y-71660127D01*
X68156435Y-71896310D01*
X67170000Y-71896310D01*
X67170000Y-71804413D01*
X67607255Y-71804413D01*
X67607255Y-71650785D01*
X67597348Y-71644312D01*
X67686207Y-71644312D01*
X67686207Y-71804413D01*
X68077484Y-71804413D01*
X68077484Y-71641442D01*
X68071572Y-71559340D01*
X68056068Y-71500308D01*
X68033337Y-71458749D01*
X68009174Y-71434315D01*
X67977971Y-71416213D01*
X67938085Y-71404520D01*
X67887219Y-71400252D01*
X67832486Y-71404954D01*
X67789944Y-71417798D01*
X67756980Y-71437654D01*
X67731758Y-71464488D01*
X67707752Y-71509613D01*
X67692009Y-71568345D01*
X67686207Y-71644312D01*
X67597348Y-71644312D01*
X67170000Y-71365081D01*
X67170000Y-71250165D01*
X67614399Y-71553148D01*
G37*
G36*
X68074614Y-70914270D02*
G01*
X67713501Y-70914270D01*
X67713501Y-70540945D01*
X67629481Y-70540945D01*
X67629481Y-70914270D01*
X67249684Y-70914270D01*
X67249684Y-70454056D01*
X67170000Y-70454056D01*
X67170000Y-71006167D01*
X68156435Y-71006167D01*
X68156435Y-70470603D01*
X68074614Y-70482815D01*
X68074614Y-70914270D01*
G37*
G36*
X67299204Y-69906402D02*
G01*
X68156435Y-69615631D01*
X68156435Y-69524467D01*
X67170000Y-69868361D01*
X67170000Y-69948778D01*
X68156435Y-70293344D01*
X68156435Y-70193571D01*
X67299204Y-69906402D01*
G37*
G36*
X68170113Y-69094478D02*
G01*
X68166148Y-69035937D01*
X68154829Y-68984759D01*
X68136713Y-68939811D01*
X68111439Y-68898547D01*
X68081827Y-68864838D01*
X68047686Y-68837840D01*
X68009279Y-68817657D01*
X67968720Y-68805632D01*
X67925259Y-68801570D01*
X67868490Y-68808381D01*
X67817182Y-68828497D01*
X67772189Y-68859675D01*
X67736460Y-68898534D01*
X67710648Y-68943555D01*
X67696953Y-68991102D01*
X67687749Y-68937962D01*
X67665385Y-68885956D01*
X67631048Y-68840132D01*
X67584235Y-68802669D01*
X67547980Y-68784970D01*
X67505801Y-68773902D01*
X67456435Y-68770001D01*
X67400202Y-68774808D01*
X67349081Y-68788845D01*
X67302074Y-68812011D01*
X67260061Y-68843442D01*
X67224411Y-68882075D01*
X67194729Y-68928698D01*
X67173388Y-68979768D01*
X67160216Y-69036600D01*
X67155650Y-69100279D01*
X67162766Y-69174973D01*
X67185081Y-69254945D01*
X67208948Y-69305459D01*
X67241283Y-69350374D01*
X67282718Y-69390317D01*
X67332971Y-69322845D01*
X67289669Y-69276580D01*
X67258660Y-69220874D01*
X67239966Y-69159883D01*
X67233869Y-69099546D01*
X67238027Y-69043593D01*
X67249665Y-68997107D01*
X67267964Y-68958409D01*
X67292732Y-68926195D01*
X67324038Y-68899794D01*
X67360228Y-68880767D01*
X67402256Y-68868929D01*
X67451428Y-68864767D01*
X67501521Y-68868422D01*
X67540606Y-68878363D01*
X67570924Y-68893527D01*
X67597191Y-68914978D01*
X67617642Y-68940639D01*
X67632718Y-68971074D01*
X67646289Y-69021747D01*
X67651036Y-69080129D01*
X67651036Y-69160546D01*
X67727850Y-69149066D01*
X67727850Y-69093073D01*
X67732777Y-69044550D01*
X67747573Y-68997941D01*
X67772656Y-68956464D01*
X67808633Y-68922897D01*
X67837494Y-68906990D01*
X67871866Y-68897009D01*
X67913047Y-68893466D01*
X67957140Y-68897524D01*
X67993502Y-68908928D01*
X68023681Y-68927123D01*
X68048724Y-68952390D01*
X68074037Y-68993683D01*
X68089394Y-69040120D01*
X68094703Y-69093073D01*
X68088833Y-69155597D01*
X68072416Y-69206524D01*
X68044988Y-69253542D01*
X68002074Y-69305565D01*
X68062402Y-69357283D01*
X68112632Y-69292950D01*
X68144956Y-69228811D01*
X68163908Y-69161376D01*
X68170113Y-69094478D01*
G37*
G36*
X67273375Y-68304169D02*
G01*
X67304596Y-68300434D01*
X67331529Y-68289605D01*
X67355197Y-68271502D01*
X67373473Y-68247982D01*
X67384436Y-68220946D01*
X67388230Y-68189314D01*
X67384414Y-68156685D01*
X67373426Y-68128930D01*
X67355197Y-68104928D01*
X67331477Y-68086387D01*
X67304546Y-68075334D01*
X67273375Y-68071528D01*
X67241248Y-68075354D01*
X67213594Y-68086432D01*
X67189356Y-68104928D01*
X67170728Y-68128978D01*
X67159533Y-68156731D01*
X67155650Y-68189314D01*
X67159510Y-68220900D01*
X67170679Y-68247933D01*
X67189356Y-68271502D01*
X67213541Y-68289563D01*
X67241198Y-68300415D01*
X67273375Y-68304169D01*
G37*
G36*
X67789487Y-67019393D02*
G01*
X67891761Y-67035806D01*
X67973948Y-67060703D01*
X68039443Y-67092725D01*
X68087309Y-67128201D01*
X68123317Y-67168529D01*
X68148907Y-67214214D01*
X68164632Y-67266326D01*
X68170113Y-67326404D01*
X68164648Y-67386150D01*
X68148951Y-67438088D01*
X68123379Y-67483731D01*
X68087360Y-67524129D01*
X68039443Y-67559778D01*
X67973924Y-67591957D01*
X67891729Y-67616967D01*
X67789463Y-67633450D01*
X67663248Y-67639462D01*
X67536620Y-67633443D01*
X67434118Y-67616950D01*
X67351828Y-67591938D01*
X67286320Y-67559778D01*
X67238403Y-67524129D01*
X67222170Y-67505922D01*
X67389696Y-67505922D01*
X67458094Y-67522248D01*
X67547764Y-67533351D01*
X67663248Y-67537491D01*
X67782525Y-67532812D01*
X67873609Y-67520346D01*
X67941783Y-67502135D01*
X67991693Y-67479727D01*
X68038015Y-67446487D01*
X68068701Y-67410391D01*
X68086537Y-67370846D01*
X68092566Y-67326404D01*
X68088097Y-67283367D01*
X68075288Y-67246610D01*
X68054309Y-67214801D01*
X68024361Y-67187124D01*
X67389696Y-67505922D01*
X67222170Y-67505922D01*
X67202384Y-67483731D01*
X67176812Y-67438088D01*
X67161115Y-67386150D01*
X67155650Y-67326404D01*
X67233869Y-67326404D01*
X67238695Y-67370159D01*
X67252579Y-67407601D01*
X67275494Y-67440133D01*
X67308546Y-67468553D01*
X67950416Y-67149816D01*
X67881244Y-67131782D01*
X67787485Y-67119342D01*
X67663248Y-67114645D01*
X67545245Y-67119272D01*
X67454601Y-67131631D01*
X67386279Y-67149743D01*
X67335840Y-67172103D01*
X67289064Y-67205201D01*
X67258047Y-67241399D01*
X67239987Y-67281301D01*
X67233869Y-67326404D01*
X67155650Y-67326404D01*
X67161131Y-67266326D01*
X67176856Y-67214214D01*
X67202446Y-67168529D01*
X67238454Y-67128201D01*
X67286320Y-67092725D01*
X67351805Y-67060721D01*
X67434086Y-67035823D01*
X67536596Y-67019400D01*
X67663248Y-67013407D01*
X67789487Y-67019393D01*
G37*
G36*
X69157617Y-82488722D02*
G01*
X69231908Y-82506114D01*
X69294413Y-82533488D01*
X69347041Y-82570455D01*
X69390902Y-82617763D01*
X69422182Y-82672265D01*
X69441506Y-82735388D01*
X69448279Y-82809202D01*
X69442098Y-82879334D01*
X69424340Y-82940505D01*
X69395462Y-82994399D01*
X69356431Y-83041814D01*
X69309133Y-83081408D01*
X69252580Y-83113590D01*
X69191260Y-83136326D01*
X69123538Y-83150372D01*
X69048332Y-83155233D01*
X68970754Y-83150276D01*
X68902020Y-83136057D01*
X68840847Y-83113224D01*
X68784986Y-83080513D01*
X68738670Y-83039560D01*
X68700896Y-82989759D01*
X68700719Y-82989392D01*
X69107255Y-82989392D01*
X69181821Y-82978670D01*
X69236254Y-82959201D01*
X69275233Y-82932667D01*
X69305181Y-82896731D01*
X69322965Y-82855652D01*
X69329089Y-82807737D01*
X69322346Y-82756983D01*
X69303260Y-82716537D01*
X69271631Y-82683906D01*
X69231060Y-82660857D01*
X69177453Y-82645141D01*
X69107255Y-82638293D01*
X69107255Y-82989392D01*
X68700719Y-82989392D01*
X68673721Y-82933371D01*
X68656669Y-82867391D01*
X68650643Y-82789785D01*
X68657210Y-82710554D01*
X68676472Y-82637622D01*
X68707048Y-82570221D01*
X68745409Y-82513363D01*
X68841580Y-82583033D01*
X68813202Y-82631809D01*
X68792732Y-82678899D01*
X68779909Y-82727947D01*
X68775512Y-82781908D01*
X68781490Y-82834939D01*
X68798878Y-82881469D01*
X68827903Y-82923019D01*
X68855805Y-82947458D01*
X68892031Y-82966891D01*
X68938439Y-82980959D01*
X68997407Y-82988660D01*
X68997407Y-82486130D01*
X69030746Y-82483627D01*
X69069153Y-82482527D01*
X69157617Y-82488722D01*
G37*
G36*
X69273152Y-81588886D02*
G01*
X69355641Y-81602846D01*
X69421290Y-81623953D01*
X69482716Y-81655023D01*
X69531667Y-81691070D01*
X69569912Y-81732030D01*
X69600957Y-81779094D01*
X69624714Y-81829877D01*
X69641353Y-81884926D01*
X69655874Y-81970957D01*
X69660771Y-82060476D01*
X69660771Y-82286645D01*
X68670000Y-82286645D01*
X68670000Y-82043928D01*
X68671010Y-82028175D01*
X68796334Y-82028175D01*
X68796334Y-82120071D01*
X69532971Y-82120071D01*
X69532971Y-82028907D01*
X69529737Y-81979730D01*
X69520026Y-81931271D01*
X69501262Y-81885909D01*
X69469773Y-81844382D01*
X69442886Y-81821516D01*
X69407137Y-81800716D01*
X69360657Y-81782283D01*
X69312146Y-81770155D01*
X69249675Y-81761984D01*
X69170392Y-81758958D01*
X69062248Y-81765132D01*
X68984096Y-81781245D01*
X68916988Y-81808718D01*
X68870279Y-81841878D01*
X68835112Y-81883236D01*
X68812821Y-81928401D01*
X68800473Y-81977265D01*
X68796334Y-82028175D01*
X68671010Y-82028175D01*
X68675267Y-81961789D01*
X68691188Y-81879553D01*
X68708924Y-81826676D01*
X68733822Y-81777288D01*
X68766170Y-81730931D01*
X68805486Y-81690657D01*
X68855628Y-81654958D01*
X68918394Y-81623953D01*
X68985225Y-81602776D01*
X69068173Y-81588850D01*
X69170392Y-81583775D01*
X69273152Y-81588886D01*
G37*
G36*
X69413158Y-80722746D02*
G01*
X69466763Y-80736163D01*
X69512379Y-80757466D01*
X69551290Y-80786537D01*
X69584323Y-80823935D01*
X69615938Y-80877960D01*
X69639833Y-80943227D01*
X69655237Y-81021886D01*
X69660771Y-81116477D01*
X69660771Y-81391434D01*
X68670000Y-81391434D01*
X68670000Y-81224860D01*
X69023236Y-81224860D01*
X69023236Y-81104998D01*
X69023313Y-81103532D01*
X69150303Y-81103532D01*
X69150303Y-81224860D01*
X69535840Y-81224860D01*
X69535840Y-81105730D01*
X69530549Y-81042349D01*
X69515926Y-80991624D01*
X69493098Y-80951003D01*
X69469655Y-80926934D01*
X69438997Y-80909041D01*
X69399399Y-80897432D01*
X69348445Y-80893178D01*
X69291963Y-80897624D01*
X69249161Y-80909597D01*
X69217028Y-80927741D01*
X69193351Y-80951735D01*
X69170188Y-80992784D01*
X69155543Y-81042666D01*
X69150303Y-81103532D01*
X69023313Y-81103532D01*
X69027197Y-81029903D01*
X69038524Y-80963385D01*
X69056575Y-80904352D01*
X69083588Y-80849670D01*
X69118638Y-80804472D01*
X69162149Y-80767576D01*
X69212551Y-80741013D01*
X69274246Y-80724081D01*
X69349911Y-80717995D01*
X69413158Y-80722746D01*
G37*
G36*
X69053400Y-80533592D02*
G01*
X69185474Y-80533592D01*
X69185474Y-79940570D01*
X69053400Y-79940570D01*
X69053400Y-80533592D01*
G37*
G36*
X69660771Y-79272993D02*
G01*
X69660771Y-79479745D01*
X68670000Y-79794940D01*
X68670000Y-79625497D01*
X68908381Y-79556559D01*
X68908381Y-79522121D01*
X69036852Y-79522121D01*
X69531566Y-79379239D01*
X69036852Y-79237822D01*
X69036852Y-79522121D01*
X68908381Y-79522121D01*
X68908381Y-79202651D01*
X68670000Y-79133714D01*
X68670000Y-78957126D01*
X69660771Y-79272993D01*
G37*
G36*
X69750530Y-78373508D02*
G01*
X69365664Y-78373508D01*
X69401828Y-78413201D01*
X69427332Y-78457554D01*
X69442889Y-78507520D01*
X69448279Y-78564506D01*
X69442277Y-78625415D01*
X69424970Y-78678488D01*
X69396561Y-78725340D01*
X69358693Y-78765634D01*
X69311856Y-78799827D01*
X69254717Y-78827983D01*
X69193676Y-78847479D01*
X69125479Y-78859648D01*
X69049064Y-78863886D01*
X68969959Y-78860180D01*
X68900716Y-78849658D01*
X68840115Y-78833051D01*
X68783159Y-78808040D01*
X68737158Y-78776787D01*
X68700530Y-78739323D01*
X68673467Y-78695013D01*
X68656612Y-78642233D01*
X68650643Y-78578855D01*
X68653913Y-78536479D01*
X68774108Y-78536479D01*
X68778253Y-78572072D01*
X68790217Y-78602567D01*
X68810107Y-78629148D01*
X68839077Y-78652433D01*
X68884696Y-78673300D01*
X68952252Y-78687999D01*
X69049064Y-78693710D01*
X69143032Y-78687604D01*
X69210440Y-78671658D01*
X69257648Y-78648525D01*
X69287381Y-78623253D01*
X69307965Y-78594326D01*
X69320424Y-78561037D01*
X69324754Y-78522130D01*
X69319193Y-78478059D01*
X69302833Y-78438904D01*
X69276866Y-78404370D01*
X69240795Y-78373508D01*
X68881819Y-78373508D01*
X68840401Y-78404700D01*
X68805676Y-78441774D01*
X68788235Y-78469949D01*
X68777722Y-78501225D01*
X68774108Y-78536479D01*
X68653913Y-78536479D01*
X68654021Y-78535086D01*
X68663879Y-78495111D01*
X68680075Y-78458260D01*
X68715213Y-78408619D01*
X68763361Y-78365631D01*
X68670000Y-78354152D01*
X68670000Y-78212674D01*
X69732578Y-78212674D01*
X69750530Y-78373508D01*
G37*
G36*
X68773551Y-77347911D02*
G01*
X68790594Y-77364907D01*
X68814337Y-77374531D01*
X68855929Y-77378524D01*
X69194084Y-77378524D01*
X69252764Y-77383633D01*
X69302378Y-77398113D01*
X69344632Y-77421337D01*
X69380746Y-77453567D01*
X69408440Y-77492529D01*
X69429507Y-77541774D01*
X69443264Y-77603600D01*
X69448279Y-77680835D01*
X69445278Y-77740028D01*
X69435701Y-77807170D01*
X69419845Y-77875313D01*
X69396561Y-77946449D01*
X69283110Y-77906943D01*
X69300885Y-77849126D01*
X69312908Y-77795690D01*
X69320417Y-77744336D01*
X69322616Y-77705198D01*
X69318561Y-77652871D01*
X69307537Y-77612294D01*
X69290682Y-77581001D01*
X69266099Y-77557180D01*
X69231902Y-77542076D01*
X69184741Y-77536488D01*
X69135221Y-77536488D01*
X69135221Y-77644931D01*
X69130425Y-77733634D01*
X69117208Y-77805987D01*
X69096979Y-77864679D01*
X69070619Y-77912011D01*
X69034703Y-77952970D01*
X68992871Y-77981639D01*
X68943978Y-77999173D01*
X68886093Y-78005312D01*
X68834242Y-78000850D01*
X68789338Y-77988082D01*
X68750104Y-77967419D01*
X68715612Y-77938572D01*
X68687979Y-77903395D01*
X68667810Y-77862124D01*
X68655131Y-77813574D01*
X68650643Y-77756184D01*
X68655214Y-77707397D01*
X68769101Y-77707397D01*
X68774769Y-77756704D01*
X68789884Y-77791483D01*
X68813384Y-77815630D01*
X68846678Y-77830921D01*
X68893299Y-77836601D01*
X68934908Y-77830961D01*
X68968845Y-77814828D01*
X68996980Y-77787814D01*
X69016148Y-77752889D01*
X69029521Y-77700802D01*
X69034715Y-77625514D01*
X69034715Y-77536488D01*
X68867409Y-77536488D01*
X68825849Y-77569809D01*
X68794930Y-77611898D01*
X68775419Y-77659615D01*
X68769101Y-77707397D01*
X68655214Y-77707397D01*
X68657270Y-77685454D01*
X68676838Y-77619836D01*
X68697440Y-77579457D01*
X68723774Y-77544454D01*
X68756156Y-77514262D01*
X68725267Y-77498125D01*
X68700920Y-77477955D01*
X68682212Y-77453567D01*
X68662615Y-77410214D01*
X68651315Y-77357030D01*
X68760491Y-77321127D01*
X68773551Y-77347911D01*
G37*
G36*
X69130766Y-76455118D02*
G01*
X69200330Y-76464467D01*
X69260518Y-76479099D01*
X69317364Y-76501806D01*
X69362970Y-76531027D01*
X69399064Y-76566660D01*
X69425535Y-76609412D01*
X69442269Y-76662156D01*
X69448279Y-76727494D01*
X69440857Y-76788920D01*
X69418482Y-76847356D01*
X69382250Y-76899921D01*
X69330493Y-76947191D01*
X69428129Y-76957205D01*
X69428129Y-77097217D01*
X68360544Y-77097217D01*
X68378496Y-76936383D01*
X68734602Y-76936383D01*
X68697921Y-76896972D01*
X68672007Y-76852528D01*
X68656154Y-76802033D01*
X68654666Y-76786357D01*
X68776245Y-76786357D01*
X68781518Y-76830626D01*
X68796926Y-76869609D01*
X68822861Y-76904630D01*
X68860997Y-76936383D01*
X69215638Y-76936383D01*
X69256508Y-76905126D01*
X69291720Y-76867140D01*
X69309657Y-76838240D01*
X69320370Y-76806798D01*
X69324021Y-76772008D01*
X69319826Y-76735602D01*
X69307864Y-76705308D01*
X69288205Y-76679744D01*
X69259785Y-76658190D01*
X69214883Y-76639268D01*
X69147424Y-76625786D01*
X69049797Y-76620516D01*
X68954579Y-76626331D01*
X68887483Y-76641373D01*
X68841580Y-76662892D01*
X68812807Y-76686678D01*
X68792764Y-76714567D01*
X68780531Y-76747336D01*
X68776245Y-76786357D01*
X68654666Y-76786357D01*
X68650643Y-76743981D01*
X68656722Y-76681672D01*
X68674080Y-76628581D01*
X68702301Y-76582841D01*
X68740147Y-76543839D01*
X68787055Y-76511181D01*
X68844450Y-76484839D01*
X68905630Y-76466922D01*
X68973991Y-76455713D01*
X69050530Y-76451805D01*
X69130766Y-76455118D01*
G37*
G36*
X68710177Y-75603306D02*
G01*
X68686692Y-75647786D01*
X68667130Y-75703079D01*
X68654810Y-75762147D01*
X68650643Y-75824406D01*
X68655553Y-75890566D01*
X68669197Y-75944671D01*
X68690495Y-75988929D01*
X68719153Y-76025052D01*
X68755436Y-76054584D01*
X68796905Y-76075832D01*
X68844563Y-76089008D01*
X68899771Y-76093623D01*
X69311137Y-76093623D01*
X69311137Y-76262334D01*
X69428129Y-76262334D01*
X69428129Y-76093623D01*
X69597573Y-76093623D01*
X69616990Y-75932789D01*
X69428129Y-75932789D01*
X69428129Y-75677250D01*
X69311137Y-75695202D01*
X69311137Y-75932789D01*
X68901175Y-75932789D01*
X68861649Y-75928917D01*
X68832191Y-75918463D01*
X68810378Y-75902320D01*
X68794924Y-75879960D01*
X68784538Y-75847724D01*
X68780580Y-75802180D01*
X68783172Y-75761580D01*
X68790594Y-75725732D01*
X68816484Y-75661435D01*
X68710177Y-75603306D01*
G37*
G36*
X69157617Y-74742316D02*
G01*
X69231908Y-74759708D01*
X69294413Y-74787082D01*
X69347041Y-74824049D01*
X69390902Y-74871357D01*
X69422182Y-74925859D01*
X69441506Y-74988982D01*
X69448279Y-75062796D01*
X69442098Y-75132928D01*
X69424340Y-75194099D01*
X69395462Y-75247993D01*
X69356431Y-75295408D01*
X69309133Y-75335002D01*
X69252580Y-75367184D01*
X69191260Y-75389920D01*
X69123538Y-75403966D01*
X69048332Y-75408827D01*
X68970754Y-75403870D01*
X68902020Y-75389651D01*
X68840847Y-75366817D01*
X68784986Y-75334107D01*
X68738670Y-75293154D01*
X68700896Y-75243353D01*
X68700719Y-75242986D01*
X69107255Y-75242986D01*
X69181821Y-75232264D01*
X69236254Y-75212795D01*
X69275233Y-75186261D01*
X69305181Y-75150325D01*
X69322965Y-75109246D01*
X69329089Y-75061331D01*
X69322346Y-75010577D01*
X69303260Y-74970131D01*
X69271631Y-74937500D01*
X69231060Y-74914451D01*
X69177453Y-74898735D01*
X69107255Y-74891887D01*
X69107255Y-75242986D01*
X68700719Y-75242986D01*
X68673721Y-75186965D01*
X68656669Y-75120985D01*
X68650643Y-75043379D01*
X68657210Y-74964148D01*
X68676472Y-74891215D01*
X68707048Y-74823815D01*
X68745409Y-74766957D01*
X68841580Y-74836627D01*
X68813202Y-74885402D01*
X68792732Y-74932493D01*
X68779909Y-74981541D01*
X68775512Y-75035502D01*
X68781490Y-75088533D01*
X68798878Y-75135062D01*
X68827903Y-75176613D01*
X68855805Y-75201052D01*
X68892031Y-75220485D01*
X68938439Y-75234553D01*
X68997407Y-75242254D01*
X68997407Y-74739724D01*
X69030746Y-74737220D01*
X69069153Y-74736121D01*
X69157617Y-74742316D01*
G37*
G36*
X68670000Y-74507937D02*
G01*
X68784855Y-74507937D01*
X68784855Y-74396624D01*
X69314007Y-74396624D01*
X69314007Y-74507937D01*
X69428129Y-74507937D01*
X69428129Y-74273831D01*
X69252274Y-74244399D01*
X69313391Y-74212356D01*
X69361179Y-74177262D01*
X69397660Y-74139253D01*
X69424664Y-74094919D01*
X69441548Y-74041688D01*
X69447547Y-73977320D01*
X69442112Y-73916687D01*
X69428129Y-73863197D01*
X69148899Y-73890491D01*
X69148899Y-74005347D01*
X69303260Y-74005347D01*
X69294857Y-74056347D01*
X69273774Y-74102074D01*
X69238963Y-74143954D01*
X69195243Y-74178221D01*
X69138540Y-74208999D01*
X69066284Y-74235790D01*
X68784855Y-74235790D01*
X68784855Y-74082894D01*
X68670000Y-74082894D01*
X68670000Y-74507937D01*
G37*
D12*
G36*
X71747659Y-82114911D02*
G01*
X70792364Y-82114911D01*
X70663113Y-82125585D01*
X70552880Y-82155892D01*
X70458233Y-82204469D01*
X70376632Y-82271624D01*
X70323316Y-82336392D01*
X70280980Y-82411345D01*
X70249558Y-82498009D01*
X70229686Y-82598360D01*
X70222668Y-82714741D01*
X70232597Y-82853428D01*
X70259854Y-82964144D01*
X70303851Y-83066484D01*
X70362711Y-83166010D01*
X70580239Y-83031372D01*
X70534048Y-82954669D01*
X70506417Y-82888123D01*
X70490951Y-82818661D01*
X70485443Y-82736265D01*
X70493946Y-82662422D01*
X70518472Y-82599178D01*
X70559173Y-82544107D01*
X70613422Y-82503393D01*
X70687570Y-82476924D01*
X70788060Y-82467079D01*
X71489189Y-82467079D01*
X71489189Y-82925859D01*
X71747659Y-82925859D01*
X71747659Y-82114911D01*
G37*
G36*
X70465931Y-80805137D02*
G01*
X70490846Y-80827599D01*
X70524836Y-80840131D01*
X70584544Y-80845368D01*
X71032516Y-80845368D01*
X71129199Y-80853817D01*
X71209445Y-80877579D01*
X71276426Y-80915407D01*
X71332385Y-80967642D01*
X71374550Y-81030590D01*
X71407038Y-81111551D01*
X71428472Y-81214703D01*
X71436341Y-81345088D01*
X71431313Y-81442624D01*
X71414817Y-81559961D01*
X71388079Y-81678139D01*
X71351345Y-81790954D01*
X71125115Y-81712277D01*
X71150954Y-81625786D01*
X71169811Y-81540086D01*
X71182013Y-81457508D01*
X71185473Y-81398944D01*
X71176643Y-81308891D01*
X71153649Y-81247382D01*
X71119309Y-81206522D01*
X71072801Y-81181755D01*
X71009893Y-81172806D01*
X70966845Y-81172806D01*
X70966845Y-81326770D01*
X70959403Y-81461723D01*
X70938811Y-81572701D01*
X70907135Y-81663573D01*
X70865637Y-81737648D01*
X70809383Y-81801772D01*
X70744071Y-81846599D01*
X70667946Y-81873978D01*
X70578041Y-81883552D01*
X70500597Y-81876640D01*
X70432738Y-81856735D01*
X70372645Y-81824273D01*
X70319022Y-81778589D01*
X70276052Y-81723318D01*
X70244809Y-81659179D01*
X70225256Y-81584469D01*
X70218363Y-81496946D01*
X70227856Y-81391714D01*
X70231229Y-81379527D01*
X70461812Y-81379527D01*
X70471763Y-81445763D01*
X70498907Y-81492092D01*
X70526095Y-81514085D01*
X70559741Y-81527651D01*
X70601763Y-81532484D01*
X70654152Y-81524783D01*
X70695790Y-81502813D01*
X70729350Y-81465714D01*
X70751645Y-81418826D01*
X70767100Y-81351364D01*
X70773039Y-81256795D01*
X70773039Y-81172806D01*
X70587750Y-81172806D01*
X70534402Y-81211248D01*
X70494602Y-81264397D01*
X70469551Y-81324944D01*
X70461812Y-81379527D01*
X70231229Y-81379527D01*
X70256557Y-81288027D01*
X70287007Y-81223112D01*
X70325870Y-81167476D01*
X70373427Y-81120049D01*
X70311064Y-81072491D01*
X70267364Y-81010781D01*
X70239478Y-80936267D01*
X70222668Y-80839964D01*
X70446700Y-80769988D01*
X70465931Y-80805137D01*
G37*
G36*
X71888709Y-80176753D02*
G01*
X70255000Y-80176753D01*
X70255000Y-80517105D01*
X71853172Y-80517105D01*
X71888709Y-80176753D01*
G37*
G36*
X71398697Y-79431568D02*
G01*
X70892565Y-79807366D01*
X70255000Y-79400335D01*
X70255000Y-79788040D01*
X70881757Y-80163838D01*
X71398697Y-79788040D01*
X71398697Y-79431568D01*
G37*
G36*
X71398697Y-78885685D02*
G01*
X70615777Y-78885685D01*
X70540959Y-78876629D01*
X70501654Y-78855002D01*
X70478698Y-78819532D01*
X70470422Y-78769456D01*
X70478411Y-78717736D01*
X70503761Y-78663852D01*
X70542692Y-78615798D01*
X70594253Y-78575558D01*
X71398697Y-78575558D01*
X71398697Y-78235297D01*
X70255000Y-78235297D01*
X70255000Y-78532510D01*
X70388539Y-78547531D01*
X70337112Y-78590349D01*
X70294928Y-78641043D01*
X70261411Y-78700488D01*
X70229105Y-78797507D01*
X70218363Y-78898599D01*
X70225223Y-78981061D01*
X70244265Y-79047728D01*
X70274111Y-79101707D01*
X70314717Y-79145254D01*
X70383252Y-79188701D01*
X70468149Y-79216165D01*
X70573736Y-79226038D01*
X71398697Y-79226038D01*
X71398697Y-78885685D01*
G37*
G36*
X70972037Y-76886881D02*
G01*
X71090893Y-76907265D01*
X71190106Y-76938822D01*
X71272668Y-76980316D01*
X71331162Y-77024976D01*
X71376055Y-77078008D01*
X71408656Y-77140453D01*
X71429102Y-77214177D01*
X71436341Y-77301709D01*
X71425816Y-77386213D01*
X71394301Y-77464924D01*
X71345266Y-77535042D01*
X71281277Y-77594617D01*
X71888709Y-77594617D01*
X71853172Y-77934970D01*
X70255000Y-77934970D01*
X70255000Y-77633452D01*
X70358406Y-77620538D01*
X70296743Y-77563593D01*
X70253681Y-77498632D01*
X70228386Y-77426639D01*
X70466117Y-77426639D01*
X70473089Y-77479571D01*
X70492953Y-77522535D01*
X70524723Y-77559459D01*
X70570531Y-77594617D01*
X71053032Y-77594617D01*
X71109324Y-77553884D01*
X71149936Y-77511728D01*
X71176607Y-77463475D01*
X71185473Y-77409420D01*
X71177686Y-77358576D01*
X71154790Y-77315173D01*
X71115597Y-77281329D01*
X71045980Y-77252708D01*
X70959899Y-77236991D01*
X70825795Y-77230635D01*
X70696848Y-77238018D01*
X70608225Y-77256881D01*
X70549556Y-77283391D01*
X70502260Y-77323870D01*
X70475279Y-77370811D01*
X70466117Y-77426639D01*
X70228386Y-77426639D01*
X70227479Y-77424057D01*
X70218363Y-77337247D01*
X70227644Y-77240917D01*
X70254218Y-77158206D01*
X70297498Y-77086379D01*
X70355605Y-77024847D01*
X70427420Y-76973386D01*
X70515027Y-76931864D01*
X70608678Y-76903476D01*
X70713187Y-76885742D01*
X70830100Y-76879566D01*
X70972037Y-76886881D01*
G37*
G36*
X70255000Y-74751905D02*
G01*
X71455758Y-75145014D01*
X71292543Y-75122391D01*
X71071259Y-75100318D01*
X70818193Y-75091159D01*
X70255000Y-75091159D01*
X70255000Y-75391577D01*
X71747659Y-75391577D01*
X71747659Y-74951116D01*
X70553312Y-74569914D01*
X70814987Y-74605451D01*
X70979494Y-74618913D01*
X71175765Y-74623770D01*
X71747659Y-74623770D01*
X71747659Y-74323259D01*
X70255000Y-74323259D01*
X70255000Y-74751905D01*
G37*
G36*
X70970789Y-73027237D02*
G01*
X71075081Y-73049775D01*
X71164957Y-73085498D01*
X71246674Y-73136331D01*
X71313276Y-73198167D01*
X71366366Y-73271794D01*
X71404465Y-73354475D01*
X71428093Y-73448333D01*
X71436341Y-73555635D01*
X71426547Y-73673059D01*
X71398705Y-73773416D01*
X71354001Y-73859808D01*
X71292959Y-73936011D01*
X71219830Y-73998734D01*
X71133266Y-74048852D01*
X71039074Y-74084295D01*
X70937053Y-74105983D01*
X70825795Y-74113424D01*
X70708866Y-74105591D01*
X70604659Y-74083041D01*
X70511271Y-74046654D01*
X70426514Y-73994763D01*
X70355310Y-73928795D01*
X70296399Y-73847444D01*
X70261260Y-73770965D01*
X70932407Y-73770965D01*
X71027292Y-73756447D01*
X71095133Y-73733138D01*
X71142334Y-73703188D01*
X71178783Y-73662013D01*
X71200538Y-73613600D01*
X71208096Y-73555635D01*
X71198926Y-73487207D01*
X71173701Y-73436675D01*
X71132717Y-73399472D01*
X71080343Y-73374201D01*
X71014617Y-73357548D01*
X70932407Y-73351020D01*
X70932407Y-73770965D01*
X70261260Y-73770965D01*
X70254394Y-73756022D01*
X70227813Y-73647715D01*
X70218363Y-73518998D01*
X70223574Y-73422121D01*
X70238538Y-73335510D01*
X70262510Y-73257872D01*
X70313900Y-73149840D01*
X70375625Y-73062417D01*
X70560822Y-73199162D01*
X70521939Y-73268669D01*
X70491946Y-73340304D01*
X70472594Y-73414721D01*
X70466117Y-73492070D01*
X70473220Y-73562370D01*
X70493596Y-73622710D01*
X70526933Y-73675161D01*
X70572697Y-73716024D01*
X70637708Y-73747029D01*
X70727793Y-73766660D01*
X70727793Y-73025780D01*
X70786960Y-73020926D01*
X70849426Y-73019277D01*
X70970789Y-73027237D01*
G37*
G36*
X71997428Y-72124524D02*
G01*
X71991000Y-72067913D01*
X71972643Y-72020515D01*
X71942473Y-71980268D01*
X71902959Y-71949164D01*
X71857960Y-71930610D01*
X71805728Y-71924214D01*
X71753536Y-71930593D01*
X71708340Y-71949137D01*
X71668433Y-71980268D01*
X71637993Y-72020549D01*
X71619493Y-72067946D01*
X71613020Y-72124524D01*
X71619506Y-72181854D01*
X71638023Y-72229823D01*
X71668433Y-72270520D01*
X71708373Y-72301925D01*
X71753567Y-72320609D01*
X71805728Y-72327032D01*
X71857929Y-72320593D01*
X71902926Y-72301898D01*
X71942473Y-72270520D01*
X71972614Y-72229856D01*
X71990988Y-72181887D01*
X71997428Y-72124524D01*
G37*
G36*
X71398697Y-71903790D02*
G01*
X70586651Y-71903790D01*
X70461417Y-71910268D01*
X70353228Y-71928580D01*
X70259782Y-71957385D01*
X70179071Y-71995839D01*
X70104235Y-72046645D01*
X70037206Y-72108505D01*
X69977476Y-72182323D01*
X69924905Y-72269421D01*
X69869338Y-72393020D01*
X69819957Y-72541324D01*
X69777902Y-72717943D01*
X70037471Y-72771798D01*
X70084155Y-72606618D01*
X70136572Y-72480997D01*
X70181780Y-72407755D01*
X70235268Y-72349295D01*
X70297498Y-72303859D01*
X70367935Y-72272138D01*
X70455818Y-72251538D01*
X70565127Y-72244050D01*
X71166056Y-72244050D01*
X71166056Y-72655478D01*
X71398697Y-72655478D01*
X71398697Y-71903790D01*
G37*
G36*
X70970789Y-70445101D02*
G01*
X71075081Y-70467639D01*
X71164957Y-70503362D01*
X71246674Y-70554196D01*
X71313276Y-70616032D01*
X71366366Y-70689658D01*
X71404465Y-70772340D01*
X71428093Y-70866198D01*
X71436341Y-70973499D01*
X71426547Y-71090924D01*
X71398705Y-71191280D01*
X71354001Y-71277673D01*
X71292959Y-71353875D01*
X71219830Y-71416598D01*
X71133266Y-71466717D01*
X71039074Y-71502160D01*
X70937053Y-71523847D01*
X70825795Y-71531289D01*
X70708866Y-71523455D01*
X70604659Y-71500905D01*
X70511271Y-71464519D01*
X70426514Y-71412628D01*
X70355310Y-71346660D01*
X70296399Y-71265308D01*
X70261260Y-71188830D01*
X70932407Y-71188830D01*
X71027292Y-71174312D01*
X71095133Y-71151003D01*
X71142334Y-71121052D01*
X71178783Y-71079877D01*
X71200538Y-71031465D01*
X71208096Y-70973499D01*
X71198926Y-70905072D01*
X71173701Y-70854540D01*
X71132717Y-70817336D01*
X71080343Y-70792066D01*
X71014617Y-70775412D01*
X70932407Y-70768885D01*
X70932407Y-71188830D01*
X70261260Y-71188830D01*
X70254394Y-71173887D01*
X70227813Y-71065579D01*
X70218363Y-70936863D01*
X70223574Y-70839985D01*
X70238538Y-70753375D01*
X70262510Y-70675737D01*
X70313900Y-70567705D01*
X70375625Y-70480281D01*
X70560822Y-70617027D01*
X70521939Y-70686534D01*
X70491946Y-70758169D01*
X70472594Y-70832586D01*
X70466117Y-70909935D01*
X70473220Y-70980235D01*
X70493596Y-71040574D01*
X70526933Y-71093025D01*
X70572697Y-71133889D01*
X70637708Y-71164894D01*
X70727793Y-71184525D01*
X70727793Y-70443645D01*
X70786960Y-70438790D01*
X70849426Y-70437142D01*
X70970789Y-70445101D01*
G37*
G36*
X71888709Y-69538084D02*
G01*
X71330828Y-69538084D01*
X71377130Y-69594083D01*
X71409745Y-69655199D01*
X71429536Y-69722538D01*
X71436341Y-69797653D01*
X71427332Y-69889031D01*
X71401258Y-69969384D01*
X71358306Y-70041010D01*
X71301047Y-70102799D01*
X71230099Y-70155177D01*
X71143433Y-70198272D01*
X71050731Y-70228042D01*
X70946845Y-70246647D01*
X70830100Y-70253135D01*
X70707746Y-70247616D01*
X70601239Y-70231992D01*
X70508615Y-70207431D01*
X70421221Y-70170250D01*
X70350797Y-70123888D01*
X70294842Y-70068488D01*
X70253162Y-70002666D01*
X70227421Y-69925230D01*
X70218363Y-69833190D01*
X70224074Y-69759820D01*
X70232929Y-69725479D01*
X70468224Y-69725479D01*
X70476071Y-69774299D01*
X70499456Y-69816979D01*
X70539006Y-69850538D01*
X70608724Y-69879444D01*
X70694764Y-69895566D01*
X70827902Y-69902067D01*
X70956758Y-69894542D01*
X71045386Y-69875302D01*
X71104140Y-69848211D01*
X71151630Y-69807134D01*
X71178522Y-69760505D01*
X71187580Y-69706062D01*
X71181214Y-69655854D01*
X71162850Y-69613463D01*
X71134073Y-69575608D01*
X71093882Y-69538084D01*
X70600664Y-69538084D01*
X70544570Y-69578311D01*
X70503761Y-69621615D01*
X70477042Y-69671175D01*
X70468224Y-69725479D01*
X70232929Y-69725479D01*
X70240301Y-69696889D01*
X70266265Y-69642589D01*
X70319793Y-69570824D01*
X70381029Y-69516560D01*
X70255000Y-69499341D01*
X70255000Y-69197823D01*
X71853172Y-69197823D01*
X71888709Y-69538084D01*
G37*
G36*
X71853172Y-68300872D02*
G01*
X70614678Y-68300872D01*
X70570582Y-68295886D01*
X70538795Y-68282489D01*
X70516126Y-68261579D01*
X70494604Y-68217240D01*
X70486542Y-68153319D01*
X70496708Y-68068230D01*
X70520980Y-67991752D01*
X70293743Y-67909961D01*
X70266396Y-67971652D01*
X70240986Y-68050004D01*
X70224392Y-68135463D01*
X70218363Y-68240605D01*
X70226912Y-68343537D01*
X70250531Y-68425891D01*
X70287379Y-68491792D01*
X70337340Y-68544229D01*
X70398906Y-68585019D01*
X70471244Y-68615210D01*
X70556358Y-68634342D01*
X70656718Y-68641133D01*
X71620531Y-68641133D01*
X71620531Y-68978279D01*
X71853172Y-68978279D01*
X71853172Y-68300872D01*
G37*
G36*
X71398697Y-66525196D02*
G01*
X70255000Y-66906398D01*
X70143546Y-66951112D01*
X70050248Y-67004170D01*
X69972780Y-67065158D01*
X69909335Y-67134185D01*
X69858983Y-67212477D01*
X69819333Y-67305625D01*
X69791113Y-67416175D01*
X69775795Y-67547169D01*
X70015947Y-67585912D01*
X70034640Y-67478762D01*
X70057987Y-67403463D01*
X70091658Y-67339606D01*
X70133825Y-67291447D01*
X70186389Y-67252725D01*
X70255000Y-67217624D01*
X70255000Y-67333945D01*
X71398697Y-67696920D01*
X71398697Y-67337151D01*
X70472528Y-67115317D01*
X71398697Y-66874066D01*
X71398697Y-66525196D01*
G37*
D10*
G36*
X60047731Y-115415000D02*
G01*
X60047731Y-114386737D01*
X59868701Y-114386737D01*
X59749755Y-114869361D01*
X59630808Y-114386737D01*
X59451778Y-114386737D01*
X59451778Y-115415000D01*
X59625252Y-115415000D01*
X59625252Y-115209347D01*
X59623176Y-115081364D01*
X59616154Y-114954724D01*
X59604980Y-114828145D01*
X59591669Y-114701505D01*
X59692419Y-115105788D01*
X59807091Y-115105788D01*
X59907841Y-114701505D01*
X59894530Y-114828145D01*
X59883356Y-114954724D01*
X59876395Y-115081364D01*
X59874258Y-115209347D01*
X59874258Y-115415000D01*
X60047731Y-115415000D01*
G37*
G36*
X59033452Y-115415000D02*
G01*
X59033452Y-115165994D01*
X59332832Y-115165994D01*
X59332832Y-115006503D01*
X59044626Y-114386737D01*
X58868343Y-114386737D01*
X59156550Y-115006503D01*
X59033452Y-115006503D01*
X59033452Y-114824603D01*
X58843186Y-114824603D01*
X58843186Y-115006503D01*
X58778828Y-115006503D01*
X58778828Y-115165994D01*
X58843186Y-115165994D01*
X58843186Y-115415000D01*
X59033452Y-115415000D01*
G37*
G36*
X67847731Y-41415000D02*
G01*
X67847731Y-40386737D01*
X67668701Y-40386737D01*
X67549755Y-40869361D01*
X67430808Y-40386737D01*
X67251778Y-40386737D01*
X67251778Y-41415000D01*
X67425252Y-41415000D01*
X67425252Y-41209347D01*
X67423176Y-41081364D01*
X67416154Y-40954724D01*
X67404980Y-40828145D01*
X67391669Y-40701505D01*
X67492419Y-41105788D01*
X67607091Y-41105788D01*
X67707841Y-40701505D01*
X67694530Y-40828145D01*
X67683356Y-40954724D01*
X67676395Y-41081364D01*
X67674258Y-41209347D01*
X67674258Y-41415000D01*
X67847731Y-41415000D01*
G37*
G36*
X67121658Y-41415000D02*
G01*
X67121658Y-41413595D01*
X67120986Y-41342948D01*
X67115369Y-41271629D01*
X67102119Y-41201653D01*
X67080381Y-41133815D01*
X67048935Y-41069457D01*
X67009062Y-41010717D01*
X66962168Y-40957533D01*
X66909045Y-40909966D01*
X66853724Y-40865209D01*
X66828079Y-40841125D01*
X66805486Y-40813429D01*
X66787264Y-40782786D01*
X66774711Y-40749804D01*
X66767349Y-40715051D01*
X66764880Y-40679096D01*
X66766285Y-40648321D01*
X66770498Y-40617547D01*
X66779596Y-40587505D01*
X66794983Y-40560882D01*
X66818797Y-40542015D01*
X66848839Y-40534993D01*
X66868995Y-40537808D01*
X66887368Y-40546228D01*
X66903069Y-40559133D01*
X66915334Y-40575598D01*
X66929317Y-40614066D01*
X66932797Y-40655343D01*
X66932797Y-40659556D01*
X67124467Y-40659556D01*
X67124467Y-40649726D01*
X67116773Y-40577002D01*
X67106769Y-40541563D01*
X67092288Y-40508431D01*
X67073277Y-40477733D01*
X67049606Y-40449691D01*
X67021983Y-40425363D01*
X66990866Y-40405605D01*
X66957056Y-40390920D01*
X66921623Y-40381852D01*
X66848839Y-40375502D01*
X66771231Y-40383196D01*
X66733944Y-40394053D01*
X66699179Y-40411222D01*
X66667703Y-40433952D01*
X66640439Y-40461598D01*
X66617658Y-40493092D01*
X66599833Y-40527360D01*
X66586890Y-40563717D01*
X66578828Y-40601488D01*
X66573211Y-40679096D01*
X66575663Y-40722281D01*
X66583042Y-40765191D01*
X66595641Y-40806660D01*
X66613816Y-40845608D01*
X66636886Y-40881918D01*
X66664191Y-40915523D01*
X66725069Y-40976400D01*
X66787290Y-41035202D01*
X66843954Y-41100232D01*
X66868089Y-41136275D01*
X66888711Y-41174420D01*
X66905334Y-41214303D01*
X66917410Y-41255509D01*
X66578828Y-41255509D01*
X66578828Y-41415000D01*
X67121658Y-41415000D01*
G37*
G36*
X54386147Y-54026174D02*
G01*
X54456794Y-54019152D01*
X54491193Y-54009333D01*
X54522557Y-53993995D01*
X54550946Y-53973620D01*
X54576412Y-53948565D01*
X54597917Y-53919864D01*
X54614880Y-53888421D01*
X54627639Y-53854951D01*
X54636557Y-53820521D01*
X54643579Y-53750607D01*
X54643579Y-53742180D01*
X54451909Y-53742180D01*
X54451909Y-53744989D01*
X54449833Y-53783457D01*
X54440735Y-53820521D01*
X54431991Y-53837637D01*
X54419730Y-53852700D01*
X54404282Y-53863200D01*
X54386147Y-53866683D01*
X54371680Y-53864092D01*
X54358853Y-53856242D01*
X54339985Y-53832428D01*
X54329483Y-53804462D01*
X54323193Y-53775092D01*
X54319713Y-53744989D01*
X54318980Y-53714214D01*
X54318980Y-53146228D01*
X54468701Y-53146228D01*
X54468701Y-52986737D01*
X54128715Y-52986737D01*
X54128715Y-53714214D01*
X54132928Y-53790479D01*
X54139387Y-53828318D01*
X54150392Y-53864607D01*
X54166059Y-53899235D01*
X54186784Y-53932445D01*
X54212086Y-53962112D01*
X54241372Y-53986301D01*
X54274226Y-54004834D01*
X54309882Y-54017076D01*
X54347358Y-54023884D01*
X54386147Y-54026174D01*
G37*
G36*
X53633452Y-54015000D02*
G01*
X53633452Y-53765994D01*
X53932832Y-53765994D01*
X53932832Y-53606503D01*
X53644626Y-52986737D01*
X53468343Y-52986737D01*
X53756550Y-53606503D01*
X53633452Y-53606503D01*
X53633452Y-53424603D01*
X53443186Y-53424603D01*
X53443186Y-53606503D01*
X53378828Y-53606503D01*
X53378828Y-53765994D01*
X53443186Y-53765994D01*
X53443186Y-54015000D01*
X53633452Y-54015000D01*
G37*
G36*
X67847731Y-115415000D02*
G01*
X67847731Y-114386737D01*
X67668701Y-114386737D01*
X67549755Y-114869361D01*
X67430808Y-114386737D01*
X67251778Y-114386737D01*
X67251778Y-115415000D01*
X67425252Y-115415000D01*
X67425252Y-115209347D01*
X67423176Y-115081364D01*
X67416154Y-114954724D01*
X67404980Y-114828145D01*
X67391669Y-114701505D01*
X67492419Y-115105788D01*
X67607091Y-115105788D01*
X67707841Y-114701505D01*
X67694530Y-114828145D01*
X67683356Y-114954724D01*
X67676395Y-115081364D01*
X67674258Y-115209347D01*
X67674258Y-115415000D01*
X67847731Y-115415000D01*
G37*
G36*
X66846030Y-115426174D02*
G01*
X66920890Y-115419884D01*
X66957234Y-115411163D01*
X66992270Y-115397536D01*
X67024884Y-115378854D01*
X67054491Y-115354855D01*
X67080092Y-115326576D01*
X67100653Y-115295382D01*
X67116388Y-115261528D01*
X67127276Y-115225467D01*
X67133554Y-115188152D01*
X67135641Y-115150607D01*
X67135641Y-115142180D01*
X66943971Y-115142180D01*
X66943971Y-115146393D01*
X66939087Y-115189075D01*
X66932274Y-115209892D01*
X66921623Y-115228948D01*
X66907107Y-115245010D01*
X66888711Y-115256913D01*
X66867894Y-115264243D01*
X66846030Y-115266683D01*
X66823048Y-115263562D01*
X66801273Y-115254105D01*
X66782473Y-115239518D01*
X66768422Y-115221254D01*
X66758461Y-115200128D01*
X66752302Y-115177168D01*
X66748089Y-115129602D01*
X66751630Y-115086920D01*
X66763537Y-115045643D01*
X66786618Y-115009984D01*
X66802498Y-114995460D01*
X66820873Y-114984094D01*
X66861478Y-114971516D01*
X66904832Y-114968707D01*
X66904832Y-114809216D01*
X66866363Y-114807140D01*
X66848011Y-114803109D01*
X66830643Y-114795233D01*
X66801273Y-114770748D01*
X66781733Y-114737897D01*
X66772635Y-114700833D01*
X66770498Y-114662304D01*
X66773307Y-114621088D01*
X66784542Y-114581887D01*
X66794796Y-114564307D01*
X66809027Y-114549036D01*
X66826351Y-114538487D01*
X66846030Y-114534993D01*
X66864769Y-114538097D01*
X66882422Y-114547632D01*
X66897240Y-114561588D01*
X66907640Y-114577735D01*
X66918814Y-114614799D01*
X66921623Y-114655343D01*
X66921623Y-114659556D01*
X67113232Y-114659556D01*
X67113232Y-114648321D01*
X67105538Y-114576331D01*
X67095888Y-114541397D01*
X67082457Y-114508431D01*
X67064689Y-114477746D01*
X67041913Y-114449691D01*
X67015078Y-114425472D01*
X66985248Y-114406338D01*
X66952775Y-114392014D01*
X66918082Y-114382524D01*
X66846030Y-114375502D01*
X66773307Y-114382524D01*
X66738070Y-114392370D01*
X66705468Y-114407742D01*
X66675796Y-114428285D01*
X66649476Y-114453904D01*
X66627210Y-114483190D01*
X66609603Y-114514781D01*
X66596147Y-114548311D01*
X66586522Y-114583292D01*
X66578828Y-114655343D01*
X66585850Y-114723914D01*
X66594935Y-114756630D01*
X66608199Y-114787540D01*
X66625487Y-114816374D01*
X66646667Y-114842800D01*
X66671293Y-114866182D01*
X66699179Y-114886153D01*
X66667161Y-114906460D01*
X66638301Y-114930971D01*
X66613103Y-114959134D01*
X66592140Y-114990444D01*
X66575855Y-115024339D01*
X66564845Y-115060359D01*
X66558523Y-115097631D01*
X66556419Y-115135219D01*
X66558531Y-115174072D01*
X66564845Y-115212156D01*
X66575481Y-115249151D01*
X66590735Y-115284879D01*
X66610658Y-115318114D01*
X66635493Y-115347833D01*
X66664555Y-115373377D01*
X66697042Y-115393995D01*
X66732222Y-115409396D01*
X66769094Y-115419152D01*
X66846030Y-115426174D01*
G37*
G36*
X59847731Y-41415000D02*
G01*
X59847731Y-40386737D01*
X59668701Y-40386737D01*
X59549755Y-40869361D01*
X59430808Y-40386737D01*
X59251778Y-40386737D01*
X59251778Y-41415000D01*
X59425252Y-41415000D01*
X59425252Y-41209347D01*
X59423176Y-41081364D01*
X59416154Y-40954724D01*
X59404980Y-40828145D01*
X59391669Y-40701505D01*
X59492419Y-41105788D01*
X59607091Y-41105788D01*
X59707841Y-40701505D01*
X59694530Y-40828145D01*
X59683356Y-40954724D01*
X59676395Y-41081364D01*
X59674258Y-41209347D01*
X59674258Y-41415000D01*
X59847731Y-41415000D01*
G37*
G36*
X58903427Y-41415000D02*
G01*
X58903427Y-40569980D01*
X59029334Y-40694483D01*
X59130023Y-40610586D01*
X58903427Y-40386737D01*
X58713162Y-40386737D01*
X58713162Y-41415000D01*
X58903427Y-41415000D01*
G37*
X45000000Y-103300000D02*
X46400000Y-103300000D01*
X45000000Y-112700000D02*
X46400000Y-112700000D01*
X47950000Y-104400000D02*
X47950000Y-111600000D01*
D13*
X67000000Y-86850000D02*
X67000000Y-85150000D01*
X67000000Y-87350000D02*
X67000000Y-89050000D01*
X67000000Y-89050000D02*
X68700000Y-89050000D01*
X67350000Y-86850000D02*
X67000000Y-86850000D01*
X67350000Y-87350000D02*
X67000000Y-87350000D01*
X68700000Y-84800000D02*
X68700000Y-85150000D01*
X68700000Y-85150000D02*
X67000000Y-85150000D01*
X68700000Y-88700000D02*
X68700000Y-89050000D01*
X69200000Y-84800000D02*
X69200000Y-85150000D01*
X69200000Y-88700000D02*
X69200000Y-89050000D01*
X70900000Y-85150000D02*
X69200000Y-85150000D01*
X70900000Y-86850000D02*
X70900000Y-85150000D01*
X70900000Y-87350000D02*
X70900000Y-89050000D01*
X70900000Y-89050000D02*
X69200000Y-89050000D01*
X71250000Y-86850000D02*
X70900000Y-86850000D01*
X71250000Y-87350000D02*
X70900000Y-87350000D01*
X73000000Y-90250000D02*
X66000000Y-90250000D01*
X66000000Y-65750000D01*
X73000000Y-65750000D01*
X73000000Y-90250000D01*
X67350000Y-86850000D02*
G75*
G02*
X67350000Y-87350000I300000J-250000D01*
G01*
X68700000Y-84800000D02*
G75*
G02*
X69200000Y-84800000I250000J300001D01*
G01*
X68700000Y-88700000D02*
G75*
G02*
X69200000Y-88700000I250000J300000D01*
G01*
X71250000Y-86850000D02*
G75*
G02*
X71250000Y-87350000I300000J-250000D01*
G01*
%LPC*%
D14*
X65340000Y-89800000D03*
X60260000Y-90816000D03*
X60260000Y-88784000D03*
D15*
X51530000Y-93500000D03*
X51530000Y-91000000D03*
X51530000Y-89000000D03*
X51530000Y-86500000D03*
X53030000Y-86000000D03*
X53030000Y-88000000D03*
X53030000Y-90000000D03*
X53030000Y-92000000D03*
X53030000Y-94000000D03*
D16*
X43800000Y-97850000D03*
D17*
X50600000Y-97850000D03*
D16*
X43800000Y-82150000D03*
D17*
X50600000Y-82150000D03*
D18*
X47150000Y-111450000D03*
X47150000Y-104550000D03*
D19*
X47150000Y-110750000D03*
X47150000Y-110250000D03*
X47150000Y-109750000D03*
X47150000Y-109250000D03*
X47150000Y-108750000D03*
X47150000Y-108250000D03*
X47150000Y-107750000D03*
X47150000Y-107250000D03*
X47150000Y-106750000D03*
X47150000Y-106250000D03*
X47150000Y-105750000D03*
X47150000Y-105250000D03*
D20*
X46010000Y-104800000D03*
D21*
X45110000Y-105500000D03*
X45110000Y-106300000D03*
D22*
X46010000Y-106700000D03*
D21*
X45110000Y-107150000D03*
D22*
X46010000Y-107600000D03*
X46010000Y-108400000D03*
D21*
X45110000Y-108850000D03*
D22*
X46010000Y-109300000D03*
D21*
X45110000Y-109700000D03*
X45110000Y-110500000D03*
D20*
X46010000Y-111200000D03*
D23*
X41350000Y-114075000D03*
D24*
X45210000Y-114075000D03*
D25*
X47550000Y-112465000D03*
X47550000Y-103535000D03*
D23*
X41350000Y-101925000D03*
D26*
X45210000Y-101925000D03*
D27*
X51450000Y-73500000D03*
X51450000Y-71000000D03*
X51450000Y-69000000D03*
X51450000Y-66500000D03*
D28*
X45850000Y-78250000D03*
D29*
X50600000Y-77850000D03*
X50600000Y-62150000D03*
D28*
X45850000Y-61750000D03*
D30*
X55600000Y-115000000D03*
X71000000Y-41000000D03*
D27*
X51450000Y-53500000D03*
X51450000Y-51000000D03*
X51450000Y-49000000D03*
X51450000Y-46500000D03*
D28*
X45850000Y-58250000D03*
D29*
X50600000Y-57850000D03*
X50600000Y-42150000D03*
D28*
X45850000Y-41750000D03*
D30*
X71000000Y-115000000D03*
X55600000Y-41000000D03*
%LPD*%
M02*
