G04 #@! TF.GenerationSoftware,KiCad,Pcbnew,9.0.4*
G04 #@! TF.CreationDate,2025-08-21T00:06:41-07:00*
G04 #@! TF.ProjectId,DisplayAdapter,44697370-6c61-4794-9164-61707465722e,rev?*
G04 #@! TF.SameCoordinates,Original*
G04 #@! TF.FileFunction,Copper,L1,Top*
G04 #@! TF.FilePolarity,Positive*
%FSLAX46Y46*%
G04 Gerber Fmt 4.6, Leading zero omitted, Abs format (unit mm)*
G04 Created by KiCad (PCBNEW 9.0.4) date 2025-08-21 00:06:41*
%MOMM*%
%LPD*%
G01*
G04 APERTURE LIST*
G04 Aperture macros list*
%AMRoundRect*
0 Rectangle with rounded corners*
0 $1 Rounding radius*
0 $2 $3 $4 $5 $6 $7 $8 $9 X,Y pos of 4 corners*
0 Add a 4 corners polygon primitive as box body*
4,1,4,$2,$3,$4,$5,$6,$7,$8,$9,$2,$3,0*
0 Add four circle primitives for the rounded corners*
1,1,$1+$1,$2,$3*
1,1,$1+$1,$4,$5*
1,1,$1+$1,$6,$7*
1,1,$1+$1,$8,$9*
0 Add four rect primitives between the rounded corners*
20,1,$1+$1,$2,$3,$4,$5,0*
20,1,$1+$1,$4,$5,$6,$7,0*
20,1,$1+$1,$6,$7,$8,$9,0*
20,1,$1+$1,$8,$9,$2,$3,0*%
%AMFreePoly0*
4,1,18,-0.400000,0.600000,-0.200000,0.800000,0.240000,0.800000,0.301229,0.787821,0.353137,0.753137,0.387821,0.701229,0.400000,0.640000,0.400000,-0.640000,0.387821,-0.701229,0.353137,-0.753137,0.301229,-0.787821,0.240000,-0.800000,-0.240000,-0.800000,-0.301229,-0.787821,-0.353137,-0.753137,-0.387821,-0.701229,-0.400000,-0.640000,-0.400000,0.600000,-0.400000,0.600000,$1*%
%AMFreePoly1*
4,1,18,-2.250000,0.765000,-2.243530,0.797528,-2.225104,0.825104,-2.197528,0.843530,-2.165000,0.850000,1.995000,0.850000,2.250000,0.595000,2.250000,-0.765000,2.243530,-0.797528,2.225104,-0.825104,2.197528,-0.843530,2.165000,-0.850000,-2.165000,-0.850000,-2.197528,-0.843530,-2.225104,-0.825104,-2.243530,-0.797528,-2.250000,-0.765000,-2.250000,0.765000,-2.250000,0.765000,$1*%
G04 Aperture macros list end*
G04 #@! TA.AperFunction,SMDPad,CuDef*
%ADD10RoundRect,0.150000X-0.150000X-0.300000X0.150000X-0.300000X0.150000X0.300000X-0.150000X0.300000X0*%
G04 #@! TD*
G04 #@! TA.AperFunction,SMDPad,CuDef*
%ADD11RoundRect,0.150000X0.150000X0.300000X-0.150000X0.300000X-0.150000X-0.300000X0.150000X-0.300000X0*%
G04 #@! TD*
G04 #@! TA.AperFunction,SMDPad,CuDef*
%ADD12RoundRect,0.045000X0.355000X-0.105000X0.355000X0.105000X-0.355000X0.105000X-0.355000X-0.105000X0*%
G04 #@! TD*
G04 #@! TA.AperFunction,SMDPad,CuDef*
%ADD13RoundRect,0.045000X-0.355000X0.105000X-0.355000X-0.105000X0.355000X-0.105000X0.355000X0.105000X0*%
G04 #@! TD*
G04 #@! TA.AperFunction,SMDPad,CuDef*
%ADD14RoundRect,0.060000X0.340000X-0.140000X0.340000X0.140000X-0.340000X0.140000X-0.340000X-0.140000X0*%
G04 #@! TD*
G04 #@! TA.AperFunction,SMDPad,CuDef*
%ADD15C,1.000000*%
G04 #@! TD*
G04 #@! TA.AperFunction,SMDPad,CuDef*
%ADD16RoundRect,0.162500X0.447500X0.162500X-0.447500X0.162500X-0.447500X-0.162500X0.447500X-0.162500X0*%
G04 #@! TD*
G04 #@! TA.AperFunction,SMDPad,CuDef*
%ADD17RoundRect,0.090000X-0.310000X-0.210000X0.310000X-0.210000X0.310000X0.210000X-0.310000X0.210000X0*%
G04 #@! TD*
G04 #@! TA.AperFunction,SMDPad,CuDef*
%ADD18RoundRect,0.100000X0.200000X-0.100000X0.200000X0.100000X-0.200000X0.100000X-0.200000X-0.100000X0*%
G04 #@! TD*
G04 #@! TA.AperFunction,SMDPad,CuDef*
%ADD19RoundRect,0.150000X0.300000X-0.150000X0.300000X0.150000X-0.300000X0.150000X-0.300000X-0.150000X0*%
G04 #@! TD*
G04 #@! TA.AperFunction,SMDPad,CuDef*
%ADD20RoundRect,0.150000X1.550000X-0.350000X1.550000X0.350000X-1.550000X0.350000X-1.550000X-0.350000X0*%
G04 #@! TD*
G04 #@! TA.AperFunction,SMDPad,CuDef*
%ADD21RoundRect,0.120000X-0.280000X-0.480000X0.280000X-0.480000X0.280000X0.480000X-0.280000X0.480000X0*%
G04 #@! TD*
G04 #@! TA.AperFunction,SMDPad,CuDef*
%ADD22RoundRect,0.162500X0.162500X-0.447500X0.162500X0.447500X-0.162500X0.447500X-0.162500X-0.447500X0*%
G04 #@! TD*
G04 #@! TA.AperFunction,SMDPad,CuDef*
%ADD23RoundRect,0.095000X-0.130000X-0.095000X0.130000X-0.095000X0.130000X0.095000X-0.130000X0.095000X0*%
G04 #@! TD*
G04 #@! TA.AperFunction,SMDPad,CuDef*
%ADD24FreePoly0,0.000000*%
G04 #@! TD*
G04 #@! TA.AperFunction,SMDPad,CuDef*
%ADD25RoundRect,0.050000X-0.050000X0.150000X-0.050000X-0.150000X0.050000X-0.150000X0.050000X0.150000X0*%
G04 #@! TD*
G04 #@! TA.AperFunction,SMDPad,CuDef*
%ADD26RoundRect,0.050000X-0.150000X-0.050000X0.150000X-0.050000X0.150000X0.050000X-0.150000X0.050000X0*%
G04 #@! TD*
G04 #@! TA.AperFunction,SMDPad,CuDef*
%ADD27RoundRect,0.050000X0.150000X0.050000X-0.150000X0.050000X-0.150000X-0.050000X0.150000X-0.050000X0*%
G04 #@! TD*
G04 #@! TA.AperFunction,SMDPad,CuDef*
%ADD28RoundRect,0.050000X0.050000X-0.150000X0.050000X0.150000X-0.050000X0.150000X-0.050000X-0.150000X0*%
G04 #@! TD*
G04 #@! TA.AperFunction,SMDPad,CuDef*
%ADD29FreePoly1,0.000000*%
G04 #@! TD*
G04 #@! TA.AperFunction,SMDPad,CuDef*
%ADD30RoundRect,0.150000X-0.300000X0.150000X-0.300000X-0.150000X0.300000X-0.150000X0.300000X0.150000X0*%
G04 #@! TD*
G04 #@! TA.AperFunction,SMDPad,CuDef*
%ADD31RoundRect,0.100000X-0.200000X0.100000X-0.200000X-0.100000X0.200000X-0.100000X0.200000X0.100000X0*%
G04 #@! TD*
G04 #@! TA.AperFunction,SMDPad,CuDef*
%ADD32RoundRect,0.090000X-0.210000X0.310000X-0.210000X-0.310000X0.210000X-0.310000X0.210000X0.310000X0*%
G04 #@! TD*
G04 #@! TA.AperFunction,SMDPad,CuDef*
%ADD33C,0.220000*%
G04 #@! TD*
G04 #@! TA.AperFunction,SMDPad,CuDef*
%ADD34RoundRect,0.100000X0.100000X0.200000X-0.100000X0.200000X-0.100000X-0.200000X0.100000X-0.200000X0*%
G04 #@! TD*
G04 #@! TA.AperFunction,SMDPad,CuDef*
%ADD35RoundRect,0.067500X-0.183848X-0.088388X-0.088388X-0.183848X0.183848X0.088388X0.088388X0.183848X0*%
G04 #@! TD*
G04 #@! TA.AperFunction,SMDPad,CuDef*
%ADD36RoundRect,0.090000X-0.183848X-0.056569X-0.056569X-0.183848X0.183848X0.056569X0.056569X0.183848X0*%
G04 #@! TD*
G04 #@! TA.AperFunction,ConnectorPad*
%ADD37C,0.787400*%
G04 #@! TD*
G04 #@! TA.AperFunction,SMDPad,CuDef*
%ADD38RoundRect,0.067500X0.192500X-0.067500X0.192500X0.067500X-0.192500X0.067500X-0.192500X-0.067500X0*%
G04 #@! TD*
G04 #@! TA.AperFunction,SMDPad,CuDef*
%ADD39RoundRect,0.090000X0.170000X-0.090000X0.170000X0.090000X-0.170000X0.090000X-0.170000X-0.090000X0*%
G04 #@! TD*
G04 #@! TA.AperFunction,SMDPad,CuDef*
%ADD40RoundRect,0.067500X0.183848X0.088388X0.088388X0.183848X-0.183848X-0.088388X-0.088388X-0.183848X0*%
G04 #@! TD*
G04 #@! TA.AperFunction,SMDPad,CuDef*
%ADD41RoundRect,0.090000X0.183848X0.056569X0.056569X0.183848X-0.183848X-0.056569X-0.056569X-0.183848X0*%
G04 #@! TD*
G04 #@! TA.AperFunction,SMDPad,CuDef*
%ADD42RoundRect,0.067500X-0.067500X-0.192500X0.067500X-0.192500X0.067500X0.192500X-0.067500X0.192500X0*%
G04 #@! TD*
G04 #@! TA.AperFunction,SMDPad,CuDef*
%ADD43RoundRect,0.090000X-0.090000X-0.170000X0.090000X-0.170000X0.090000X0.170000X-0.090000X0.170000X0*%
G04 #@! TD*
G04 #@! TA.AperFunction,SMDPad,CuDef*
%ADD44RoundRect,0.090000X0.310000X0.210000X-0.310000X0.210000X-0.310000X-0.210000X0.310000X-0.210000X0*%
G04 #@! TD*
G04 #@! TA.AperFunction,SMDPad,CuDef*
%ADD45RoundRect,0.062500X-0.062500X-0.187500X0.062500X-0.187500X0.062500X0.187500X-0.062500X0.187500X0*%
G04 #@! TD*
G04 #@! TA.AperFunction,SMDPad,CuDef*
%ADD46RoundRect,0.062500X0.062500X0.187500X-0.062500X0.187500X-0.062500X-0.187500X0.062500X-0.187500X0*%
G04 #@! TD*
G04 #@! TA.AperFunction,SMDPad,CuDef*
%ADD47RoundRect,0.112500X0.112500X0.137500X-0.112500X0.137500X-0.112500X-0.137500X0.112500X-0.137500X0*%
G04 #@! TD*
G04 #@! TA.AperFunction,SMDPad,CuDef*
%ADD48RoundRect,0.045000X0.355000X0.105000X-0.355000X0.105000X-0.355000X-0.105000X0.355000X-0.105000X0*%
G04 #@! TD*
G04 #@! TA.AperFunction,SMDPad,CuDef*
%ADD49RoundRect,0.060000X0.340000X0.140000X-0.340000X0.140000X-0.340000X-0.140000X0.340000X-0.140000X0*%
G04 #@! TD*
G04 #@! TA.AperFunction,SMDPad,CuDef*
%ADD50RoundRect,0.150000X-0.350000X-1.550000X0.350000X-1.550000X0.350000X1.550000X-0.350000X1.550000X0*%
G04 #@! TD*
G04 #@! TA.AperFunction,SMDPad,CuDef*
%ADD51RoundRect,0.075000X0.662500X0.075000X-0.662500X0.075000X-0.662500X-0.075000X0.662500X-0.075000X0*%
G04 #@! TD*
G04 #@! TA.AperFunction,SMDPad,CuDef*
%ADD52RoundRect,0.075000X0.075000X0.662500X-0.075000X0.662500X-0.075000X-0.662500X0.075000X-0.662500X0*%
G04 #@! TD*
G04 #@! TA.AperFunction,SMDPad,CuDef*
%ADD53RoundRect,0.067500X0.067500X0.192500X-0.067500X0.192500X-0.067500X-0.192500X0.067500X-0.192500X0*%
G04 #@! TD*
G04 #@! TA.AperFunction,SMDPad,CuDef*
%ADD54RoundRect,0.090000X0.090000X0.170000X-0.090000X0.170000X-0.090000X-0.170000X0.090000X-0.170000X0*%
G04 #@! TD*
G04 #@! TA.AperFunction,SMDPad,CuDef*
%ADD55RoundRect,0.210000X1.090000X0.490000X-1.090000X0.490000X-1.090000X-0.490000X1.090000X-0.490000X0*%
G04 #@! TD*
G04 #@! TA.AperFunction,SMDPad,CuDef*
%ADD56RoundRect,0.195000X0.455000X0.505000X-0.455000X0.505000X-0.455000X-0.505000X0.455000X-0.505000X0*%
G04 #@! TD*
G04 #@! TA.AperFunction,SMDPad,CuDef*
%ADD57RoundRect,0.212500X-0.262500X-0.212500X0.262500X-0.212500X0.262500X0.212500X-0.262500X0.212500X0*%
G04 #@! TD*
G04 #@! TA.AperFunction,SMDPad,CuDef*
%ADD58RoundRect,0.053000X0.212000X-0.572000X0.212000X0.572000X-0.212000X0.572000X-0.212000X-0.572000X0*%
G04 #@! TD*
G04 #@! TA.AperFunction,SMDPad,CuDef*
%ADD59RoundRect,0.030000X-0.320000X-0.120000X0.320000X-0.120000X0.320000X0.120000X-0.320000X0.120000X0*%
G04 #@! TD*
G04 #@! TA.AperFunction,SMDPad,CuDef*
%ADD60RoundRect,0.030000X0.120000X-0.320000X0.120000X0.320000X-0.120000X0.320000X-0.120000X-0.320000X0*%
G04 #@! TD*
G04 #@! TA.AperFunction,SMDPad,CuDef*
%ADD61RoundRect,0.140000X0.310000X-0.000010X0.310000X0.000010X-0.310000X0.000010X-0.310000X-0.000010X0*%
G04 #@! TD*
G04 #@! TA.AperFunction,SMDPad,CuDef*
%ADD62RoundRect,0.140000X0.000010X0.310000X-0.000010X0.310000X-0.000010X-0.310000X0.000010X-0.310000X0*%
G04 #@! TD*
G04 #@! TA.AperFunction,SMDPad,CuDef*
%ADD63RoundRect,0.140000X-0.310000X0.000010X-0.310000X-0.000010X0.310000X-0.000010X0.310000X0.000010X0*%
G04 #@! TD*
G04 #@! TA.AperFunction,SMDPad,CuDef*
%ADD64RoundRect,0.140000X-0.000010X-0.310000X0.000010X-0.310000X0.000010X0.310000X-0.000010X0.310000X0*%
G04 #@! TD*
G04 #@! TA.AperFunction,SMDPad,CuDef*
%ADD65RoundRect,0.185000X1.665000X-1.665000X1.665000X1.665000X-1.665000X1.665000X-1.665000X-1.665000X0*%
G04 #@! TD*
G04 #@! TA.AperFunction,SMDPad,CuDef*
%ADD66RoundRect,0.040000X-0.360000X-0.710000X0.360000X-0.710000X0.360000X0.710000X-0.360000X0.710000X0*%
G04 #@! TD*
G04 #@! TA.AperFunction,SMDPad,CuDef*
%ADD67RoundRect,0.030000X-0.270000X-0.120000X0.270000X-0.120000X0.270000X0.120000X-0.270000X0.120000X0*%
G04 #@! TD*
G04 #@! TA.AperFunction,SMDPad,CuDef*
%ADD68RoundRect,0.040000X-0.160000X-0.835000X0.160000X-0.835000X0.160000X0.835000X-0.160000X0.835000X0*%
G04 #@! TD*
G04 #@! TA.AperFunction,SMDPad,CuDef*
%ADD69RoundRect,0.150000X-0.150000X-1.650000X0.150000X-1.650000X0.150000X1.650000X-0.150000X1.650000X0*%
G04 #@! TD*
G04 #@! TA.AperFunction,SMDPad,CuDef*
%ADD70RoundRect,0.095000X-0.095000X0.130000X-0.095000X-0.130000X0.095000X-0.130000X0.095000X0.130000X0*%
G04 #@! TD*
G04 #@! TA.AperFunction,SMDPad,CuDef*
%ADD71FreePoly0,270.000000*%
G04 #@! TD*
G04 #@! TA.AperFunction,SMDPad,CuDef*
%ADD72RoundRect,0.112500X-0.112500X-0.137500X0.112500X-0.137500X0.112500X0.137500X-0.112500X0.137500X0*%
G04 #@! TD*
G04 #@! TA.AperFunction,ComponentPad*
%ADD73C,1.200000*%
G04 #@! TD*
G04 #@! TA.AperFunction,ComponentPad*
%ADD74RoundRect,0.600000X0.450000X-0.000010X0.450000X0.000010X-0.450000X0.000010X-0.450000X-0.000010X0*%
G04 #@! TD*
G04 #@! TA.AperFunction,ComponentPad*
%ADD75RoundRect,0.600000X0.850000X-0.000010X0.850000X0.000010X-0.850000X0.000010X-0.850000X-0.000010X0*%
G04 #@! TD*
G04 #@! TA.AperFunction,ComponentPad*
%ADD76O,0.850000X1.100000*%
G04 #@! TD*
G04 #@! TA.AperFunction,ComponentPad*
%ADD77C,0.550000*%
G04 #@! TD*
G04 #@! TA.AperFunction,ComponentPad*
%ADD78C,0.450000*%
G04 #@! TD*
G04 #@! TA.AperFunction,ComponentPad*
%ADD79O,1.800000X1.150000*%
G04 #@! TD*
G04 #@! TA.AperFunction,ComponentPad*
%ADD80O,2.000000X1.140000*%
G04 #@! TD*
G04 #@! TA.AperFunction,ComponentPad*
%ADD81O,1.600000X1.000000*%
G04 #@! TD*
G04 #@! TA.AperFunction,ComponentPad*
%ADD82O,2.000000X1.150000*%
G04 #@! TD*
G04 #@! TA.AperFunction,ComponentPad*
%ADD83C,1.520000*%
G04 #@! TD*
G04 #@! TA.AperFunction,ComponentPad*
%ADD84RoundRect,0.750000X-0.600000X-0.000010X0.600000X-0.000010X0.600000X0.000010X-0.600000X0.000010X0*%
G04 #@! TD*
G04 #@! TA.AperFunction,ComponentPad*
%ADD85C,5.300000*%
G04 #@! TD*
G04 #@! TA.AperFunction,ViaPad*
%ADD86C,0.500000*%
G04 #@! TD*
G04 #@! TA.AperFunction,ViaPad*
%ADD87C,0.800000*%
G04 #@! TD*
G04 #@! TA.AperFunction,ViaPad*
%ADD88C,0.600000*%
G04 #@! TD*
G04 #@! TA.AperFunction,ViaPad*
%ADD89C,0.700000*%
G04 #@! TD*
G04 #@! TA.AperFunction,ViaPad*
%ADD90C,0.450000*%
G04 #@! TD*
G04 #@! TA.AperFunction,Conductor*
%ADD91C,0.200000*%
G04 #@! TD*
G04 #@! TA.AperFunction,Conductor*
%ADD92C,0.280000*%
G04 #@! TD*
G04 #@! TA.AperFunction,Conductor*
%ADD93C,0.400000*%
G04 #@! TD*
G04 #@! TA.AperFunction,Conductor*
%ADD94C,0.300000*%
G04 #@! TD*
G04 #@! TA.AperFunction,Conductor*
%ADD95C,0.600000*%
G04 #@! TD*
G04 #@! TA.AperFunction,Conductor*
%ADD96C,0.360000*%
G04 #@! TD*
G04 #@! TA.AperFunction,Conductor*
%ADD97C,1.000000*%
G04 #@! TD*
G04 #@! TA.AperFunction,Conductor*
%ADD98C,0.380000*%
G04 #@! TD*
G04 #@! TA.AperFunction,Conductor*
%ADD99C,0.350000*%
G04 #@! TD*
G04 #@! TA.AperFunction,Conductor*
%ADD100C,0.135000*%
G04 #@! TD*
G04 #@! TA.AperFunction,Conductor*
%ADD101C,0.150000*%
G04 #@! TD*
G04 #@! TA.AperFunction,Conductor*
%ADD102C,0.450000*%
G04 #@! TD*
G04 #@! TA.AperFunction,Conductor*
%ADD103C,0.157500*%
G04 #@! TD*
G04 #@! TA.AperFunction,Conductor*
%ADD104C,0.120000*%
G04 #@! TD*
G04 APERTURE END LIST*
D10*
X67650000Y-82750000D03*
X69150000Y-82750000D03*
D11*
X66750000Y-102050000D03*
X65250000Y-102050000D03*
D12*
X67700000Y-79450000D03*
D13*
X67700000Y-78950000D03*
D12*
X67700000Y-78450000D03*
X67700000Y-77950000D03*
D14*
X70200000Y-80450000D03*
X70200000Y-76950000D03*
D15*
X59400000Y-110400000D03*
D16*
X64710000Y-53150000D03*
X64710000Y-51250000D03*
X62090000Y-52200000D03*
D15*
X61600000Y-110400000D03*
D11*
X70550000Y-65600000D03*
X69050000Y-65600000D03*
D10*
X67650000Y-85150000D03*
X69150000Y-85150000D03*
D17*
X67400000Y-51100000D03*
X67400000Y-49700000D03*
D18*
X61800000Y-93900000D03*
X61800000Y-94900000D03*
D11*
X60750000Y-52200000D03*
X59250000Y-52200000D03*
D10*
X69250000Y-90800000D03*
X70750000Y-90800000D03*
D19*
X57400000Y-59550000D03*
X57400000Y-58050000D03*
D11*
X61550000Y-76800000D03*
X60050000Y-76800000D03*
D20*
X64400000Y-49200000D03*
X64400000Y-46800000D03*
D21*
X66400000Y-112200000D03*
X68400000Y-112200000D03*
D11*
X56350000Y-57800000D03*
X54850000Y-57800000D03*
D17*
X60400000Y-115900000D03*
X60400000Y-114500000D03*
D22*
X56050000Y-51510000D03*
X57950000Y-51510000D03*
X57000000Y-48890000D03*
D10*
X67250000Y-75800000D03*
X68750000Y-75800000D03*
D23*
X56425000Y-58950000D03*
X56425000Y-59600000D03*
X56425000Y-60250000D03*
X54775000Y-60250000D03*
X54775000Y-59550000D03*
X54775000Y-58950000D03*
D24*
X55600000Y-59600000D03*
D10*
X59050000Y-72400000D03*
X60550000Y-72400000D03*
X56850000Y-47400000D03*
X58350000Y-47400000D03*
X69250000Y-92000000D03*
X70750000Y-92000000D03*
D18*
X61000000Y-93900000D03*
X61000000Y-94900000D03*
D15*
X54200000Y-52600000D03*
D23*
X55225000Y-73550000D03*
X55225000Y-74200000D03*
X55225000Y-74850000D03*
X53575000Y-74850000D03*
X53575000Y-74150000D03*
X53575000Y-73550000D03*
D24*
X54400000Y-74200000D03*
D19*
X60600000Y-50750000D03*
X60600000Y-49250000D03*
D11*
X55150000Y-72400000D03*
X53650000Y-72400000D03*
D10*
X67650000Y-81500000D03*
X69150000Y-81500000D03*
D25*
X63400000Y-95525000D03*
X63000000Y-95525000D03*
X62600000Y-95525000D03*
X62200000Y-95525000D03*
X61800000Y-95525000D03*
X61400000Y-95525000D03*
X61000000Y-95525000D03*
X60600000Y-95525000D03*
X60200000Y-95525000D03*
X59800000Y-95525000D03*
X59400000Y-95525000D03*
X59000000Y-95525000D03*
X58600000Y-95525000D03*
X58200000Y-95525000D03*
D26*
X57825000Y-96000000D03*
X57825000Y-96400000D03*
X57825000Y-96800000D03*
X57825000Y-97200000D03*
X57825000Y-97600000D03*
D27*
X57825000Y-98000000D03*
D28*
X58200000Y-98475000D03*
D25*
X58600000Y-98475000D03*
X59000000Y-98475000D03*
X59400000Y-98475000D03*
X59800000Y-98475000D03*
X60200000Y-98475000D03*
X60600000Y-98475000D03*
X61000000Y-98475000D03*
X61400000Y-98475000D03*
X61800000Y-98475000D03*
X62200000Y-98475000D03*
X62600000Y-98475000D03*
X63000000Y-98475000D03*
X63400000Y-98475000D03*
D26*
X63775000Y-98000000D03*
X63775000Y-97600000D03*
X63775000Y-97200000D03*
X63775000Y-96800000D03*
X63775000Y-96400000D03*
X63775000Y-96000000D03*
D29*
X60800000Y-97000000D03*
D30*
X58200000Y-76650000D03*
X58200000Y-78150000D03*
D19*
X52400000Y-101950000D03*
X52400000Y-100450000D03*
X64600000Y-75950000D03*
X64600000Y-74450000D03*
D31*
X58400000Y-100900000D03*
X58400000Y-99900000D03*
D19*
X59000000Y-45150000D03*
X59000000Y-43650000D03*
D32*
X69100000Y-63200000D03*
X70500000Y-63200000D03*
D30*
X68000000Y-63050000D03*
X68000000Y-64550000D03*
D33*
X64200000Y-110800000D03*
X64200000Y-111200000D03*
X63800000Y-110800000D03*
X63800000Y-111200000D03*
X63400000Y-110800000D03*
X63400000Y-111200000D03*
X63000000Y-110800000D03*
X63000000Y-111200000D03*
D34*
X62900000Y-110000000D03*
X63900000Y-110000000D03*
D10*
X67650000Y-74600000D03*
X69150000Y-74600000D03*
D35*
X54304325Y-103761360D03*
X53738640Y-103195675D03*
D36*
X53328518Y-104171482D03*
D18*
X60200000Y-93900000D03*
X60200000Y-94900000D03*
D10*
X55850000Y-61400000D03*
X57350000Y-61400000D03*
D37*
X64070000Y-89165000D03*
X64070000Y-90435000D03*
X62800000Y-89165000D03*
X62800000Y-90435000D03*
X61530000Y-89165000D03*
X61530000Y-90435000D03*
D31*
X64400000Y-102900000D03*
X64400000Y-101900000D03*
D10*
X69050000Y-66800000D03*
X70550000Y-66800000D03*
D15*
X65250000Y-109300000D03*
D38*
X53360000Y-67350000D03*
X53360000Y-68150000D03*
D39*
X54340000Y-67750000D03*
D11*
X56350000Y-56600000D03*
X54850000Y-56600000D03*
D19*
X65800000Y-55950000D03*
X65800000Y-54450000D03*
D40*
X50820675Y-104713640D03*
X51386360Y-105279325D03*
D41*
X51796482Y-104303518D03*
D11*
X70550000Y-64400000D03*
X69050000Y-64400000D03*
D42*
X56400000Y-79310000D03*
X55600000Y-79310000D03*
D43*
X56000000Y-80290000D03*
D31*
X62000000Y-102900000D03*
X62000000Y-101900000D03*
D10*
X59050000Y-66800000D03*
X60550000Y-66800000D03*
X53650000Y-76000000D03*
X55150000Y-76000000D03*
D15*
X69400000Y-57450000D03*
D11*
X52550000Y-99400000D03*
X51050000Y-99400000D03*
X55150000Y-71200000D03*
X53650000Y-71200000D03*
X58750000Y-57000000D03*
X57250000Y-57000000D03*
D10*
X57250000Y-88800000D03*
X58750000Y-88800000D03*
X58250000Y-69600000D03*
X59750000Y-69600000D03*
D30*
X63400000Y-74450000D03*
X63400000Y-75950000D03*
D15*
X67400000Y-39200000D03*
D11*
X70550000Y-69200000D03*
X69050000Y-69200000D03*
D31*
X59600000Y-102900000D03*
X59600000Y-101900000D03*
D10*
X57250000Y-90000000D03*
X58750000Y-90000000D03*
D11*
X66750000Y-103250000D03*
X65250000Y-103250000D03*
D44*
X67400000Y-52100000D03*
X67400000Y-53500000D03*
D45*
X59000000Y-104400000D03*
D46*
X59500000Y-104400000D03*
D47*
X60000000Y-104400000D03*
D46*
X60500000Y-104400000D03*
X61000000Y-104400000D03*
X61000000Y-103600000D03*
X60500000Y-103600000D03*
D47*
X60000000Y-103600000D03*
D46*
X59500000Y-103600000D03*
X59000000Y-103600000D03*
D48*
X67750000Y-109850000D03*
X67750000Y-109350000D03*
X67750000Y-108850000D03*
X67750000Y-108350000D03*
X67750000Y-107850000D03*
X67750000Y-107350000D03*
X67750000Y-106850000D03*
X67750000Y-106350000D03*
X67750000Y-105850000D03*
X67750000Y-105350000D03*
X67750000Y-104850000D03*
X67750000Y-104350000D03*
X67750000Y-103850000D03*
X67750000Y-103350000D03*
X67750000Y-102850000D03*
X67750000Y-102350000D03*
X67750000Y-101850000D03*
X67750000Y-101350000D03*
X67750000Y-100850000D03*
X67750000Y-100350000D03*
X67750000Y-99850000D03*
X67750000Y-99350000D03*
X67750000Y-98850000D03*
X67750000Y-98350000D03*
X67750000Y-97850000D03*
X67750000Y-97350000D03*
X67750000Y-96850000D03*
X67750000Y-96350000D03*
X67750000Y-95850000D03*
X67750000Y-95350000D03*
D49*
X70250000Y-110850000D03*
X70250000Y-94350000D03*
D15*
X66400000Y-57450000D03*
D50*
X61600000Y-56400000D03*
X64000000Y-56400000D03*
D32*
X69100000Y-68000000D03*
X70500000Y-68000000D03*
D51*
X66162500Y-85350000D03*
X66162500Y-84850000D03*
X66162500Y-84350000D03*
X66162500Y-83850000D03*
X66162500Y-83350000D03*
X66162500Y-82850000D03*
X66162500Y-82350000D03*
X66162500Y-81850000D03*
X66162500Y-81350000D03*
X66162500Y-80850000D03*
X66162500Y-80350000D03*
X66162500Y-79850000D03*
D52*
X64750000Y-78437500D03*
X64250000Y-78437500D03*
X63750000Y-78437500D03*
X63250000Y-78437500D03*
X62750000Y-78437500D03*
X62250000Y-78437500D03*
X61750000Y-78437500D03*
X61250000Y-78437500D03*
X60750000Y-78437500D03*
X60250000Y-78437500D03*
X59750000Y-78437500D03*
X59250000Y-78437500D03*
D51*
X57837500Y-79850000D03*
X57837500Y-80350000D03*
X57837500Y-80850000D03*
X57837500Y-81350000D03*
X57837500Y-81850000D03*
X57837500Y-82350000D03*
X57837500Y-82850000D03*
X57837500Y-83350000D03*
X57837500Y-83850000D03*
X57837500Y-84350000D03*
X57837500Y-84850000D03*
X57837500Y-85350000D03*
D52*
X59250000Y-86762500D03*
X59750000Y-86762500D03*
X60250000Y-86762500D03*
X60750000Y-86762500D03*
X61250000Y-86762500D03*
X61750000Y-86762500D03*
X62250000Y-86762500D03*
X62750000Y-86762500D03*
X63250000Y-86762500D03*
X63750000Y-86762500D03*
X64250000Y-86762500D03*
X64750000Y-86762500D03*
D11*
X60550000Y-64400000D03*
X59050000Y-64400000D03*
D19*
X66200000Y-53550000D03*
X66200000Y-52050000D03*
D11*
X60550000Y-65600000D03*
X59050000Y-65600000D03*
D53*
X57200000Y-103690000D03*
X58000000Y-103690000D03*
D54*
X57600000Y-102710000D03*
D19*
X53600000Y-101950000D03*
X53600000Y-100450000D03*
D30*
X54600000Y-54050000D03*
X54600000Y-55550000D03*
D42*
X56400000Y-64410000D03*
X55600000Y-64410000D03*
D43*
X56000000Y-65390000D03*
D30*
X59800000Y-56850000D03*
X59800000Y-58350000D03*
D31*
X61200000Y-102900000D03*
X61200000Y-101900000D03*
D30*
X67000000Y-54450000D03*
X67000000Y-55950000D03*
D10*
X69250000Y-93200000D03*
X70750000Y-93200000D03*
D19*
X67400000Y-48750000D03*
X67400000Y-47250000D03*
D55*
X65300000Y-44400000D03*
D56*
X62850000Y-44400000D03*
D19*
X60200000Y-45150000D03*
X60200000Y-43650000D03*
D11*
X70550000Y-70400000D03*
X69050000Y-70400000D03*
D31*
X60000000Y-100900000D03*
X60000000Y-99900000D03*
X60400000Y-102900000D03*
X60400000Y-101900000D03*
D11*
X70550000Y-71800000D03*
X69050000Y-71800000D03*
D57*
X61675000Y-64375000D03*
X61675000Y-63225000D03*
X63125000Y-63225000D03*
X63125000Y-64375000D03*
D11*
X60550000Y-63200000D03*
X59050000Y-63200000D03*
D19*
X65800000Y-75950000D03*
X65800000Y-74450000D03*
X56600000Y-46350000D03*
X56600000Y-44850000D03*
D10*
X57250000Y-91200000D03*
X58750000Y-91200000D03*
D30*
X58600000Y-58050000D03*
X58600000Y-59550000D03*
D58*
X60285000Y-46945000D03*
D59*
X59450000Y-46450000D03*
X59450000Y-46950000D03*
X59450000Y-47450000D03*
X59450000Y-47950000D03*
D60*
X60400000Y-48250000D03*
D59*
X61350000Y-47950000D03*
X61350000Y-47450000D03*
X61350000Y-46950000D03*
X61350000Y-46450000D03*
D60*
X60400000Y-46150000D03*
D31*
X62800000Y-102900000D03*
X62800000Y-101900000D03*
D11*
X64750000Y-59400000D03*
X63250000Y-59400000D03*
D61*
X61650000Y-67600000D03*
X61650000Y-68100000D03*
X61650000Y-68600000D03*
X61650000Y-69100000D03*
X61650000Y-69600000D03*
X61650000Y-70100000D03*
X61650000Y-70600000D03*
X61650000Y-71100000D03*
X61650000Y-71600000D03*
D62*
X62400000Y-72350000D03*
X62900000Y-72350000D03*
X63400000Y-72350000D03*
X63900000Y-72350000D03*
X64400000Y-72350000D03*
X64900000Y-72350000D03*
X65400000Y-72350000D03*
X65900000Y-72350000D03*
X66400000Y-72350000D03*
D63*
X67150000Y-71600000D03*
X67150000Y-71100000D03*
X67150000Y-70600000D03*
X67150000Y-70100000D03*
X67150000Y-69600000D03*
X67150000Y-69100000D03*
X67150000Y-68600000D03*
X67150000Y-68100000D03*
X67150000Y-67600000D03*
D64*
X66400000Y-66850000D03*
X65900000Y-66850000D03*
X65400000Y-66850000D03*
X64900000Y-66850000D03*
X64400000Y-66850000D03*
X63900000Y-66850000D03*
X63400000Y-66850000D03*
X62900000Y-66850000D03*
X62400000Y-66850000D03*
D65*
X64400000Y-69600000D03*
D19*
X57800000Y-46350000D03*
X57800000Y-44850000D03*
D66*
X58250000Y-54050000D03*
D67*
X58150000Y-55100000D03*
X58150000Y-55550000D03*
X58150000Y-56000000D03*
X59850000Y-56000000D03*
X59850000Y-55550000D03*
X59850000Y-55100000D03*
D66*
X59750000Y-54050000D03*
D68*
X59000000Y-53925000D03*
D31*
X63200000Y-100900000D03*
X63200000Y-99900000D03*
D19*
X60400000Y-113550000D03*
X60400000Y-112050000D03*
D10*
X67650000Y-83950000D03*
X69150000Y-83950000D03*
D11*
X57150000Y-53000000D03*
X55650000Y-53000000D03*
D30*
X66800000Y-63050000D03*
X66800000Y-64550000D03*
D31*
X61600000Y-100900000D03*
X61600000Y-99900000D03*
D19*
X59400000Y-50750000D03*
X59400000Y-49250000D03*
D69*
X63250000Y-113600000D03*
X64750000Y-113600000D03*
D44*
X57400000Y-86300000D03*
X57400000Y-87700000D03*
D30*
X48800000Y-100450000D03*
X48800000Y-101950000D03*
D31*
X58800000Y-102900000D03*
X58800000Y-101900000D03*
D30*
X64400000Y-63050000D03*
X64400000Y-64550000D03*
D19*
X61400000Y-45150000D03*
X61400000Y-43650000D03*
D11*
X52350000Y-75400000D03*
X50850000Y-75400000D03*
D31*
X63600000Y-102900000D03*
X63600000Y-101900000D03*
D70*
X51250000Y-102025000D03*
X50600000Y-102025000D03*
X49950000Y-102025000D03*
X49950000Y-100375000D03*
X50650000Y-100375000D03*
X51250000Y-100375000D03*
D71*
X50600000Y-101200000D03*
D46*
X64200000Y-103600000D03*
D45*
X63700000Y-103600000D03*
D72*
X63200000Y-103600000D03*
D45*
X62700000Y-103600000D03*
X62200000Y-103600000D03*
X62200000Y-104400000D03*
X62700000Y-104400000D03*
D72*
X63200000Y-104400000D03*
D45*
X63700000Y-104400000D03*
X64200000Y-104400000D03*
D73*
X51530000Y-93500000D03*
X51530000Y-91000000D03*
X51530000Y-89000000D03*
X51530000Y-86500000D03*
X53030000Y-86000000D03*
X53030000Y-88000000D03*
X53030000Y-90000000D03*
X53030000Y-92000000D03*
X53030000Y-94000000D03*
D74*
X43800000Y-97850000D03*
D75*
X50600000Y-97850000D03*
D74*
X43800000Y-82150000D03*
D75*
X50600000Y-82150000D03*
D76*
X46010000Y-104800000D03*
D77*
X45110000Y-105500000D03*
X45110000Y-106300000D03*
D78*
X46010000Y-106700000D03*
D77*
X45110000Y-107150000D03*
D78*
X46010000Y-107600000D03*
X46010000Y-108400000D03*
D77*
X45110000Y-108850000D03*
D78*
X46010000Y-109300000D03*
D77*
X45110000Y-109700000D03*
X45110000Y-110500000D03*
D76*
X46010000Y-111200000D03*
D79*
X41350000Y-114075000D03*
D80*
X45210000Y-114075000D03*
D81*
X47550000Y-112465000D03*
X47550000Y-103535000D03*
D79*
X41350000Y-101925000D03*
D82*
X45210000Y-101925000D03*
D83*
X51450000Y-73500000D03*
X51450000Y-71000000D03*
X51450000Y-69000000D03*
X51450000Y-66500000D03*
D84*
X50600000Y-77850000D03*
X50600000Y-62150000D03*
D85*
X55600000Y-115000000D03*
X71000000Y-41000000D03*
D83*
X51450000Y-53500000D03*
X51450000Y-51000000D03*
X51450000Y-49000000D03*
X51450000Y-46500000D03*
D84*
X50600000Y-57850000D03*
X50600000Y-42150000D03*
D85*
X71000000Y-115000000D03*
X55600000Y-41000000D03*
D86*
X61000000Y-94550000D03*
D87*
X61500000Y-58950000D03*
X66400000Y-111200000D03*
D88*
X69645000Y-65400000D03*
D87*
X60000000Y-62000000D03*
D86*
X59100000Y-69600000D03*
D87*
X65600000Y-111200000D03*
X64500000Y-60500000D03*
D89*
X66400000Y-110400000D03*
D87*
X67500000Y-59000000D03*
X67862500Y-86382743D03*
X64500000Y-62000000D03*
X67500000Y-62000000D03*
D88*
X61900000Y-72400000D03*
D86*
X61800000Y-94550000D03*
X60200000Y-94550000D03*
D87*
X66000000Y-59000000D03*
X63000000Y-60500000D03*
X67500000Y-60500000D03*
D88*
X66800000Y-65150000D03*
D86*
X68800000Y-78950000D03*
D87*
X66000000Y-60500000D03*
D86*
X60000000Y-100250000D03*
D87*
X69000000Y-62000000D03*
D88*
X68650000Y-73150000D03*
D86*
X59900000Y-66800000D03*
D87*
X67862500Y-87200000D03*
D86*
X63200000Y-100250000D03*
X62450000Y-110950000D03*
D87*
X61500000Y-62000000D03*
D86*
X61600000Y-100250000D03*
D88*
X61150000Y-72400000D03*
D87*
X63000000Y-62000000D03*
D88*
X69650000Y-73450000D03*
D87*
X65600000Y-110400000D03*
X66000000Y-62000000D03*
D86*
X58400000Y-100250000D03*
D87*
X60000000Y-60500000D03*
X61500000Y-60500000D03*
D88*
X70550000Y-72800000D03*
D86*
X54600000Y-54950000D03*
D87*
X62150000Y-88300000D03*
D86*
X62000000Y-96500000D03*
X55750000Y-99550000D03*
X56000000Y-64864385D03*
D87*
X63500000Y-52500000D03*
D86*
X62800000Y-93900000D03*
D88*
X57350000Y-62250000D03*
X55300000Y-76800000D03*
D87*
X58800000Y-46000000D03*
D88*
X65850000Y-68150000D03*
D86*
X69400000Y-94200000D03*
D88*
X62950000Y-68150000D03*
D86*
X59600000Y-97500000D03*
X65000000Y-107100000D03*
X63200000Y-104000000D03*
X58375000Y-105945000D03*
X70000000Y-100600000D03*
D88*
X62950000Y-69600000D03*
X59100000Y-62350000D03*
D86*
X68800000Y-77950000D03*
X56000000Y-79764385D03*
D87*
X64850000Y-82550000D03*
D88*
X64400000Y-71050000D03*
D87*
X62000000Y-51000000D03*
D86*
X57850000Y-91200000D03*
X49810000Y-105030000D03*
D88*
X64970000Y-64395000D03*
D86*
X58200000Y-77500000D03*
D88*
X65850000Y-69600000D03*
D86*
X69950000Y-106350000D03*
D87*
X71150000Y-110650000D03*
X63500000Y-54000000D03*
D86*
X63200000Y-101350000D03*
X69950000Y-107850000D03*
X56500000Y-97800000D03*
X60750000Y-106500000D03*
D87*
X62000000Y-54000000D03*
D86*
X51000000Y-110000000D03*
X61600000Y-101350000D03*
X59600000Y-96500000D03*
D88*
X64400000Y-68150000D03*
D87*
X69950000Y-79750000D03*
D86*
X53814385Y-67750001D03*
X51500000Y-104600000D03*
X55150000Y-84000000D03*
X61800000Y-93450000D03*
X70000000Y-102600000D03*
X66050000Y-104290000D03*
X69950000Y-104850000D03*
D88*
X65600000Y-63050000D03*
D86*
X70000000Y-101400000D03*
D88*
X53650000Y-70300000D03*
D86*
X60200000Y-93450000D03*
D88*
X62500000Y-75950000D03*
X62250000Y-62500000D03*
D86*
X58400000Y-101350000D03*
D87*
X66500000Y-51000000D03*
D88*
X64400000Y-69600000D03*
D86*
X53025000Y-104475000D03*
X57600000Y-102100000D03*
X61000000Y-93450000D03*
X64639976Y-105800000D03*
X57400000Y-86850000D03*
X62000000Y-97500000D03*
D88*
X57550000Y-69600000D03*
D87*
X63500000Y-51000000D03*
D88*
X58350000Y-72400000D03*
D86*
X60000000Y-104000000D03*
D88*
X65850000Y-71050000D03*
D86*
X70000000Y-99800000D03*
X62750000Y-58700000D03*
X60800000Y-97000000D03*
X64500000Y-110250000D03*
X57950000Y-56650000D03*
X65150000Y-96200000D03*
X60000000Y-101350000D03*
X55650000Y-93900000D03*
D88*
X62950000Y-71050000D03*
D86*
X55650000Y-88200000D03*
X66500000Y-107800000D03*
X64250000Y-79700000D03*
X67087500Y-66900000D03*
X55650000Y-83650000D03*
X55650000Y-84350000D03*
X50500000Y-110350000D03*
X50500000Y-109650000D03*
X61100000Y-106000000D03*
X49500000Y-105550000D03*
X50120000Y-105550000D03*
X60400000Y-106000000D03*
X58900000Y-106250000D03*
X58900000Y-105640000D03*
D90*
X48600000Y-108301250D03*
D86*
X55400000Y-100071381D03*
X65550000Y-64700000D03*
D90*
X47781875Y-107900000D03*
D86*
X65550000Y-64090000D03*
X56100000Y-100071381D03*
X56998987Y-98150000D03*
X65696976Y-104787000D03*
X66150000Y-108300000D03*
X64653940Y-95850000D03*
X66396976Y-104787000D03*
X56998987Y-97450000D03*
X66850000Y-108300000D03*
X64653940Y-96550000D03*
X65536401Y-106750000D03*
X63150000Y-94400000D03*
X62450000Y-94400000D03*
X65536401Y-107450000D03*
X55150000Y-87850000D03*
X55150000Y-93550000D03*
X55150000Y-94250000D03*
X55150000Y-88550000D03*
D88*
X55150000Y-70300000D03*
D87*
X66350000Y-114200000D03*
X57200000Y-54800000D03*
X55600000Y-55600000D03*
D88*
X54050000Y-84150000D03*
D87*
X57200000Y-54000000D03*
X55600000Y-54000000D03*
X67150000Y-114200000D03*
X56400000Y-55600000D03*
X57200000Y-55600000D03*
X65550000Y-113400000D03*
X65550000Y-114200000D03*
D88*
X54050000Y-84950000D03*
D87*
X67150000Y-115000000D03*
X70450000Y-75950000D03*
D88*
X55150000Y-69500000D03*
D87*
X66350000Y-115000000D03*
X56400000Y-54000000D03*
X55600000Y-54800000D03*
X56400000Y-54800000D03*
X65550000Y-115000000D03*
X67150000Y-113400000D03*
X66350000Y-113400000D03*
D88*
X64000000Y-42500000D03*
X62500000Y-42500000D03*
X68500000Y-50000000D03*
X70000000Y-45500000D03*
X73000000Y-48500000D03*
X71500000Y-48500000D03*
X61000000Y-39500000D03*
X59500000Y-41000000D03*
X56500000Y-44000000D03*
X59500000Y-39500000D03*
X65500000Y-42500000D03*
X67000000Y-45500000D03*
X70000000Y-48500000D03*
X68500000Y-45500000D03*
X64000000Y-39500000D03*
X73000000Y-50000000D03*
X71500000Y-45500000D03*
X68500000Y-48500000D03*
X61000000Y-41000000D03*
X70000000Y-44000000D03*
X70000000Y-50000000D03*
X64000000Y-41000000D03*
X73000000Y-45500000D03*
X62500000Y-41000000D03*
X71500000Y-50000000D03*
X62500000Y-39500000D03*
X71450000Y-47000000D03*
X67000000Y-41000000D03*
X65500000Y-41000000D03*
X72950000Y-47000000D03*
X68450000Y-47000000D03*
X69950000Y-47000000D03*
X67000000Y-42500000D03*
X59500000Y-42500000D03*
X73000000Y-44000000D03*
X65500000Y-39500000D03*
X61000000Y-42500000D03*
X68500000Y-44000000D03*
X67000000Y-44000000D03*
X58000000Y-44000000D03*
D86*
X52805003Y-103000000D03*
D90*
X48672500Y-107041159D03*
D86*
X59021995Y-81828005D03*
D87*
X62400000Y-113200000D03*
X62400000Y-114000000D03*
X62400000Y-112400000D03*
X61600000Y-114800000D03*
X61600000Y-112400000D03*
X62400000Y-114800000D03*
X61600000Y-113200000D03*
X61600000Y-114000000D03*
D86*
X52200000Y-103000000D03*
X59025000Y-82825000D03*
X66750000Y-76650000D03*
X59100000Y-80300000D03*
X65300000Y-91251000D03*
X65900000Y-76650000D03*
X65017769Y-97680000D03*
X64750000Y-90800000D03*
X65300000Y-96800000D03*
X59600000Y-81000000D03*
X63400000Y-73600000D03*
X58000000Y-61000000D03*
X58400000Y-60400000D03*
X61600000Y-73400000D03*
X66000000Y-73400000D03*
X55387500Y-78300000D03*
X65400000Y-73600000D03*
X55387500Y-77691889D03*
X49950000Y-102650000D03*
X66600000Y-73800000D03*
X67000000Y-72200000D03*
X49950000Y-99850000D03*
D91*
X59000000Y-98801582D02*
X58400000Y-99401582D01*
X67150000Y-67600000D02*
X66346802Y-67600000D01*
X65900000Y-67153198D02*
X65900000Y-66850000D01*
D92*
X68240000Y-71093962D02*
X68946038Y-71800000D01*
X64900000Y-73500000D02*
X64600000Y-73800000D01*
D91*
X63000000Y-111200000D02*
X62844437Y-111200000D01*
X64600000Y-74450000D02*
X64625561Y-74475561D01*
X63400000Y-95725000D02*
X63195000Y-95930000D01*
D93*
X69050000Y-71800000D02*
X69050000Y-72350000D01*
X60000000Y-99900000D02*
X60000000Y-100250000D01*
D92*
X64900000Y-72350000D02*
X64900000Y-73500000D01*
D94*
X60600000Y-66850000D02*
X60550000Y-66800000D01*
D91*
X60025000Y-95075000D02*
X60200000Y-94900000D01*
X63400000Y-95525000D02*
X63400000Y-95725000D01*
X65774439Y-74475561D02*
X65800000Y-74450000D01*
D92*
X65900000Y-66050000D02*
X66800000Y-65150000D01*
D93*
X61800000Y-94900000D02*
X61800000Y-94550000D01*
D91*
X61800000Y-94900000D02*
X62200000Y-95300000D01*
D94*
X68300000Y-79450000D02*
X68800000Y-78950000D01*
D91*
X58600000Y-95525000D02*
X58600000Y-95750000D01*
X62200000Y-95725000D02*
X62200000Y-95525000D01*
D92*
X65900000Y-66850000D02*
X65900000Y-66050000D01*
D95*
X67650000Y-86030236D02*
X67650000Y-85150000D01*
D92*
X67850000Y-69600000D02*
X68240000Y-69990000D01*
D93*
X69150000Y-75400000D02*
X68750000Y-75800000D01*
D91*
X61400000Y-98475000D02*
X61400000Y-99700000D01*
D95*
X66350000Y-87200000D02*
X64385000Y-89165000D01*
D91*
X62684000Y-111039563D02*
X62684000Y-110700000D01*
X62684000Y-110700000D02*
X62684000Y-110716000D01*
D93*
X58400000Y-99900000D02*
X58400000Y-100250000D01*
D94*
X60550000Y-66800000D02*
X59900000Y-66800000D01*
D95*
X65800000Y-74450000D02*
X64600000Y-74450000D01*
D92*
X61650000Y-69600000D02*
X59750000Y-69600000D01*
D91*
X62200000Y-95300000D02*
X62200000Y-95525000D01*
D92*
X68240000Y-69990000D02*
X68240000Y-71093962D01*
D93*
X63200000Y-99900000D02*
X63200000Y-100250000D01*
D91*
X58400000Y-99401582D02*
X58400000Y-99900000D01*
D93*
X69650000Y-74100000D02*
X69150000Y-74600000D01*
D92*
X67150000Y-69600000D02*
X67850000Y-69600000D01*
D91*
X59800000Y-95300000D02*
X59800000Y-95525000D01*
D95*
X69050000Y-65600000D02*
X69445000Y-65600000D01*
D91*
X58600000Y-95750000D02*
X58788460Y-95938460D01*
X59000000Y-98475000D02*
X59000000Y-98801582D01*
D94*
X67950000Y-64500000D02*
X66850000Y-64500000D01*
D95*
X67862500Y-87200000D02*
X66350000Y-87200000D01*
X61900000Y-72400000D02*
X60550000Y-72400000D01*
X67862500Y-86242737D02*
X67650000Y-86030236D01*
D94*
X59750000Y-69600000D02*
X59100000Y-69600000D01*
D91*
X58200000Y-95525000D02*
X58600000Y-95525000D01*
D92*
X64600000Y-73800000D02*
X64600000Y-74450000D01*
X62400000Y-72350000D02*
X61950000Y-72350000D01*
D94*
X68000000Y-64550000D02*
X67950000Y-64500000D01*
D92*
X68946038Y-71800000D02*
X69050000Y-71800000D01*
D95*
X67862500Y-86382743D02*
X67862500Y-86242737D01*
X67862500Y-87200000D02*
X67862500Y-86382743D01*
D91*
X61000000Y-94900000D02*
X61000000Y-95525000D01*
D92*
X61950000Y-72350000D02*
X61900000Y-72400000D01*
D95*
X64600000Y-74490458D02*
X63934458Y-75156000D01*
D91*
X62684000Y-110216000D02*
X62900000Y-110000000D01*
D95*
X64385000Y-89165000D02*
X64070000Y-89165000D01*
X67862500Y-86382743D02*
X67832743Y-86382743D01*
D93*
X61000000Y-94900000D02*
X61000000Y-94550000D01*
D91*
X62600000Y-98475000D02*
X62600000Y-98801582D01*
X62844437Y-111200000D02*
X62684000Y-111039563D01*
X63195000Y-95930000D02*
X62405000Y-95930000D01*
X62684000Y-110700000D02*
X62684000Y-110216000D01*
X58788460Y-95938460D02*
X59661540Y-95938460D01*
D93*
X60200000Y-94900000D02*
X60200000Y-94550000D01*
D95*
X61706000Y-75156000D02*
X60550000Y-74000000D01*
D91*
X60200000Y-99700000D02*
X60000000Y-99900000D01*
X60200000Y-98475000D02*
X60200000Y-99700000D01*
X59800000Y-95800000D02*
X59800000Y-95525000D01*
D95*
X60550000Y-74000000D02*
X60550000Y-72400000D01*
X64600000Y-74450000D02*
X64600000Y-74490458D01*
D91*
X62405000Y-95930000D02*
X62200000Y-95725000D01*
X60200000Y-94900000D02*
X59800000Y-95300000D01*
D92*
X62400000Y-66850000D02*
X60600000Y-66850000D01*
D95*
X63934458Y-75156000D02*
X61706000Y-75156000D01*
D91*
X63200000Y-99401582D02*
X63200000Y-99900000D01*
D93*
X61600000Y-99900000D02*
X61600000Y-100250000D01*
D94*
X67700000Y-79450000D02*
X68300000Y-79450000D01*
D93*
X69650000Y-73450000D02*
X69650000Y-74100000D01*
D95*
X64070000Y-89165000D02*
X64085000Y-89165000D01*
D91*
X62684000Y-110716000D02*
X62450000Y-110950000D01*
X59661540Y-95938460D02*
X59800000Y-95800000D01*
D95*
X69445000Y-65600000D02*
X69645000Y-65400000D01*
D93*
X69050000Y-72350000D02*
X68850000Y-72550000D01*
D92*
X66800000Y-65150000D02*
X66800000Y-64550000D01*
D91*
X66346802Y-67600000D02*
X65900000Y-67153198D01*
D93*
X68850000Y-72550000D02*
X68650000Y-72750000D01*
D91*
X62600000Y-98801582D02*
X63200000Y-99401582D01*
D93*
X68650000Y-72750000D02*
X68650000Y-73150000D01*
D94*
X66850000Y-64500000D02*
X66800000Y-64550000D01*
D91*
X61400000Y-99700000D02*
X61600000Y-99900000D01*
D93*
X69150000Y-74600000D02*
X69150000Y-75400000D01*
D95*
X54400000Y-73150000D02*
X53650000Y-72400000D01*
X70200000Y-80450000D02*
X70200000Y-80000000D01*
D93*
X71150000Y-110650000D02*
X71150000Y-110850000D01*
D96*
X56000000Y-65390000D02*
X56000000Y-64864385D01*
D95*
X61675000Y-63075000D02*
X62250000Y-62500000D01*
D91*
X63900000Y-110700000D02*
X63800000Y-110800000D01*
D93*
X53650000Y-71200000D02*
X53650000Y-70300000D01*
X65250000Y-103250000D02*
X64639976Y-103860024D01*
D94*
X70200000Y-76950000D02*
X69800000Y-76950000D01*
D95*
X62750000Y-58700000D02*
X63250000Y-59200000D01*
D93*
X57600000Y-102710000D02*
X57600000Y-102100000D01*
X64639976Y-103860024D02*
X64639976Y-105800000D01*
D95*
X63250000Y-59200000D02*
X63250000Y-59400000D01*
D93*
X48800000Y-101950000D02*
X49550000Y-101200000D01*
D97*
X67400000Y-39200000D02*
X68400000Y-39200000D01*
D95*
X69100000Y-68000000D02*
X69794000Y-68000000D01*
D91*
X58450000Y-96250000D02*
X59350000Y-96250000D01*
D95*
X70550000Y-72800000D02*
X70550000Y-71800000D01*
X54850000Y-57800000D02*
X54850000Y-56600000D01*
D91*
X59350000Y-96250000D02*
X59600000Y-96500000D01*
D93*
X71150000Y-110850000D02*
X70250000Y-110850000D01*
D95*
X53600000Y-100450000D02*
X52400000Y-100450000D01*
X51650000Y-101200000D02*
X52400000Y-100450000D01*
X50850000Y-75400000D02*
X50850000Y-77600000D01*
X50850000Y-77600000D02*
X50600000Y-77850000D01*
X54850000Y-56600000D02*
X54600000Y-56350000D01*
D94*
X65050000Y-82350000D02*
X64850000Y-82550000D01*
D95*
X69794000Y-67256001D02*
X69794000Y-68000000D01*
D91*
X63775000Y-97200000D02*
X61000000Y-97200000D01*
D95*
X50600000Y-101200000D02*
X51650000Y-101200000D01*
D93*
X57400000Y-86300000D02*
X57500000Y-86300000D01*
X55150000Y-76000000D02*
X55150000Y-76650000D01*
X49550000Y-101200000D02*
X50600000Y-101200000D01*
D95*
X61530000Y-88470000D02*
X61700000Y-88300000D01*
X69250000Y-90800000D02*
X69250000Y-94050000D01*
X69150000Y-81500000D02*
X70200000Y-80450000D01*
X57250000Y-91200000D02*
X57250000Y-90000000D01*
X70200000Y-80000000D02*
X69950000Y-79750000D01*
X66800000Y-63050000D02*
X65600000Y-63050000D01*
X59050000Y-72400000D02*
X58350000Y-72400000D01*
X70550000Y-66800000D02*
X70250001Y-66800000D01*
D91*
X58200000Y-96000000D02*
X58450000Y-96250000D01*
D95*
X69150000Y-81500000D02*
X69150000Y-82750000D01*
X54400000Y-74200000D02*
X54400000Y-73150000D01*
X59050000Y-63200000D02*
X59050000Y-62400000D01*
X65800000Y-75950000D02*
X64600000Y-75950000D01*
D94*
X66162500Y-82350000D02*
X65050000Y-82350000D01*
D95*
X53650000Y-72400000D02*
X53650000Y-71200000D01*
D93*
X58400000Y-100900000D02*
X58400000Y-101350000D01*
D95*
X63400000Y-75950000D02*
X62500000Y-75950000D01*
D93*
X69550000Y-94350000D02*
X69400000Y-94200000D01*
D95*
X55600000Y-59600000D02*
X55600000Y-58550000D01*
X70250001Y-66800000D02*
X69794000Y-67256001D01*
D93*
X60000000Y-104400000D02*
X60000000Y-104000000D01*
D91*
X63900000Y-110000000D02*
X64250000Y-110000000D01*
D95*
X69800000Y-68700000D02*
X69800000Y-69700000D01*
D91*
X61000000Y-97200000D02*
X60800000Y-97000000D01*
D95*
X69800000Y-69700000D02*
X70500000Y-70400000D01*
D98*
X56000000Y-80290000D02*
X56000000Y-79764385D01*
D94*
X67700000Y-78450000D02*
X67700000Y-77950000D01*
D98*
X55225000Y-74200000D02*
X54400000Y-74200000D01*
D94*
X58200000Y-78150000D02*
X58200000Y-77500000D01*
D95*
X69150000Y-83950000D02*
X69150000Y-85150000D01*
X70550000Y-70400000D02*
X70550000Y-71800000D01*
X57350000Y-61400000D02*
X57350000Y-62250000D01*
D93*
X60000000Y-103600000D02*
X60000000Y-104000000D01*
D91*
X60600000Y-97200000D02*
X60800000Y-97000000D01*
D93*
X70250000Y-94350000D02*
X69550000Y-94350000D01*
D95*
X57400000Y-86300000D02*
X57400000Y-86850000D01*
D93*
X60000000Y-100900000D02*
X60000000Y-101350000D01*
X63200000Y-104400000D02*
X63200000Y-104000000D01*
D95*
X61675000Y-63075000D02*
X61675000Y-63225000D01*
D91*
X57825000Y-97200000D02*
X60600000Y-97200000D01*
X63400000Y-98000000D02*
X63150000Y-97750000D01*
D95*
X61530000Y-89165000D02*
X61530000Y-88470000D01*
D97*
X69200000Y-39200000D02*
X71000000Y-41000000D01*
D95*
X64970000Y-64395000D02*
X64555000Y-64395000D01*
X56700000Y-115900000D02*
X55600000Y-114800000D01*
D91*
X64250000Y-110000000D02*
X64500000Y-110250000D01*
X63775000Y-98000000D02*
X63400000Y-98000000D01*
D99*
X51796482Y-104303518D02*
X51500000Y-104600000D01*
D95*
X66800000Y-63050000D02*
X68000000Y-63050000D01*
D96*
X54340000Y-67750000D02*
X53814385Y-67750001D01*
D95*
X45235000Y-101950000D02*
X45210000Y-101925000D01*
X60400000Y-115900000D02*
X56700000Y-115900000D01*
X64225000Y-64375000D02*
X64400000Y-64550000D01*
X51050000Y-98300000D02*
X50600000Y-97850000D01*
X54600000Y-55550000D02*
X54600000Y-54950000D01*
D93*
X65250000Y-103250000D02*
X65250000Y-102050000D01*
D94*
X69800000Y-76950000D02*
X68800000Y-77950000D01*
D95*
X48800000Y-101950000D02*
X45235000Y-101950000D01*
X69250000Y-94050000D02*
X69400000Y-94200000D01*
D100*
X63400000Y-111200000D02*
X63800000Y-110800000D01*
D95*
X58250000Y-69600000D02*
X57550000Y-69600000D01*
D91*
X57825000Y-96000000D02*
X58200000Y-96000000D01*
D95*
X55600000Y-58550000D02*
X54850000Y-57800000D01*
D93*
X61000000Y-93900000D02*
X61000000Y-93450000D01*
D94*
X68800000Y-77950000D02*
X67700000Y-77950000D01*
D91*
X53328518Y-104171482D02*
X53025000Y-104475000D01*
D95*
X64600000Y-75950000D02*
X63400000Y-75950000D01*
D91*
X62250000Y-97750000D02*
X62000000Y-97500000D01*
D95*
X69794000Y-68694000D02*
X69800000Y-68700000D01*
X51050000Y-99400000D02*
X51050000Y-98300000D01*
D93*
X61800000Y-93900000D02*
X61800000Y-93450000D01*
D95*
X59050000Y-62400000D02*
X59100000Y-62350000D01*
D93*
X63200000Y-100900000D02*
X63200000Y-101350000D01*
D95*
X59050000Y-66800000D02*
X59050000Y-65600000D01*
D97*
X68400000Y-39200000D02*
X69200000Y-39200000D01*
D95*
X57250000Y-91200000D02*
X57850000Y-91200000D01*
D93*
X56425000Y-59600000D02*
X55600000Y-59600000D01*
X60200000Y-93900000D02*
X60200000Y-93450000D01*
D95*
X69150000Y-82750000D02*
X69150000Y-83950000D01*
D93*
X55150000Y-76650000D02*
X55300000Y-76800000D01*
D95*
X68950000Y-63050000D02*
X69100000Y-63200000D01*
X64555000Y-64395000D02*
X64400000Y-64550000D01*
X59050000Y-63200000D02*
X59050000Y-62950000D01*
D91*
X63150000Y-97750000D02*
X62250000Y-97750000D01*
D95*
X54600000Y-56350000D02*
X54600000Y-55550000D01*
X69794000Y-68000000D02*
X69794000Y-68694000D01*
X63125000Y-64375000D02*
X64225000Y-64375000D01*
D93*
X63200000Y-104000000D02*
X63200000Y-103600000D01*
D95*
X61700000Y-88300000D02*
X62150000Y-88300000D01*
D93*
X50600000Y-102025000D02*
X50600000Y-101200000D01*
D95*
X70500000Y-70400000D02*
X70550000Y-70400000D01*
D93*
X61600000Y-100900000D02*
X61600000Y-101350000D01*
D95*
X59050000Y-65600000D02*
X59050000Y-63200000D01*
D91*
X63900000Y-110000000D02*
X63900000Y-110700000D01*
D95*
X68000000Y-63050000D02*
X68950000Y-63050000D01*
D101*
X62000000Y-65400000D02*
X63000000Y-65400000D01*
X61675000Y-64375000D02*
X61675000Y-65075000D01*
X63900000Y-66300000D02*
X63000000Y-65400000D01*
X63900000Y-66850000D02*
X63900000Y-66300000D01*
X61675000Y-64375000D02*
X61675000Y-64325000D01*
X61675000Y-65075000D02*
X62000000Y-65400000D01*
X61675000Y-64325000D02*
X60550000Y-63200000D01*
X62331000Y-64731000D02*
X62331000Y-64019000D01*
X64400000Y-63050000D02*
X63300000Y-63050000D01*
X64400000Y-66850000D02*
X64400000Y-66000000D01*
X62331000Y-64019000D02*
X63125000Y-63225000D01*
X62600000Y-65000000D02*
X62331000Y-64731000D01*
X63400000Y-65000000D02*
X62600000Y-65000000D01*
X63300000Y-63050000D02*
X63125000Y-63225000D01*
X64400000Y-66000000D02*
X63400000Y-65000000D01*
X62770000Y-66220000D02*
X61620000Y-66220000D01*
X62900000Y-66350000D02*
X62770000Y-66220000D01*
X62900000Y-66850000D02*
X62900000Y-66350000D01*
X61000000Y-65600000D02*
X60550000Y-65600000D01*
X61620000Y-66220000D02*
X61000000Y-65600000D01*
D91*
X55335845Y-61400000D02*
X54581845Y-60646000D01*
X54581845Y-60646000D02*
X54517690Y-60646000D01*
X54344000Y-60472310D02*
X54344000Y-59981000D01*
X54517690Y-60646000D02*
X54344000Y-60472310D01*
X55850000Y-61400000D02*
X55335845Y-61400000D01*
X54344000Y-59981000D02*
X54775000Y-59550000D01*
D95*
X52550000Y-96800000D02*
X51530000Y-95780000D01*
D93*
X51800000Y-99800000D02*
X51800000Y-99950962D01*
X51800000Y-99950962D02*
X51375962Y-100375000D01*
D95*
X51530000Y-95780000D02*
X51530000Y-93500000D01*
X51800000Y-99800000D02*
X52200000Y-99400000D01*
D93*
X51375962Y-100375000D02*
X51250000Y-100375000D01*
D95*
X52200000Y-99400000D02*
X52550000Y-99400000D01*
X52550000Y-99400000D02*
X52550000Y-96800000D01*
X53000000Y-73500000D02*
X52350000Y-73500000D01*
D102*
X53575000Y-73550000D02*
X53050000Y-73550000D01*
D95*
X52350000Y-73500000D02*
X51450000Y-73500000D01*
X52350000Y-75400000D02*
X52350000Y-73500000D01*
X53050000Y-73550000D02*
X53000000Y-73500000D01*
X53600000Y-58400000D02*
X53600000Y-54050000D01*
X54600000Y-54050000D02*
X53800000Y-54050000D01*
X52000000Y-54050000D02*
X51450000Y-53500000D01*
D102*
X54150000Y-58950000D02*
X54000000Y-58800000D01*
X54775000Y-58950000D02*
X54150000Y-58950000D01*
D95*
X53800000Y-54050000D02*
X52000000Y-54050000D01*
X54000000Y-58800000D02*
X53600000Y-58400000D01*
D91*
X68225000Y-67575000D02*
X69000000Y-66800000D01*
X67700000Y-68100000D02*
X68225000Y-67575000D01*
D101*
X64250000Y-79700000D02*
X64250000Y-78437500D01*
D91*
X67150000Y-68100000D02*
X67700000Y-68100000D01*
D101*
X67550000Y-66900000D02*
X67087500Y-66900000D01*
D91*
X69000000Y-66800000D02*
X69050000Y-66800000D01*
X69050000Y-66800000D02*
X69350000Y-66800000D01*
D101*
X68225000Y-67575000D02*
X67550000Y-66900000D01*
D91*
X69350000Y-66800000D02*
X70550000Y-65600000D01*
X63400000Y-74450000D02*
X63400000Y-74400000D01*
X63400000Y-74400000D02*
X64400000Y-73400000D01*
X64400000Y-73400000D02*
X64400000Y-72350000D01*
D94*
X58600000Y-50850000D02*
X58350000Y-50600000D01*
X58350000Y-50600000D02*
X56600000Y-50600000D01*
X61290000Y-51400000D02*
X58950000Y-51400000D01*
X58600000Y-51050000D02*
X58600000Y-50850000D01*
D95*
X55650000Y-53000000D02*
X56050000Y-52600000D01*
D94*
X56050000Y-51150000D02*
X56050000Y-51510000D01*
X56600000Y-50600000D02*
X56050000Y-51150000D01*
X62090000Y-52200000D02*
X61290000Y-51400000D01*
X58950000Y-51400000D02*
X58600000Y-51050000D01*
D95*
X56050000Y-52600000D02*
X56050000Y-51510000D01*
D101*
X62799999Y-65800000D02*
X61800000Y-65800000D01*
X63400000Y-66400001D02*
X62799999Y-65800000D01*
X61200000Y-65050000D02*
X60550000Y-64400000D01*
X61800000Y-65800000D02*
X61200000Y-65200000D01*
X63400000Y-66850000D02*
X63400000Y-66400001D01*
X61200000Y-65200000D02*
X61200000Y-65050000D01*
D103*
X55565250Y-80506298D02*
X55793702Y-80734750D01*
X55565250Y-79584305D02*
X55565250Y-80506298D01*
X55821250Y-80734750D02*
X55821250Y-83650000D01*
X61650000Y-70100000D02*
X61340000Y-70100000D01*
X55600000Y-79549555D02*
X55565250Y-79584305D01*
X55600000Y-79044263D02*
X55600000Y-79310000D01*
X61340000Y-70100000D02*
X61268750Y-70171250D01*
X55793702Y-80734750D02*
X55821250Y-80734750D01*
X55600000Y-79310000D02*
X55600000Y-79549555D01*
X57978750Y-70371250D02*
X60034537Y-70371250D01*
X61268750Y-70171250D02*
X60465461Y-70171250D01*
X55733382Y-78786617D02*
X55687868Y-78832131D01*
X55821250Y-72528750D02*
X55821250Y-78574485D01*
X60141959Y-70305249D02*
X60105247Y-70341961D01*
X55821250Y-83650000D02*
X55650000Y-83650000D01*
X60105247Y-70341961D02*
G75*
G02*
X60034537Y-70371291I-70747J70661D01*
G01*
X55821250Y-72528750D02*
G75*
G02*
X57978750Y-70371250I2157500J0D01*
G01*
X60465461Y-70171250D02*
G75*
G03*
X60141989Y-70305279I39J-457450D01*
G01*
X55600000Y-79044263D02*
G75*
G02*
X55687886Y-78832149I300000J-37D01*
G01*
X55733382Y-78786617D02*
G75*
G03*
X55821254Y-78574485I-212082J212117D01*
G01*
X61650000Y-70600000D02*
X61340000Y-70600000D01*
X56178750Y-80734750D02*
X56178750Y-83812722D01*
X56266618Y-78786617D02*
X56312132Y-78832131D01*
X56003014Y-84236986D02*
X55770000Y-84470000D01*
X55770000Y-84470000D02*
X55650000Y-84350000D01*
X56434750Y-80506298D02*
X56206298Y-80734750D01*
X56206298Y-80734750D02*
X56178750Y-80734750D01*
X56178750Y-72528750D02*
X56178750Y-78574485D01*
X57978750Y-70728750D02*
X60034539Y-70728750D01*
X61268750Y-70528750D02*
X60465463Y-70528750D01*
X56400000Y-79310000D02*
X56400000Y-79549555D01*
X60394753Y-70558039D02*
X60358041Y-70594751D01*
X56434750Y-79584305D02*
X56434750Y-80506298D01*
X61340000Y-70600000D02*
X61268750Y-70528750D01*
X56400000Y-79044263D02*
X56400000Y-79310000D01*
X56400000Y-79549555D02*
X56434750Y-79584305D01*
X56312132Y-78832131D02*
G75*
G02*
X56400026Y-79044263I-212132J-212169D01*
G01*
X60358041Y-70594751D02*
G75*
G02*
X60034539Y-70728792I-323541J323451D01*
G01*
X56003014Y-84236986D02*
G75*
G03*
X56178780Y-83812722I-424214J424286D01*
G01*
X56266618Y-78786617D02*
G75*
G02*
X56178746Y-78574485I212082J212117D01*
G01*
X56178750Y-72528750D02*
G75*
G02*
X57978750Y-70728750I1800000J0D01*
G01*
X60465463Y-70528750D02*
G75*
G03*
X60394782Y-70558068I37J-99950D01*
G01*
D95*
X56600000Y-46800000D02*
X56600000Y-46350000D01*
D91*
X58894000Y-48056000D02*
X57506000Y-48056000D01*
X59000000Y-47950000D02*
X58894000Y-48056000D01*
D95*
X56850000Y-47050000D02*
X56600000Y-46800000D01*
D91*
X57506000Y-48056000D02*
X56850000Y-47400000D01*
X59450000Y-47950000D02*
X59000000Y-47950000D01*
D95*
X56850000Y-47400000D02*
X56850000Y-47050000D01*
D103*
X60978750Y-101413065D02*
X60978750Y-98796251D01*
X61000000Y-98775001D02*
X61000000Y-98475000D01*
X61200000Y-101800000D02*
X61095907Y-101695907D01*
X61200000Y-101900000D02*
X61200000Y-101800000D01*
X60978750Y-98796251D02*
X61000000Y-98775001D01*
X61095907Y-101695907D02*
G75*
G02*
X60978760Y-101413065I282793J282807D01*
G01*
X62700000Y-103000000D02*
X62800000Y-102900000D01*
X62700000Y-104400000D02*
X62700000Y-103000000D01*
X52613066Y-109839726D02*
X53945363Y-108507429D01*
X62700000Y-104775001D02*
X62700000Y-104400000D01*
X51691250Y-110178750D02*
X51794590Y-110178750D01*
X51601765Y-110178750D02*
X51691250Y-110178750D01*
X50500000Y-110350000D02*
X50617585Y-110232415D01*
X50617585Y-110232415D02*
X50717158Y-110331988D01*
X62628750Y-106071250D02*
X62628750Y-104846251D01*
X51282843Y-110331987D02*
X51318923Y-110295907D01*
X62628750Y-104846251D02*
X62700000Y-104775001D01*
X56066683Y-107628750D02*
X61071250Y-107628750D01*
X53945363Y-108507429D02*
G75*
G02*
X56066683Y-107628723I2121337J-2121271D01*
G01*
X61071250Y-107628750D02*
G75*
G03*
X62628750Y-106071250I50J1557450D01*
G01*
X51318923Y-110295907D02*
G75*
G02*
X51601765Y-110178711I282877J-282793D01*
G01*
X50717158Y-110331988D02*
G75*
G03*
X51282843Y-110331987I282842J282888D01*
G01*
X52613066Y-109839726D02*
G75*
G02*
X51794590Y-110178728I-818466J818526D01*
G01*
X60621250Y-101413065D02*
X60621250Y-98796251D01*
X60400000Y-101900000D02*
X60400000Y-101800000D01*
X60400000Y-101800000D02*
X60504093Y-101695907D01*
X60600000Y-98775001D02*
X60600000Y-98475000D01*
X60621250Y-98796251D02*
X60600000Y-98775001D01*
X60504093Y-101695907D02*
G75*
G03*
X60621240Y-101413065I-282793J282807D01*
G01*
X62271250Y-104846251D02*
X62200000Y-104775001D01*
X51601765Y-109821250D02*
X51656250Y-109821250D01*
X50500000Y-109650000D02*
X50617585Y-109767585D01*
X52360273Y-109586935D02*
X53692569Y-108254639D01*
X51656250Y-109821250D02*
X51794587Y-109821250D01*
X62199999Y-103099999D02*
X62000000Y-102900000D01*
X62200000Y-104400000D02*
X62199999Y-103099999D01*
X51282843Y-109668013D02*
X51318923Y-109704093D01*
X56066680Y-107271250D02*
X61071250Y-107271250D01*
X62271250Y-106071250D02*
X62271250Y-104846251D01*
X62200000Y-104775001D02*
X62200000Y-104400000D01*
X50617585Y-109767585D02*
X50717158Y-109668012D01*
X50717158Y-109668012D02*
G75*
G02*
X51282843Y-109668013I282842J-282888D01*
G01*
X53692569Y-108254639D02*
G75*
G02*
X56066680Y-107271221I2374131J-2374061D01*
G01*
X62271250Y-106071250D02*
G75*
G02*
X61071250Y-107271250I-1200050J50D01*
G01*
X51318923Y-109704093D02*
G75*
G03*
X51601765Y-109821289I282877J282793D01*
G01*
X52360273Y-109586935D02*
G75*
G02*
X51794587Y-109821256I-565673J565635D01*
G01*
X59778750Y-98596250D02*
X59800000Y-98575000D01*
X59778750Y-98693118D02*
X59778750Y-98596250D01*
X59600000Y-101900000D02*
X59600000Y-101800000D01*
X59600000Y-101800000D02*
X59495907Y-101695907D01*
X59378750Y-101413065D02*
X59378750Y-99572570D01*
X59800000Y-98575000D02*
X59800000Y-98475000D01*
X59554486Y-99148306D02*
X59615462Y-99087330D01*
X59378750Y-99572570D02*
G75*
G02*
X59554511Y-99148331I599950J-30D01*
G01*
X59378750Y-101413065D02*
G75*
G03*
X59495900Y-101695914I399950J-35D01*
G01*
X59778750Y-98693118D02*
G75*
G02*
X59615443Y-99087311I-557450J18D01*
G01*
X51209056Y-111828750D02*
X50111492Y-111828750D01*
X64200000Y-104400000D02*
X64200000Y-103100000D01*
X64200000Y-104775001D02*
X64128750Y-104846251D01*
X46490424Y-110278750D02*
X45331250Y-110278750D01*
X56940947Y-108978750D02*
X60771250Y-108978750D01*
X54607494Y-109945298D02*
X53795299Y-110757493D01*
X45331250Y-110278750D02*
X45110000Y-110500000D01*
X64200000Y-103100000D02*
X64400000Y-102900000D01*
X64200000Y-104400000D02*
X64200000Y-104775001D01*
X48343725Y-111096517D02*
X48258191Y-111010983D01*
X64128750Y-104846251D02*
X64128750Y-105621250D01*
X56940947Y-108978750D02*
G75*
G03*
X54607460Y-109945264I-47J-3300050D01*
G01*
X53795299Y-110757493D02*
G75*
G02*
X51209056Y-111828704I-2586199J2586293D01*
G01*
X64128750Y-105621250D02*
G75*
G02*
X60771250Y-108978750I-3357500J0D01*
G01*
X48258191Y-111010983D02*
G75*
G03*
X46490424Y-110278718I-1767791J-1767717D01*
G01*
X50111492Y-111828750D02*
G75*
G02*
X48343739Y-111096503I8J2499950D01*
G01*
X53542505Y-110504703D02*
X54354701Y-109692507D01*
X63771250Y-105621250D02*
X63771250Y-104846251D01*
X63771250Y-104846251D02*
X63700000Y-104775001D01*
X63700000Y-103000000D02*
X63600000Y-102900000D01*
X56940944Y-108621250D02*
X60771250Y-108621250D01*
X63700000Y-104400000D02*
X63700000Y-103000000D01*
X45331250Y-109921250D02*
X46638508Y-109921250D01*
X45110000Y-109700000D02*
X45331250Y-109921250D01*
X50259576Y-111471250D02*
X51209053Y-111471250D01*
X48406275Y-110653483D02*
X48491809Y-110739017D01*
X63700000Y-104775001D02*
X63700000Y-104400000D01*
X63771250Y-105621250D02*
G75*
G02*
X60771250Y-108621250I-3000000J0D01*
G01*
X51209053Y-111471250D02*
G75*
G03*
X53542518Y-110504716I47J3299950D01*
G01*
X54354701Y-109692507D02*
G75*
G02*
X56940944Y-108621296I2586199J-2586293D01*
G01*
X48491809Y-110739017D02*
G75*
G03*
X50259576Y-111471282I1767791J1767717D01*
G01*
X46638508Y-109921250D02*
G75*
G02*
X48406261Y-110653497I-8J-2499950D01*
G01*
X59301696Y-98895512D02*
X59362672Y-98834536D01*
X59421250Y-98596250D02*
X59400000Y-98575000D01*
X59021250Y-101413065D02*
X59021250Y-99572567D01*
X59400000Y-98575000D02*
X59400000Y-98475000D01*
X58800000Y-101900000D02*
X58800000Y-101800000D01*
X59421250Y-98693115D02*
X59421250Y-98596250D01*
X58800000Y-101800000D02*
X58904093Y-101695907D01*
X59021250Y-101413065D02*
G75*
G02*
X58904100Y-101695914I-399950J-35D01*
G01*
X59021250Y-99572567D02*
G75*
G02*
X59301723Y-98895539I957450J-33D01*
G01*
X59421250Y-98693115D02*
G75*
G02*
X59362675Y-98834539I-200050J15D01*
G01*
X61000000Y-104400000D02*
X61000000Y-103100000D01*
X45331250Y-105721250D02*
X45110000Y-105500000D01*
X60928750Y-104846251D02*
X60928750Y-106007533D01*
X49500000Y-105550000D02*
X49500000Y-105694997D01*
X60936283Y-106000000D02*
X60928750Y-106007533D01*
X61000000Y-104775001D02*
X60928750Y-104846251D01*
X49500000Y-105694997D02*
X49473747Y-105721250D01*
X61100000Y-106000000D02*
X60936283Y-106000000D01*
X49473747Y-105721250D02*
X45331250Y-105721250D01*
X61000000Y-104400000D02*
X61000000Y-104775001D01*
X61000000Y-103100000D02*
X61200000Y-102900000D01*
X62200000Y-98575000D02*
X62200000Y-98475000D01*
X62298304Y-98895512D02*
X62237328Y-98834536D01*
X62800000Y-101800000D02*
X62695907Y-101695907D01*
X62578750Y-101413065D02*
X62578750Y-99572567D01*
X62178750Y-98693115D02*
X62178750Y-98596250D01*
X62800000Y-101900000D02*
X62800000Y-101800000D01*
X62178750Y-98596250D02*
X62200000Y-98575000D01*
X62237328Y-98834536D02*
G75*
G02*
X62178754Y-98693115I141472J141436D01*
G01*
X62578750Y-99572567D02*
G75*
G03*
X62298277Y-98895539I-957450J-33D01*
G01*
X62578750Y-101413065D02*
G75*
G03*
X62695900Y-101695914I399950J-35D01*
G01*
X61821250Y-98693118D02*
X61821250Y-98596250D01*
X61821250Y-98596250D02*
X61800000Y-98575000D01*
X62000000Y-101800000D02*
X62104093Y-101695907D01*
X62045514Y-99148306D02*
X61984538Y-99087330D01*
X62221250Y-101413065D02*
X62221250Y-99572570D01*
X62000000Y-101900000D02*
X62000000Y-101800000D01*
X61800000Y-98575000D02*
X61800000Y-98475000D01*
X62221250Y-99572570D02*
G75*
G03*
X62045489Y-99148331I-599950J-30D01*
G01*
X62104093Y-101695907D02*
G75*
G03*
X62221240Y-101413065I-282793J282807D01*
G01*
X61821250Y-98693118D02*
G75*
G03*
X61984557Y-99087311I557450J18D01*
G01*
X49541301Y-106078750D02*
X45331250Y-106078750D01*
X50120000Y-105550000D02*
X50240000Y-105670000D01*
X60500000Y-104400000D02*
X60500000Y-104775001D01*
X60563717Y-106000000D02*
X60571250Y-106007533D01*
X60500000Y-103000000D02*
X60400000Y-102900000D01*
X60500000Y-104400000D02*
X60500000Y-103000000D01*
X45331250Y-106078750D02*
X45110000Y-106300000D01*
X50240000Y-105670000D02*
X50036275Y-105873725D01*
X60500000Y-104775001D02*
X60571250Y-104846251D01*
X60400000Y-106000000D02*
X60563717Y-106000000D01*
X60571250Y-104846251D02*
X60571250Y-106007533D01*
X49541301Y-106078750D02*
G75*
G03*
X50036264Y-105873714I-1J699950D01*
G01*
X59500000Y-104775001D02*
X59428750Y-104846251D01*
X59428750Y-105424769D02*
X59428750Y-105771250D01*
X59500000Y-103000000D02*
X59600000Y-102900000D01*
X58900000Y-106250000D02*
X59020000Y-106370000D01*
X59500000Y-104400000D02*
X59500000Y-104775001D01*
X59428750Y-105712722D02*
X59428750Y-104846251D01*
X59020000Y-106370000D02*
X59253014Y-106136986D01*
X59500000Y-104400000D02*
X59500000Y-103000000D01*
X59428750Y-104846251D02*
X59428750Y-105424769D01*
X59428750Y-105712722D02*
G75*
G02*
X59252993Y-106136965I-599950J22D01*
G01*
X64178750Y-101413065D02*
X64178750Y-99772567D01*
X63898304Y-99095512D02*
X63378750Y-98575958D01*
X64400000Y-101800000D02*
X64295907Y-101695907D01*
X63378750Y-98575958D02*
X63378750Y-98496250D01*
X64400000Y-101900000D02*
X64400000Y-101800000D01*
X63378750Y-98496250D02*
X63400000Y-98475000D01*
X64295907Y-101695907D02*
G75*
G02*
X64178760Y-101413065I282793J282807D01*
G01*
X63898304Y-99095512D02*
G75*
G02*
X64178758Y-99772567I-677104J-677088D01*
G01*
X63821250Y-101413065D02*
X63821250Y-99772570D01*
X63021250Y-98575961D02*
X63021250Y-98496250D01*
X63600000Y-101800000D02*
X63704093Y-101695907D01*
X63021250Y-98496250D02*
X63000000Y-98475000D01*
X63600000Y-101900000D02*
X63600000Y-101800000D01*
X63645514Y-99348306D02*
X63125959Y-98828751D01*
X63645514Y-99348306D02*
G75*
G02*
X63821286Y-99772570I-424214J-424294D01*
G01*
X63125959Y-98828751D02*
G75*
G02*
X63021263Y-98575961I252741J252751D01*
G01*
X63704093Y-101695907D02*
G75*
G03*
X63821240Y-101413065I-282793J282807D01*
G01*
X59000000Y-104775001D02*
X59071250Y-104846251D01*
X59071250Y-104846251D02*
X59071250Y-105640000D01*
X59071250Y-105640000D02*
X58900000Y-105640000D01*
X58999999Y-103099999D02*
X58800000Y-102900000D01*
X59000000Y-104400000D02*
X59000000Y-104775001D01*
X59000000Y-104400000D02*
X58999999Y-103099999D01*
X51085298Y-107861910D02*
X53431909Y-105515299D01*
X57148652Y-103248651D02*
X57148652Y-102066642D01*
X48600000Y-108301250D02*
X50024638Y-108301250D01*
X54745360Y-104971250D02*
X56821250Y-104971250D01*
X58221250Y-98496250D02*
X58200000Y-98475000D01*
X57200000Y-103815000D02*
X57200000Y-103690000D01*
X58221250Y-98575958D02*
X58221250Y-98496250D01*
X57421250Y-101462674D02*
X57421250Y-99772567D01*
X57421250Y-104371250D02*
X57421250Y-104201935D01*
X57701696Y-99095512D02*
X58221250Y-98575958D01*
X57304092Y-103919092D02*
X57200000Y-103815000D01*
X57148652Y-103638652D02*
X57148652Y-103248651D01*
X57265810Y-101783799D02*
X57304093Y-101745516D01*
X57200000Y-103690000D02*
X57148652Y-103638652D01*
X57421250Y-99772567D02*
G75*
G02*
X57701702Y-99095518I957550J-33D01*
G01*
X57304093Y-101745516D02*
G75*
G03*
X57421246Y-101462674I-282793J282816D01*
G01*
X57148652Y-102066642D02*
G75*
G02*
X57265779Y-101783768I400048J42D01*
G01*
X53431909Y-105515299D02*
G75*
G02*
X54745360Y-104971236I1313491J-1313501D01*
G01*
X57421250Y-104201935D02*
G75*
G03*
X57304099Y-103919085I-399950J35D01*
G01*
X50024638Y-108301250D02*
G75*
G03*
X51085290Y-107861902I-38J1500050D01*
G01*
X56821250Y-104971250D02*
G75*
G03*
X57421250Y-104371250I-50J600050D01*
G01*
X57778750Y-104371250D02*
X57778750Y-104201935D01*
X45110000Y-108850000D02*
X48534486Y-108850000D01*
X48974264Y-108658750D02*
X50024640Y-108658750D01*
X57954486Y-99348306D02*
X58474041Y-98828751D01*
X58578750Y-98496250D02*
X58600000Y-98475000D01*
X58000000Y-103690000D02*
X58050000Y-103640000D01*
X58050000Y-103640000D02*
X58050000Y-103249999D01*
X48746618Y-108762132D02*
X48762132Y-108746618D01*
X57895908Y-103919092D02*
X58000000Y-103815000D01*
X58578750Y-98575961D02*
X58578750Y-98496250D01*
X51338091Y-108114701D02*
X53684702Y-105768090D01*
X54745362Y-105328750D02*
X56821250Y-105328750D01*
X58000000Y-103815000D02*
X58000000Y-103690000D01*
X58050000Y-103249999D02*
X58050000Y-102076928D01*
X57778750Y-101474308D02*
X57778750Y-99772570D01*
X57932842Y-101794085D02*
X57895907Y-101757150D01*
X53684702Y-105768090D02*
G75*
G02*
X54745362Y-105328738I1060698J-1060710D01*
G01*
X56821250Y-105328750D02*
G75*
G03*
X57778750Y-104371250I50J957450D01*
G01*
X50024640Y-108658750D02*
G75*
G03*
X51338081Y-108114691I-40J1857550D01*
G01*
X58050000Y-102076928D02*
G75*
G03*
X57932856Y-101794071I-400000J28D01*
G01*
X57778750Y-99772570D02*
G75*
G02*
X57954511Y-99348331I599950J-30D01*
G01*
X57778750Y-104201935D02*
G75*
G02*
X57895901Y-103919085I399950J35D01*
G01*
X48534486Y-108850000D02*
G75*
G03*
X48746625Y-108762139I14J300000D01*
G01*
X58474041Y-98828751D02*
G75*
G03*
X58578737Y-98575961I-252741J252751D01*
G01*
X57895907Y-101757150D02*
G75*
G02*
X57778730Y-101474308I282793J282850D01*
G01*
X48974264Y-108658750D02*
G75*
G03*
X48762160Y-108746646I36J-299950D01*
G01*
X51954988Y-105567220D02*
X50365192Y-107157016D01*
X65550000Y-64700000D02*
X65721250Y-64700000D01*
X51998922Y-105458500D02*
X51998922Y-105461154D01*
X64971250Y-66239736D02*
X64971250Y-66468750D01*
X64971250Y-66468750D02*
X64900000Y-66540000D01*
X65574803Y-65280995D02*
X65222406Y-65633392D01*
X47995655Y-107642486D02*
X47888141Y-107750000D01*
X55571250Y-100071381D02*
X55400000Y-100071381D01*
X53470642Y-103463673D02*
X53421497Y-103463673D01*
X47703125Y-107821250D02*
X47781875Y-107900000D01*
X54130902Y-102927677D02*
X54195268Y-102927677D01*
X64900000Y-66540000D02*
X64900000Y-66850000D01*
X65721250Y-64700000D02*
X65721250Y-64927441D01*
X46479778Y-107821250D02*
X47703125Y-107821250D01*
X52473092Y-104774117D02*
X52147565Y-105099644D01*
X55571250Y-101261745D02*
X55571250Y-100071381D01*
X49658085Y-107449909D02*
X49178702Y-107449909D01*
X53738640Y-103195675D02*
X53918770Y-103015545D01*
X54445514Y-102801695D02*
X55278357Y-101968852D01*
X46010000Y-107600000D02*
X46055514Y-107645514D01*
X54407400Y-102839809D02*
X54445514Y-102801695D01*
X48460577Y-107449909D02*
X49178702Y-107449909D01*
X53421497Y-103463673D02*
X52707407Y-104177763D01*
X53738640Y-103195675D02*
X53470642Y-103463673D01*
X52590250Y-104460605D02*
X52590250Y-104491274D01*
X46055514Y-107645514D02*
G75*
G03*
X46479778Y-107821280I424286J424214D01*
G01*
X50365192Y-107157016D02*
G75*
G02*
X49658085Y-107449896I-707092J707116D01*
G01*
X55571250Y-101261745D02*
G75*
G02*
X55278324Y-101968819I-999950J45D01*
G01*
X52147565Y-105099644D02*
G75*
G03*
X51998916Y-105458500I358835J-358856D01*
G01*
X65721250Y-64927441D02*
G75*
G02*
X65574772Y-65280964I-499950J41D01*
G01*
X52707407Y-104177763D02*
G75*
G03*
X52590239Y-104460605I282793J-282837D01*
G01*
X65222406Y-65633392D02*
G75*
G03*
X64971261Y-66239736I606294J-606308D01*
G01*
X52590250Y-104491274D02*
G75*
G02*
X52473095Y-104774120I-399950J-26D01*
G01*
X54195268Y-102927677D02*
G75*
G03*
X54407411Y-102839820I32J299977D01*
G01*
X48460577Y-107449909D02*
G75*
G03*
X47995668Y-107642499I23J-657491D01*
G01*
X53918770Y-103015545D02*
G75*
G02*
X54130902Y-102927685I212130J-212155D01*
G01*
X51954988Y-105567220D02*
G75*
G03*
X51998883Y-105461154I-106088J106020D01*
G01*
X66078750Y-64585857D02*
X66078750Y-64927444D01*
X50617986Y-107409806D02*
X52207778Y-105820014D01*
X55928750Y-100071381D02*
X56100000Y-100071381D01*
X65328750Y-66239739D02*
X65328750Y-66468750D01*
X53008728Y-104909750D02*
X53039395Y-104909750D01*
X54572323Y-103369098D02*
X54572323Y-103304732D01*
X52400356Y-105352437D02*
X52725885Y-105026908D01*
X54036327Y-104029358D02*
X54304325Y-103761360D01*
X48709108Y-107807409D02*
X49658088Y-107807409D01*
X54698305Y-103054486D02*
X55531148Y-102221643D01*
X48017126Y-108250863D02*
X48284844Y-107983145D01*
X54304325Y-103761360D02*
X54484455Y-103581230D01*
X65670000Y-63970000D02*
X65932304Y-64232304D01*
X47508617Y-108237329D02*
X47522152Y-108250864D01*
X55928750Y-101261746D02*
X55928750Y-100071381D01*
X65827594Y-65533788D02*
X65475196Y-65886186D01*
X65400000Y-66540000D02*
X65400000Y-66850000D01*
X52356422Y-105461157D02*
X52356422Y-105458503D01*
X46010000Y-108400000D02*
X46055514Y-108354486D01*
X54036327Y-104078503D02*
X54036327Y-104029358D01*
X53322237Y-104792593D02*
X54036327Y-104078503D01*
X46479778Y-108178750D02*
X47367195Y-108178750D01*
X65328750Y-66468750D02*
X65400000Y-66540000D01*
X65550000Y-64090000D02*
X65670000Y-63970000D01*
X54660191Y-103092600D02*
X54698305Y-103054486D01*
X65932304Y-64232304D02*
G75*
G02*
X66078766Y-64585857I-353604J-353596D01*
G01*
X48017126Y-108250863D02*
G75*
G02*
X47522113Y-108250903I-247526J247463D01*
G01*
X52207778Y-105820014D02*
G75*
G03*
X52356385Y-105461157I-358878J358814D01*
G01*
X53039395Y-104909750D02*
G75*
G03*
X53322229Y-104792585I5J399950D01*
G01*
X55928750Y-101261746D02*
G75*
G02*
X55531115Y-102221610I-1357450J46D01*
G01*
X54484455Y-103581230D02*
G75*
G03*
X54572315Y-103369098I-212155J212130D01*
G01*
X66078750Y-64927444D02*
G75*
G02*
X65827562Y-65533756I-857450J44D01*
G01*
X47367195Y-108178750D02*
G75*
G02*
X47508609Y-108237337I5J-199950D01*
G01*
X52725885Y-105026908D02*
G75*
G02*
X53008728Y-104909755I282815J-282792D01*
G01*
X48709108Y-107807409D02*
G75*
G03*
X48284842Y-107983143I-8J-599991D01*
G01*
X65475196Y-65886186D02*
G75*
G03*
X65328792Y-66239739I353604J-353514D01*
G01*
X49658088Y-107807409D02*
G75*
G03*
X50617994Y-107409814I12J1357509D01*
G01*
X52356422Y-105458503D02*
G75*
G02*
X52400359Y-105352440I149978J3D01*
G01*
X54572323Y-103304732D02*
G75*
G02*
X54660180Y-103092589I299977J32D01*
G01*
X46055514Y-108354486D02*
G75*
G02*
X46479778Y-108178720I424286J-424214D01*
G01*
X65868226Y-105021250D02*
X65868226Y-104787000D01*
X67168750Y-105778750D02*
X66625726Y-105778750D01*
X57524999Y-98000000D02*
X57503749Y-97978750D01*
X57503749Y-97978750D02*
X56998987Y-97978750D01*
X65868226Y-104787000D02*
X65696976Y-104787000D01*
X57825000Y-98000000D02*
X57524999Y-98000000D01*
X67890000Y-105850000D02*
X67240000Y-105850000D01*
X56998987Y-97978750D02*
X56998987Y-98150000D01*
X67240000Y-105850000D02*
X67168750Y-105778750D01*
X66625726Y-105778750D02*
G75*
G02*
X65868150Y-105021250I-26J757550D01*
G01*
X64096251Y-96021250D02*
X64482690Y-96021250D01*
X64075001Y-96000000D02*
X64096251Y-96021250D01*
X67890000Y-108850000D02*
X66948528Y-108850000D01*
X64482690Y-96021250D02*
X64653940Y-95850000D01*
X66524264Y-108674264D02*
X66150000Y-108300000D01*
X66322150Y-108300000D02*
X66150000Y-108300000D01*
X63775000Y-96000000D02*
X64075001Y-96000000D01*
X66948528Y-108850000D02*
G75*
G02*
X66524250Y-108674278I-28J600000D01*
G01*
X57524999Y-97600000D02*
X57503749Y-97621250D01*
X66225726Y-104787000D02*
X66396976Y-104787000D01*
X67240000Y-105350000D02*
X67168750Y-105421250D01*
X57503749Y-97621250D02*
X56998987Y-97621250D01*
X67168750Y-105421250D02*
X66625726Y-105421250D01*
X57825000Y-97600000D02*
X57524999Y-97600000D01*
X56998987Y-97621250D02*
X56998987Y-97450000D01*
X66225726Y-105021250D02*
X66225726Y-104787000D01*
X67890000Y-105350000D02*
X67240000Y-105350000D01*
X66225726Y-105021250D02*
G75*
G03*
X66625726Y-105421274I399974J-50D01*
G01*
X64482690Y-96378750D02*
X64653940Y-96550000D01*
X66679650Y-108300000D02*
X66850000Y-108300000D01*
X66900000Y-108350000D02*
X66850000Y-108300000D01*
X64096251Y-96378750D02*
X64482690Y-96378750D01*
X64075001Y-96400000D02*
X64096251Y-96378750D01*
X63775000Y-96400000D02*
X64075001Y-96400000D01*
X67890000Y-108350000D02*
X66900000Y-108350000D01*
X62978750Y-95203749D02*
X62978750Y-94400000D01*
X67890000Y-106850000D02*
X67240000Y-106850000D01*
X65536401Y-106921250D02*
X65536401Y-106750000D01*
X62978750Y-94400000D02*
X63150000Y-94400000D01*
X63000000Y-95224999D02*
X62978750Y-95203749D01*
X63000000Y-95525000D02*
X63000000Y-95224999D01*
X67240000Y-106850000D02*
X67168750Y-106921250D01*
X67168750Y-106921250D02*
X65536401Y-106921250D01*
X62600000Y-95224999D02*
X62621250Y-95203749D01*
X67240000Y-107350000D02*
X67168750Y-107278750D01*
X67168750Y-107278750D02*
X65536401Y-107278750D01*
X65536401Y-107278750D02*
X65536401Y-107450000D01*
X62600000Y-95525000D02*
X62600000Y-95224999D01*
X62621250Y-95203749D02*
X62621250Y-94400000D01*
X62621250Y-94400000D02*
X62450000Y-94400000D01*
X67890000Y-107350000D02*
X67240000Y-107350000D01*
X54796986Y-87963014D02*
X55030000Y-87730000D01*
X59000000Y-95224999D02*
X59021250Y-95203749D01*
X54621250Y-90961747D02*
X54621250Y-88387278D01*
X56028355Y-92931147D02*
X55018852Y-91921644D01*
X55030000Y-87730000D02*
X55150000Y-87850000D01*
X59021250Y-95203749D02*
X59021250Y-94528750D01*
X59000000Y-95525000D02*
X59000000Y-95224999D01*
X57821250Y-93328750D02*
X56988253Y-93328750D01*
X54621250Y-88387278D02*
G75*
G02*
X54797007Y-87963035I599950J-22D01*
G01*
X56988253Y-93328750D02*
G75*
G02*
X56028368Y-92931134I47J1357550D01*
G01*
X57821250Y-93328750D02*
G75*
G02*
X59021250Y-94528750I-50J-1200050D01*
G01*
X54621250Y-90961747D02*
G75*
G03*
X55018886Y-91921610I1357450J47D01*
G01*
X57524999Y-96800000D02*
X57503749Y-96778750D01*
X57503749Y-96778750D02*
X56178750Y-96778750D01*
X54796986Y-93663014D02*
X55030000Y-93430000D01*
X55030000Y-93430000D02*
X55150000Y-93550000D01*
X57825000Y-96800000D02*
X57524999Y-96800000D01*
X54621250Y-95221250D02*
X54621250Y-94087278D01*
X54621250Y-95221250D02*
G75*
G03*
X56178750Y-96778750I1557500J0D01*
G01*
X54796986Y-93663014D02*
G75*
G03*
X54621220Y-94087278I424214J-424286D01*
G01*
X54978750Y-95221250D02*
X54978750Y-94250000D01*
X54978750Y-94250000D02*
X55150000Y-94250000D01*
X57503749Y-96421250D02*
X56178750Y-96421250D01*
X57825000Y-96400000D02*
X57524999Y-96400000D01*
X57524999Y-96400000D02*
X57503749Y-96421250D01*
X54978750Y-95221250D02*
G75*
G03*
X56178750Y-96421250I1200050J50D01*
G01*
X56281149Y-92678357D02*
X55271643Y-91668851D01*
X54978750Y-90961744D02*
X54978750Y-88550000D01*
X59400000Y-95525000D02*
X59400000Y-95224999D01*
X54978750Y-88550000D02*
X55150000Y-88550000D01*
X59400000Y-95224999D02*
X59378750Y-95203749D01*
X59378750Y-95203749D02*
X59378750Y-94528750D01*
X57821250Y-92971250D02*
X56988256Y-92971250D01*
X56281149Y-92678357D02*
G75*
G03*
X56988256Y-92971296I707151J707057D01*
G01*
X59378750Y-94528750D02*
G75*
G03*
X57821250Y-92971250I-1557450J50D01*
G01*
X55271643Y-91668851D02*
G75*
G02*
X54978704Y-90961744I707057J707151D01*
G01*
X50178750Y-69221250D02*
X50178750Y-68528750D01*
X53094263Y-68150000D02*
X53360000Y-68150000D01*
X53360000Y-68150000D02*
X53599554Y-68150000D01*
X50778750Y-67928750D02*
X52624485Y-67928750D01*
X56708065Y-68728750D02*
X60643993Y-68728750D01*
X61578750Y-69028750D02*
X61650000Y-69100000D01*
X50850000Y-69821250D02*
X50778750Y-69821250D01*
X60820770Y-68801974D02*
X60974323Y-68955527D01*
X53599554Y-68150000D02*
X53634305Y-68184751D01*
X54644165Y-68096883D02*
X54724430Y-68016618D01*
X54936562Y-67928750D02*
X55493851Y-67928750D01*
X55847405Y-68075197D02*
X56354512Y-68582304D01*
X61151099Y-69028750D02*
X61578750Y-69028750D01*
X53634305Y-68184751D02*
X54432033Y-68184751D01*
X51450000Y-69000000D02*
X51450000Y-69221250D01*
X52836617Y-68016618D02*
X52882131Y-68062132D01*
X54724430Y-68016618D02*
G75*
G02*
X54936562Y-67928709I212170J-212082D01*
G01*
X60643993Y-68728750D02*
G75*
G02*
X60820763Y-68801981I7J-249950D01*
G01*
X50778750Y-69821250D02*
G75*
G02*
X50178750Y-69221250I50J600050D01*
G01*
X50778750Y-67928750D02*
G75*
G03*
X50178750Y-68528750I50J-600050D01*
G01*
X56354512Y-68582304D02*
G75*
G03*
X56708065Y-68728760I353588J353604D01*
G01*
X54432033Y-68184751D02*
G75*
G03*
X54644138Y-68096856I-33J299951D01*
G01*
X52836617Y-68016618D02*
G75*
G03*
X52624485Y-67928746I-212117J-212082D01*
G01*
X60974323Y-68955527D02*
G75*
G03*
X61151099Y-69028765I176777J176727D01*
G01*
X50850000Y-69821250D02*
G75*
G03*
X51450050Y-69221250I0J600050D01*
G01*
X52882131Y-68062132D02*
G75*
G03*
X53094263Y-68150026I212169J212132D01*
G01*
X55493851Y-67928750D02*
G75*
G02*
X55847419Y-68075183I49J-499950D01*
G01*
X61299183Y-68671250D02*
X61578750Y-68671250D01*
X51450000Y-71000000D02*
X51450000Y-70778750D01*
X50778750Y-67571250D02*
X52624485Y-67571250D01*
X54936562Y-67571250D02*
X55641935Y-67571250D01*
X53360000Y-67350000D02*
X53599556Y-67350000D01*
X49821250Y-69221250D02*
X49821250Y-68528750D01*
X50850000Y-70178750D02*
X50778750Y-70178750D01*
X52836617Y-67483382D02*
X52882131Y-67437868D01*
X55995489Y-67717697D02*
X56502596Y-68224804D01*
X53634305Y-67315251D02*
X54432035Y-67315251D01*
X53094263Y-67350000D02*
X53360000Y-67350000D01*
X54644167Y-67403119D02*
X54724430Y-67483382D01*
X53599556Y-67350000D02*
X53634305Y-67315251D01*
X56856149Y-68371250D02*
X60792077Y-68371250D01*
X61578750Y-68671250D02*
X61650000Y-68600000D01*
X60968854Y-68444474D02*
X61122407Y-68598027D01*
X51450000Y-70778750D02*
G75*
G03*
X50850000Y-70178800I-600000J-50D01*
G01*
X60792077Y-68371250D02*
G75*
G02*
X60968855Y-68444473I23J-249950D01*
G01*
X49821250Y-68528750D02*
G75*
G02*
X50778750Y-67571250I957450J50D01*
G01*
X54432035Y-67315251D02*
G75*
G02*
X54644139Y-67403147I-35J-299949D01*
G01*
X52882131Y-67437868D02*
G75*
G02*
X53094263Y-67349974I212169J-212132D01*
G01*
X52836617Y-67483382D02*
G75*
G02*
X52624485Y-67571254I-212117J212082D01*
G01*
X49821250Y-69221250D02*
G75*
G03*
X50778750Y-70178750I957450J-50D01*
G01*
X56502596Y-68224804D02*
G75*
G03*
X56856149Y-68371201I353504J353604D01*
G01*
X54724430Y-67483382D02*
G75*
G03*
X54936562Y-67571291I212170J212082D01*
G01*
X55641935Y-67571250D02*
G75*
G02*
X55995461Y-67717725I-35J-499950D01*
G01*
X61122407Y-68598027D02*
G75*
G03*
X61299183Y-68671276I176793J176727D01*
G01*
X61578750Y-67671250D02*
X61650000Y-67600000D01*
X56434750Y-64684305D02*
X56434750Y-65482034D01*
X52878750Y-57545360D02*
X52878750Y-59179638D01*
X56400000Y-64649555D02*
X56434750Y-64684305D01*
X56178750Y-65986562D02*
X56178750Y-66194587D01*
X50668090Y-54565298D02*
X52334701Y-56231909D01*
X50228750Y-50778750D02*
X50228750Y-53504638D01*
X56413065Y-66760273D02*
X57089728Y-67436936D01*
X50850000Y-50178750D02*
X50828750Y-50178750D01*
X53318090Y-60240298D02*
X55839726Y-62761934D01*
X56266618Y-63886617D02*
X56312132Y-63932131D01*
X56400000Y-64410000D02*
X56400000Y-64649555D01*
X56178750Y-63580410D02*
X56178750Y-63674485D01*
X56400000Y-64144263D02*
X56400000Y-64410000D01*
X56346882Y-65694166D02*
X56266618Y-65774430D01*
X57655413Y-67671250D02*
X61578750Y-67671250D01*
X51450000Y-51000000D02*
X51450000Y-50778750D01*
X56312132Y-63932131D02*
G75*
G02*
X56400026Y-64144263I-212132J-212169D01*
G01*
X56178750Y-66194587D02*
G75*
G03*
X56413048Y-66760290I800050J-13D01*
G01*
X56266618Y-63886617D02*
G75*
G02*
X56178746Y-63674485I212082J212117D01*
G01*
X52334701Y-56231909D02*
G75*
G02*
X52878764Y-57545360I-1313501J-1313491D01*
G01*
X57089728Y-67436936D02*
G75*
G03*
X57655413Y-67671256I565672J565636D01*
G01*
X56266618Y-65774430D02*
G75*
G03*
X56178709Y-65986562I212082J-212170D01*
G01*
X53318090Y-60240298D02*
G75*
G02*
X52878738Y-59179638I1060710J1060698D01*
G01*
X50850000Y-50178750D02*
G75*
G02*
X51450050Y-50778750I0J-600050D01*
G01*
X56434750Y-65482034D02*
G75*
G02*
X56346855Y-65694139I-299950J34D01*
G01*
X50228750Y-50778750D02*
G75*
G02*
X50828750Y-50178750I600050J-50D01*
G01*
X50668090Y-54565298D02*
G75*
G02*
X50228738Y-53504638I1060710J1060698D01*
G01*
X55839726Y-62761934D02*
G75*
G02*
X56178728Y-63580410I-818526J-818466D01*
G01*
X56160274Y-67013066D02*
X56836934Y-67689726D01*
X57655410Y-68028750D02*
X61578750Y-68028750D01*
X52521250Y-57545362D02*
X52521250Y-59179640D01*
X55565250Y-64684305D02*
X55565250Y-65482034D01*
X55733382Y-63886617D02*
X55687868Y-63932131D01*
X55821250Y-65986562D02*
X55821250Y-66194590D01*
X50415299Y-54818091D02*
X52081910Y-56484702D01*
X55821250Y-63580413D02*
X55821250Y-63674485D01*
X55600000Y-64410000D02*
X55600000Y-64649555D01*
X50850000Y-49821250D02*
X50828750Y-49821250D01*
X61578750Y-68028750D02*
X61650000Y-68100000D01*
X55653118Y-65694166D02*
X55733382Y-65774430D01*
X55600000Y-64649555D02*
X55565250Y-64684305D01*
X51450000Y-49000000D02*
X51450000Y-49221250D01*
X53065299Y-60493091D02*
X55586936Y-63014728D01*
X49871250Y-50778750D02*
X49871250Y-53504640D01*
X55600000Y-64144263D02*
X55600000Y-64410000D01*
X52081910Y-56484702D02*
G75*
G02*
X52521262Y-57545362I-1060710J-1060698D01*
G01*
X55733382Y-65774430D02*
G75*
G02*
X55821291Y-65986562I-212082J-212170D01*
G01*
X49871250Y-50778750D02*
G75*
G02*
X50828750Y-49821250I957450J50D01*
G01*
X55565250Y-65482034D02*
G75*
G03*
X55653145Y-65694139I299950J34D01*
G01*
X56836934Y-67689726D02*
G75*
G03*
X57655410Y-68028728I818466J818526D01*
G01*
X55821250Y-63674485D02*
G75*
G02*
X55733379Y-63886614I-299950J-15D01*
G01*
X55687868Y-63932131D02*
G75*
G03*
X55599974Y-64144263I212132J-212169D01*
G01*
X55821250Y-63580413D02*
G75*
G03*
X55586932Y-63014732I-799950J13D01*
G01*
X53065299Y-60493091D02*
G75*
G02*
X52521236Y-59179640I1313501J1313491D01*
G01*
X50850000Y-49821250D02*
G75*
G03*
X51450050Y-49221250I0J600050D01*
G01*
X50415299Y-54818091D02*
G75*
G02*
X49871236Y-53504640I1313501J1313491D01*
G01*
X55821250Y-66194590D02*
G75*
G03*
X56160259Y-67013081I1157550J-10D01*
G01*
D91*
X70550000Y-64400000D02*
X70550000Y-63250000D01*
X70550000Y-63250000D02*
X70500000Y-63200000D01*
X70550000Y-69200000D02*
X70550000Y-68050000D01*
X70550000Y-68050000D02*
X70500000Y-68000000D01*
D95*
X67000000Y-54450000D02*
X67400000Y-54050000D01*
X67400000Y-54050000D02*
X67400000Y-53500000D01*
X60400000Y-114500000D02*
X60400000Y-113550000D01*
X67400000Y-49700000D02*
X67400000Y-48750000D01*
D102*
X55225000Y-73550000D02*
X55225000Y-72475000D01*
D94*
X69900000Y-75950000D02*
X70450000Y-75950000D01*
D95*
X54134458Y-101156000D02*
X54050000Y-101156000D01*
X54456000Y-100834458D02*
X54134458Y-101156000D01*
X55150000Y-70300000D02*
X55150000Y-69500000D01*
X54134458Y-99744000D02*
X54456000Y-100065542D01*
D94*
X65550000Y-77250000D02*
X68600000Y-77250000D01*
X68600000Y-77250000D02*
X69900000Y-75950000D01*
X61550000Y-76800000D02*
X65100000Y-76800000D01*
D99*
X51250000Y-102025000D02*
X52325000Y-102025000D01*
D94*
X54200000Y-52600000D02*
X55600000Y-54000000D01*
D95*
X55150000Y-71200000D02*
X55150000Y-70300000D01*
X52400000Y-101950000D02*
X53600000Y-101950000D01*
D94*
X65100000Y-76800000D02*
X65550000Y-77250000D01*
D95*
X54050000Y-84950000D02*
X54050000Y-99744000D01*
X55150000Y-71200000D02*
X55150000Y-72400000D01*
X54050000Y-101156000D02*
X54050000Y-101500000D01*
X54456000Y-100065542D02*
X54456000Y-100834458D01*
D102*
X55225000Y-72475000D02*
X55150000Y-72400000D01*
D95*
X54050000Y-84950000D02*
X54050000Y-84150000D01*
X54050000Y-99744000D02*
X54134458Y-99744000D01*
D101*
X64200000Y-111200000D02*
X64200000Y-113600000D01*
D95*
X54050000Y-101500000D02*
X53600000Y-101950000D01*
D101*
X64200000Y-113600000D02*
X64750000Y-113600000D01*
D99*
X52325000Y-102025000D02*
X52400000Y-101950000D01*
D91*
X57250000Y-87850000D02*
X57400000Y-87700000D01*
X57250000Y-88800000D02*
X57250000Y-87850000D01*
D101*
X66162500Y-79850000D02*
X66902080Y-79850000D01*
X67089080Y-80037000D02*
X68087000Y-80037000D01*
X68659864Y-80609864D02*
X68659864Y-85609864D01*
X69000000Y-85950000D02*
X69000000Y-87700000D01*
X68659864Y-85609864D02*
X69000000Y-85950000D01*
X66902080Y-79850000D02*
X67089080Y-80037000D01*
X67166401Y-89533599D02*
X67166401Y-98666400D01*
X68087000Y-80037000D02*
X68659864Y-80609864D01*
X69000000Y-87700000D02*
X67166401Y-89533599D01*
X67350001Y-98850000D02*
X67750000Y-98850000D01*
X67166401Y-98666400D02*
X67350001Y-98850000D01*
X67150000Y-101530860D02*
X67150000Y-99512038D01*
X67469140Y-101850000D02*
X67150000Y-101530860D01*
X66900000Y-80850000D02*
X66162500Y-80850000D01*
X67650000Y-101850000D02*
X67469140Y-101850000D01*
X68132487Y-85832487D02*
X68132487Y-80882487D01*
X67150000Y-99512038D02*
X66639000Y-99001037D01*
X68132487Y-80882487D02*
X67950000Y-80700000D01*
X68450000Y-86150000D02*
X68132487Y-85832487D01*
X66639000Y-99001037D02*
X66639000Y-89311000D01*
X68450000Y-87500000D02*
X68450000Y-86150000D01*
X67050000Y-80700000D02*
X66900000Y-80850000D01*
X66639000Y-89311000D02*
X68450000Y-87500000D01*
X67950000Y-80700000D02*
X67050000Y-80700000D01*
X71050000Y-76922488D02*
X70472488Y-77500000D01*
X65244000Y-79666882D02*
X65244000Y-80168999D01*
X71050000Y-62800000D02*
X71050000Y-76922488D01*
X66500000Y-52800000D02*
X67800000Y-52800000D01*
X67800000Y-52800000D02*
X68100000Y-53100000D01*
X67350001Y-99350000D02*
X67750000Y-99350000D01*
X68403864Y-85715903D02*
X68706000Y-86018038D01*
X65425001Y-80350000D02*
X66162500Y-80350000D01*
X68000000Y-80350000D02*
X68399000Y-80749000D01*
X68399000Y-85699000D02*
X68403864Y-85703864D01*
X66895000Y-89417038D02*
X66895000Y-98894999D01*
X67195118Y-79781000D02*
X66933118Y-79519000D01*
X68399000Y-80749000D02*
X68399000Y-85699000D01*
X66933118Y-79519000D02*
X65391882Y-79519000D01*
X66200000Y-53550000D02*
X66200000Y-53100000D01*
X68403864Y-85703864D02*
X68403864Y-85715903D01*
X68100000Y-59850000D02*
X71050000Y-62800000D01*
X70472488Y-77500000D02*
X70472488Y-78027512D01*
X65244000Y-80168999D02*
X65425001Y-80350000D01*
X68706000Y-87606038D02*
X66895000Y-89417038D01*
X68719000Y-79781000D02*
X67195118Y-79781000D01*
X68706000Y-86018038D02*
X68706000Y-87606038D01*
X68100000Y-53100000D02*
X68100000Y-59850000D01*
X66895000Y-98894999D02*
X67350001Y-99350000D01*
X70472488Y-78027512D02*
X68719000Y-79781000D01*
X65391882Y-79519000D02*
X65244000Y-79666882D01*
X66200000Y-53100000D02*
X66500000Y-52800000D01*
X66162500Y-80350000D02*
X68000000Y-80350000D01*
D91*
X66700000Y-66050000D02*
X67500000Y-66050000D01*
X66400000Y-66350000D02*
X66700000Y-66050000D01*
X66400000Y-66850000D02*
X66400000Y-66350000D01*
X69050000Y-64500000D02*
X69050000Y-64400000D01*
X67500000Y-66050000D02*
X69050000Y-64500000D01*
X69050000Y-69150000D02*
X69050000Y-69200000D01*
X67150000Y-68600000D02*
X68500000Y-68600000D01*
X68500000Y-68600000D02*
X69050000Y-69150000D01*
X69050000Y-69200000D02*
X69050000Y-70400000D01*
D101*
X67700000Y-78950000D02*
X65262500Y-78950000D01*
X65262500Y-78950000D02*
X64750000Y-78437500D01*
X56750000Y-85850000D02*
X57250000Y-85350000D01*
X57250000Y-85350000D02*
X57837500Y-85350000D01*
X56750000Y-91750000D02*
X56750000Y-85850000D01*
X61235000Y-92000000D02*
X57000000Y-92000000D01*
X57000000Y-92000000D02*
X56750000Y-91750000D01*
X62800000Y-90435000D02*
X61235000Y-92000000D01*
X56494000Y-85743961D02*
X56810000Y-85427962D01*
X56494000Y-91856038D02*
X56494000Y-85743961D01*
X62497038Y-91100000D02*
X61341038Y-92256000D01*
X61341038Y-92256000D02*
X56893962Y-92256000D01*
X57100001Y-84850000D02*
X57837500Y-84850000D01*
X56810000Y-85140001D02*
X57100001Y-84850000D01*
X63405000Y-91100000D02*
X62497038Y-91100000D01*
X56810000Y-85427962D02*
X56810000Y-85140001D01*
X64070000Y-90435000D02*
X63405000Y-91100000D01*
X56893962Y-92256000D02*
X56494000Y-91856038D01*
X57837500Y-81350000D02*
X58543990Y-81350000D01*
X52805003Y-103000000D02*
X52805003Y-103094997D01*
X52805003Y-103004524D02*
X52805003Y-103000000D01*
X58543990Y-81350000D02*
X59021995Y-81828005D01*
X49745000Y-107005000D02*
X51386360Y-105363640D01*
X51386360Y-105363640D02*
X51386360Y-105279325D01*
X52300000Y-103509527D02*
X52805003Y-103004524D01*
X51470675Y-105279325D02*
X52300000Y-104450000D01*
X57837500Y-81850000D02*
X59000000Y-81850000D01*
X48708659Y-107005000D02*
X49745000Y-107005000D01*
X59000000Y-81850000D02*
X59021995Y-81828005D01*
X52300000Y-104450000D02*
X52300000Y-103509527D01*
X48672500Y-107041159D02*
X48708659Y-107005000D01*
X51386360Y-105279325D02*
X51470675Y-105279325D01*
D95*
X59800000Y-112050000D02*
X59400000Y-111650000D01*
D101*
X63800000Y-111200000D02*
X63800000Y-113600000D01*
D95*
X59400000Y-111650000D02*
X59400000Y-110400000D01*
D101*
X63800000Y-113600000D02*
X63250000Y-113600000D01*
D95*
X60400000Y-112050000D02*
X59800000Y-112050000D01*
D101*
X52071799Y-103378201D02*
X52071799Y-103375689D01*
X48369171Y-106600000D02*
X49750000Y-106600000D01*
X48368171Y-106599000D02*
X48369171Y-106600000D01*
X50820675Y-105529325D02*
X50820675Y-104713640D01*
X48366415Y-106599000D02*
X48368171Y-106599000D01*
X59025000Y-82825000D02*
X59500000Y-82350000D01*
X52071799Y-103375689D02*
X52200000Y-103247489D01*
X58500000Y-83350000D02*
X57837500Y-83350000D01*
X59500000Y-82350000D02*
X59500000Y-81697484D01*
X52200000Y-103247489D02*
X52200000Y-103000000D01*
X50820675Y-104713640D02*
X50820675Y-104629325D01*
X49750000Y-106600000D02*
X50820675Y-105529325D01*
X45110000Y-107150000D02*
X47815415Y-107150000D01*
X58652516Y-80850000D02*
X57837500Y-80850000D01*
X50820675Y-104629325D02*
X52071799Y-103378201D01*
X47815415Y-107150000D02*
X48366415Y-106599000D01*
X59025000Y-82825000D02*
X58500000Y-83350000D01*
X59500000Y-81697484D02*
X58652516Y-80850000D01*
D95*
X66200000Y-52050000D02*
X65810000Y-52050000D01*
X65810000Y-52050000D02*
X64710000Y-53150000D01*
D94*
X60400000Y-76800000D02*
X60050000Y-76800000D01*
X61250000Y-77650000D02*
X60400000Y-76800000D01*
X58350000Y-76800000D02*
X58200000Y-76650000D01*
X60050000Y-76800000D02*
X58350000Y-76800000D01*
X61250000Y-78437500D02*
X61250000Y-77650000D01*
D101*
X65450000Y-97250000D02*
X65000000Y-97250000D01*
D104*
X65054976Y-106075412D02*
X64513233Y-106617155D01*
X66024000Y-101624000D02*
X66024000Y-103377048D01*
D101*
X64253070Y-97250000D02*
X63903070Y-97600000D01*
X68569000Y-69569000D02*
X68569000Y-70969000D01*
D104*
X64600000Y-100200000D02*
X66024000Y-101624000D01*
D101*
X68150000Y-74600000D02*
X67650000Y-74600000D01*
X67150000Y-69100000D02*
X68100000Y-69100000D01*
X66325000Y-96375000D02*
X65731000Y-96969000D01*
X59100000Y-80300000D02*
X58650000Y-79850000D01*
X69341262Y-71169000D02*
X69600000Y-71427738D01*
X66750000Y-76650000D02*
X66845000Y-76650000D01*
D104*
X66024000Y-103377048D02*
X65050000Y-104351048D01*
X63266000Y-109314388D02*
X63266000Y-110534000D01*
D101*
X68100000Y-69100000D02*
X68569000Y-69569000D01*
X65731000Y-96978527D02*
X65478527Y-97231000D01*
X69150000Y-73600000D02*
X68150000Y-74600000D01*
X65000000Y-97250000D02*
X64253070Y-97250000D01*
D104*
X65000000Y-97250000D02*
X64600000Y-97250000D01*
D101*
X67731000Y-74681000D02*
X67650000Y-74600000D01*
X65300000Y-91251000D02*
X65300000Y-91600000D01*
D104*
X62650000Y-109500000D02*
X63266000Y-109500000D01*
D101*
X66845000Y-76650000D02*
X66945000Y-76750000D01*
X65300000Y-91600000D02*
X66325000Y-92625000D01*
X69600000Y-72464764D02*
X69150000Y-72914764D01*
X63903070Y-97600000D02*
X63775000Y-97600000D01*
X67731000Y-76241262D02*
X67731000Y-74681000D01*
D104*
X61600000Y-110400000D02*
X61750000Y-110400000D01*
X65050000Y-104351048D02*
X65054976Y-104356024D01*
D101*
X65469000Y-97231000D02*
X65450000Y-97250000D01*
X65731000Y-96969000D02*
X65731000Y-96978527D01*
X66325000Y-92625000D02*
X66325000Y-96375000D01*
X68769000Y-71169000D02*
X69341262Y-71169000D01*
X58650000Y-79850000D02*
X57837500Y-79850000D01*
X65478527Y-97231000D02*
X65469000Y-97231000D01*
X66945000Y-76750000D02*
X67222262Y-76750000D01*
D104*
X64358000Y-108222388D02*
X63266000Y-109314388D01*
D101*
X68569000Y-70969000D02*
X68769000Y-71169000D01*
D104*
X61750000Y-110400000D02*
X62650000Y-109500000D01*
X63266000Y-110534000D02*
X63000000Y-110800000D01*
D101*
X67222262Y-76750000D02*
X67731000Y-76241262D01*
X69150000Y-72914764D02*
X69150000Y-73600000D01*
X69600000Y-71427738D02*
X69600000Y-72464764D01*
D104*
X64600000Y-97250000D02*
X64600000Y-100200000D01*
X64358000Y-106991921D02*
X64358000Y-108222388D01*
X65054976Y-104356024D02*
X65054976Y-106075412D01*
X64513233Y-106617155D02*
G75*
G03*
X64358015Y-106991921I374767J-374745D01*
G01*
X63510000Y-109500000D02*
X63510000Y-110690000D01*
X65000000Y-100250000D02*
X66250000Y-101500000D01*
D101*
X59600000Y-81000000D02*
X59170000Y-81000000D01*
D104*
X64584000Y-108316000D02*
X63510000Y-109390000D01*
D101*
X65300000Y-96800000D02*
X65110000Y-96990000D01*
X66065000Y-96035000D02*
X65300000Y-96800000D01*
D104*
X64584000Y-106990264D02*
X64584000Y-108316000D01*
X65050000Y-109500000D02*
X63510000Y-109500000D01*
D101*
X59170000Y-81000000D02*
X58520000Y-80350000D01*
X67169000Y-74158738D02*
X67169000Y-75719000D01*
X67919000Y-70419001D02*
X67919000Y-73408738D01*
X65110000Y-96990000D02*
X64165000Y-96990000D01*
D104*
X65017769Y-97680000D02*
X65000000Y-97697769D01*
D101*
X63975000Y-96800000D02*
X63775000Y-96800000D01*
X67919000Y-73408738D02*
X67169000Y-74158738D01*
D104*
X65250000Y-109300000D02*
X65050000Y-109500000D01*
X65000000Y-97697769D02*
X65000000Y-100250000D01*
D101*
X67150000Y-70100000D02*
X67599999Y-70100000D01*
X58520000Y-80350000D02*
X57837500Y-80350000D01*
D104*
X65280976Y-104470711D02*
X65280976Y-106169024D01*
X66250000Y-103501687D02*
X65280976Y-104470711D01*
D101*
X67169000Y-75719000D02*
X67250000Y-75800000D01*
X65900000Y-76650000D02*
X66100000Y-76650000D01*
D104*
X63510000Y-109390000D02*
X63510000Y-109500000D01*
X65280976Y-106169024D02*
X64671868Y-106778132D01*
X66250000Y-101500000D02*
X66250000Y-103501687D01*
D101*
X66950000Y-75800000D02*
X67250000Y-75800000D01*
X64165000Y-96990000D02*
X63975000Y-96800000D01*
X67599999Y-70100000D02*
X67919000Y-70419001D01*
X66100000Y-76650000D02*
X66950000Y-75800000D01*
D104*
X63510000Y-110690000D02*
X63400000Y-110800000D01*
D101*
X64750000Y-91500000D02*
X66065000Y-92815000D01*
X66065000Y-92815000D02*
X66065000Y-96035000D01*
X64750000Y-90800000D02*
X64750000Y-91500000D01*
D104*
X64671868Y-106778132D02*
G75*
G03*
X64583975Y-106990264I212132J-212168D01*
G01*
D101*
X58750000Y-88300000D02*
X58750000Y-88800000D01*
X59250000Y-87800000D02*
X58750000Y-88300000D01*
X59250000Y-86762500D02*
X59250000Y-87800000D01*
D91*
X53144000Y-75494000D02*
X53650000Y-76000000D01*
X53575000Y-74150000D02*
X53144000Y-74581000D01*
X53144000Y-74581000D02*
X53144000Y-75494000D01*
X50138882Y-99394000D02*
X49556001Y-99394000D01*
X50650000Y-100375000D02*
X50406000Y-100131000D01*
X50406000Y-99661118D02*
X50138882Y-99394000D01*
X49556001Y-99394000D02*
X48800000Y-100150001D01*
X48800000Y-100150001D02*
X48800000Y-100450000D01*
X50406000Y-100131000D02*
X50406000Y-99661118D01*
D101*
X59066882Y-85844000D02*
X59568999Y-85844000D01*
X58269000Y-89519000D02*
X58269000Y-86641882D01*
X59750000Y-86025001D02*
X59750000Y-86762500D01*
X59568999Y-85844000D02*
X59750000Y-86025001D01*
X58269000Y-86641882D02*
X59066882Y-85844000D01*
X58750000Y-90000000D02*
X58269000Y-89519000D01*
X59400000Y-90550000D02*
X58750000Y-91200000D01*
X60250000Y-87500000D02*
X59400000Y-88350000D01*
X59400000Y-88350000D02*
X59400000Y-90550000D01*
X60250000Y-86762500D02*
X60250000Y-87500000D01*
D103*
X61340000Y-71600000D02*
X61650000Y-71600000D01*
X59015001Y-84278750D02*
X59621250Y-84278750D01*
X58260275Y-78871250D02*
X57978750Y-78871250D01*
X58986174Y-79283382D02*
X58795908Y-79093116D01*
X60778750Y-83121250D02*
X60778750Y-80528750D01*
X61268750Y-71528750D02*
X61340000Y-71600000D01*
X57478750Y-78371250D02*
X57478750Y-72528750D01*
X57837500Y-84350000D02*
X58943751Y-84350000D01*
X58478750Y-71528750D02*
X61268750Y-71528750D01*
X59621250Y-79371250D02*
X59198306Y-79371250D01*
X58943751Y-84350000D02*
X59015001Y-84278750D01*
X57978750Y-78871250D02*
G75*
G02*
X57478750Y-78371250I50J500050D01*
G01*
X60778750Y-80528750D02*
G75*
G03*
X59621250Y-79371250I-1157550J-50D01*
G01*
X58795908Y-79093116D02*
G75*
G03*
X58260275Y-78871282I-535608J-535684D01*
G01*
X57478750Y-72528750D02*
G75*
G02*
X58478750Y-71528750I999950J50D01*
G01*
X59198306Y-79371250D02*
G75*
G02*
X58986181Y-79283375I-6J299950D01*
G01*
X59621250Y-84278750D02*
G75*
G03*
X60778750Y-83121250I-50J1157550D01*
G01*
X57837500Y-83850000D02*
X58943751Y-83850000D01*
X58943751Y-83850000D02*
X59015001Y-83921250D01*
X59015001Y-83921250D02*
X59621250Y-83921250D01*
X61268750Y-71171250D02*
X61340000Y-71100000D01*
X59621250Y-79728750D02*
X59198303Y-79728750D01*
X58260273Y-79228750D02*
X57978750Y-79228750D01*
X60421250Y-83121250D02*
X60421250Y-80528750D01*
X58478750Y-71171250D02*
X61268750Y-71171250D01*
X61340000Y-71100000D02*
X61650000Y-71100000D01*
X58733380Y-79536172D02*
X58543115Y-79345907D01*
X57121250Y-78371250D02*
X57121250Y-72528750D01*
X57121250Y-72528750D02*
G75*
G02*
X58478750Y-71171250I1357550J-50D01*
G01*
X58543115Y-79345907D02*
G75*
G03*
X58260273Y-79228755I-282815J-282793D01*
G01*
X60421250Y-80528750D02*
G75*
G03*
X59621250Y-79728750I-800050J-50D01*
G01*
X59621250Y-83921250D02*
G75*
G03*
X60421250Y-83121250I-50J800050D01*
G01*
X59198303Y-79728750D02*
G75*
G02*
X58733389Y-79536163I-3J657450D01*
G01*
X57978750Y-79228750D02*
G75*
G02*
X57121250Y-78371250I50J857550D01*
G01*
D101*
X57621000Y-60621000D02*
X58000000Y-61000000D01*
X54775000Y-60250000D02*
X55146000Y-60621000D01*
X63900000Y-73100000D02*
X63900000Y-72350000D01*
X55146000Y-60621000D02*
X57621000Y-60621000D01*
X63400000Y-73600000D02*
X63900000Y-73100000D01*
X58250000Y-60250000D02*
X58400000Y-60400000D01*
X56425000Y-60250000D02*
X58250000Y-60250000D01*
X63400000Y-72799999D02*
X63400000Y-72350000D01*
X61600000Y-73400000D02*
X62799999Y-73400000D01*
X62799999Y-73400000D02*
X63400000Y-72799999D01*
X65900000Y-73300000D02*
X66000000Y-73400000D01*
X54413000Y-75688000D02*
X53575000Y-74850000D01*
X55387500Y-78300000D02*
X54413000Y-77325500D01*
X65900000Y-72350000D02*
X65900000Y-73300000D01*
X54413000Y-77325500D02*
X54413000Y-75688000D01*
X65400000Y-72350000D02*
X65400000Y-73600000D01*
X54669000Y-75406000D02*
X55225000Y-74850000D01*
X55387500Y-77691889D02*
X54669000Y-76973389D01*
X54669000Y-76973389D02*
X54669000Y-75406000D01*
X49950000Y-102025000D02*
X49950000Y-102650000D01*
X66400000Y-72350000D02*
X66600000Y-72550000D01*
X66600000Y-72550000D02*
X66600000Y-73800000D01*
X67000000Y-72200000D02*
X67150000Y-72050000D01*
X67150000Y-72050000D02*
X67150000Y-71600000D01*
X49950000Y-100375000D02*
X49950000Y-99850000D01*
G04 #@! TA.AperFunction,Conductor*
G36*
X66429129Y-110002381D02*
G01*
X66469505Y-110010412D01*
X66477204Y-110013601D01*
X66482364Y-110013694D01*
X66514198Y-110028924D01*
X66514202Y-110028927D01*
X66548425Y-110051794D01*
X66567215Y-110067215D01*
X67282784Y-110782784D01*
X67298206Y-110801575D01*
X67321072Y-110835797D01*
X67339572Y-110880425D01*
X67339821Y-110881673D01*
X67341621Y-110918084D01*
X67340032Y-110934217D01*
X67340032Y-110934225D01*
X67339500Y-110945053D01*
X67339500Y-112587789D01*
X67339865Y-112595233D01*
X67340032Y-112598622D01*
X67341621Y-112614756D01*
X67341584Y-112615495D01*
X67341724Y-112615850D01*
X67339836Y-112651093D01*
X67339588Y-112652340D01*
X67321070Y-112697046D01*
X67305121Y-112720914D01*
X67270913Y-112755122D01*
X67247043Y-112771072D01*
X67202344Y-112789588D01*
X67185841Y-112792870D01*
X67161978Y-112797617D01*
X67137789Y-112800000D01*
X66145054Y-112800000D01*
X66120863Y-112797617D01*
X66080498Y-112789588D01*
X66035798Y-112771073D01*
X66001574Y-112748205D01*
X65982784Y-112732784D01*
X65267215Y-112017215D01*
X65251794Y-111998425D01*
X65228926Y-111964201D01*
X65225735Y-111956497D01*
X65222151Y-111952783D01*
X65210413Y-111919507D01*
X65202381Y-111879129D01*
X65200000Y-111854946D01*
X65200000Y-110212210D01*
X65202381Y-110188029D01*
X65210412Y-110147651D01*
X65228927Y-110102956D01*
X65244877Y-110079086D01*
X65250769Y-110073193D01*
X65252829Y-110068462D01*
X65279086Y-110044877D01*
X65302956Y-110028927D01*
X65347653Y-110010412D01*
X65388027Y-110002381D01*
X65412211Y-110000000D01*
X66404946Y-110000000D01*
X66429129Y-110002381D01*
G37*
G04 #@! TD.AperFunction*
G04 #@! TA.AperFunction,Conductor*
G36*
X61568267Y-47250221D02*
G01*
X61591647Y-47254871D01*
X61641451Y-47264777D01*
X61645595Y-47266494D01*
X61707635Y-47307948D01*
X61709378Y-47309378D01*
X62500000Y-48100000D01*
X66498867Y-48100000D01*
X66501110Y-48100221D01*
X66524490Y-48104871D01*
X66574294Y-48114777D01*
X66578438Y-48116494D01*
X66639518Y-48157308D01*
X66642691Y-48160481D01*
X66683505Y-48221561D01*
X66685222Y-48225706D01*
X66699779Y-48298888D01*
X66700000Y-48301132D01*
X66700000Y-50098867D01*
X66699779Y-50101111D01*
X66685222Y-50174293D01*
X66683505Y-50178438D01*
X66642691Y-50239518D01*
X66639518Y-50242691D01*
X66578438Y-50283505D01*
X66574293Y-50285222D01*
X66501111Y-50299779D01*
X66498867Y-50300000D01*
X57533976Y-50300000D01*
X57531732Y-50299779D01*
X57458549Y-50285222D01*
X57454404Y-50283505D01*
X57392364Y-50242051D01*
X57390621Y-50240621D01*
X56709378Y-49559378D01*
X56707948Y-49557635D01*
X56666494Y-49495595D01*
X56664777Y-49491449D01*
X56650221Y-49418267D01*
X56650000Y-49416024D01*
X56650000Y-48401132D01*
X56650221Y-48398889D01*
X56650456Y-48397703D01*
X56664778Y-48325704D01*
X56666492Y-48321564D01*
X56707308Y-48260480D01*
X56710481Y-48257308D01*
X56771564Y-48216492D01*
X56775704Y-48214778D01*
X56833068Y-48203368D01*
X56848890Y-48200221D01*
X56851133Y-48200000D01*
X57354615Y-48200000D01*
X57362747Y-48203368D01*
X57389594Y-48230215D01*
X57433838Y-48248541D01*
X57465123Y-48261500D01*
X57465124Y-48261500D01*
X58934876Y-48261500D01*
X58934877Y-48261500D01*
X58966162Y-48248541D01*
X59010406Y-48230215D01*
X59037252Y-48203367D01*
X59045384Y-48200000D01*
X59087868Y-48200000D01*
X59090111Y-48200221D01*
X59116652Y-48205500D01*
X59116653Y-48205500D01*
X59783347Y-48205500D01*
X59783348Y-48205500D01*
X59809889Y-48200221D01*
X59812132Y-48200000D01*
X59949999Y-48200000D01*
X59950000Y-48200000D01*
X59950000Y-48001132D01*
X59950221Y-47998889D01*
X59950456Y-47997703D01*
X59964778Y-47925704D01*
X59966492Y-47921564D01*
X60007308Y-47860480D01*
X60010481Y-47857308D01*
X60071564Y-47816492D01*
X60075704Y-47814778D01*
X60130949Y-47803789D01*
X60148890Y-47800221D01*
X60151133Y-47800000D01*
X60749999Y-47800000D01*
X60750000Y-47800000D01*
X60750000Y-47451132D01*
X60750221Y-47448889D01*
X60750456Y-47447703D01*
X60764778Y-47375704D01*
X60766492Y-47371564D01*
X60807308Y-47310480D01*
X60810481Y-47307308D01*
X60871564Y-47266492D01*
X60875704Y-47264778D01*
X60930949Y-47253789D01*
X60948890Y-47250221D01*
X60951133Y-47250000D01*
X61566024Y-47250000D01*
X61568267Y-47250221D01*
G37*
G04 #@! TD.AperFunction*
G04 #@! TA.AperFunction,Conductor*
G36*
X67565677Y-50469685D02*
G01*
X67586319Y-50486319D01*
X67853468Y-50753468D01*
X67886953Y-50814791D01*
X67889787Y-50841134D01*
X67889965Y-52358655D01*
X67881324Y-52388093D01*
X67874801Y-52418091D01*
X67871049Y-52423102D01*
X67870288Y-52425697D01*
X67853651Y-52446346D01*
X67836323Y-52463676D01*
X67775002Y-52497165D01*
X67748637Y-52500000D01*
X67051362Y-52500000D01*
X66984323Y-52480315D01*
X66963681Y-52463681D01*
X66936319Y-52436319D01*
X66902834Y-52374996D01*
X66900000Y-52348638D01*
X66900000Y-51850000D01*
X66650000Y-51600000D01*
X65600000Y-51600000D01*
X65599999Y-51600000D01*
X64586319Y-52613681D01*
X64524996Y-52647166D01*
X64498638Y-52650000D01*
X64199999Y-52650000D01*
X63950000Y-52899999D01*
X63950000Y-52900000D01*
X63950000Y-53400000D01*
X64150000Y-53600000D01*
X65248638Y-53600000D01*
X65315677Y-53619685D01*
X65336319Y-53636319D01*
X65850000Y-54150000D01*
X66126000Y-54150000D01*
X66193039Y-54169685D01*
X66238794Y-54222489D01*
X66250000Y-54274000D01*
X66250000Y-54626000D01*
X66230315Y-54693039D01*
X66177511Y-54738794D01*
X66126000Y-54750000D01*
X65101362Y-54750000D01*
X65034323Y-54730315D01*
X65013681Y-54713681D01*
X64750000Y-54450000D01*
X60800000Y-54450000D01*
X60799999Y-54450000D01*
X60486319Y-54763681D01*
X60424996Y-54797166D01*
X60398638Y-54800000D01*
X59474000Y-54800000D01*
X59406961Y-54780315D01*
X59361206Y-54727511D01*
X59350000Y-54676000D01*
X59350000Y-53040322D01*
X59356004Y-53019874D01*
X59357231Y-52998597D01*
X59368536Y-52977194D01*
X59369685Y-52973283D01*
X59373698Y-52967414D01*
X59460904Y-52847506D01*
X59473483Y-52832785D01*
X59560919Y-52745350D01*
X59568201Y-52737317D01*
X59570062Y-52735050D01*
X59583596Y-52718560D01*
X59583608Y-52718543D01*
X59583622Y-52718527D01*
X59590082Y-52709816D01*
X59612950Y-52675592D01*
X59623162Y-52656487D01*
X59641677Y-52611787D01*
X59642285Y-52609780D01*
X59642674Y-52608998D01*
X59642705Y-52608914D01*
X59642715Y-52608917D01*
X59660662Y-52572839D01*
X59750000Y-52450000D01*
X59750000Y-51901362D01*
X59758644Y-51871921D01*
X59765168Y-51841935D01*
X59768922Y-51836919D01*
X59769685Y-51834323D01*
X59786319Y-51813681D01*
X59863681Y-51736319D01*
X59925004Y-51702834D01*
X59951362Y-51700000D01*
X61098638Y-51700000D01*
X61165677Y-51719685D01*
X61186319Y-51736319D01*
X61313681Y-51863681D01*
X61347166Y-51925004D01*
X61350000Y-51951362D01*
X61350000Y-52500000D01*
X61550000Y-52700000D01*
X62600000Y-52700000D01*
X62900000Y-52400000D01*
X62900000Y-52000000D01*
X62600000Y-51700000D01*
X62101362Y-51700000D01*
X62034323Y-51680315D01*
X62013681Y-51663681D01*
X61450000Y-51100000D01*
X59074000Y-51100000D01*
X59006961Y-51080315D01*
X58961206Y-51027511D01*
X58950000Y-50976000D01*
X58950000Y-50574000D01*
X58969685Y-50506961D01*
X59022489Y-50461206D01*
X59074000Y-50450000D01*
X67498638Y-50450000D01*
X67565677Y-50469685D01*
G37*
G04 #@! TD.AperFunction*
G04 #@! TA.AperFunction,Conductor*
G36*
X69798271Y-38503368D02*
G01*
X69801639Y-38511500D01*
X69798271Y-38519632D01*
X69795130Y-38521859D01*
X69665012Y-38584522D01*
X69665008Y-38584524D01*
X69665005Y-38584525D01*
X69517621Y-38677133D01*
X69508944Y-38678608D01*
X69505753Y-38677355D01*
X69433718Y-38635766D01*
X69433716Y-38635765D01*
X69433714Y-38635764D01*
X69433710Y-38635763D01*
X69433708Y-38635762D01*
X69279716Y-38594500D01*
X68479716Y-38594500D01*
X67320284Y-38594500D01*
X67166291Y-38635762D01*
X67166281Y-38635766D01*
X67028214Y-38715478D01*
X66915478Y-38828214D01*
X66835766Y-38966281D01*
X66835762Y-38966291D01*
X66794500Y-39120284D01*
X66794500Y-39279715D01*
X66827524Y-39402965D01*
X66835764Y-39433714D01*
X66915479Y-39571786D01*
X67028214Y-39684521D01*
X67166286Y-39764236D01*
X67320284Y-39805500D01*
X68320284Y-39805500D01*
X68498564Y-39805500D01*
X68506696Y-39808868D01*
X68510064Y-39817000D01*
X68508925Y-39821990D01*
X68450239Y-39943851D01*
X68450237Y-39943854D01*
X68348019Y-40235980D01*
X68320686Y-40355734D01*
X68279152Y-40537709D01*
X68244500Y-40845254D01*
X68244500Y-41154746D01*
X68279152Y-41462291D01*
X68332164Y-41694554D01*
X68348019Y-41764019D01*
X68450237Y-42056145D01*
X68450238Y-42056146D01*
X68584522Y-42334988D01*
X68584524Y-42334991D01*
X68584525Y-42334994D01*
X68749175Y-42597034D01*
X68942145Y-42839011D01*
X69160988Y-43057854D01*
X69402965Y-43250824D01*
X69665005Y-43415474D01*
X69665006Y-43415474D01*
X69665012Y-43415478D01*
X69943854Y-43549762D01*
X70235978Y-43651980D01*
X70537709Y-43720848D01*
X70845254Y-43755500D01*
X70845255Y-43755500D01*
X71154745Y-43755500D01*
X71154746Y-43755500D01*
X71462291Y-43720848D01*
X71764022Y-43651980D01*
X72056146Y-43549762D01*
X72334988Y-43415478D01*
X72407455Y-43369943D01*
X72597034Y-43250824D01*
X72597037Y-43250821D01*
X72597041Y-43250819D01*
X72839011Y-43057855D01*
X73057855Y-42839011D01*
X73250819Y-42597041D01*
X73250821Y-42597037D01*
X73250824Y-42597034D01*
X73415474Y-42334994D01*
X73415473Y-42334994D01*
X73415478Y-42334988D01*
X73478139Y-42204870D01*
X73484702Y-42199006D01*
X73493490Y-42199500D01*
X73499355Y-42206063D01*
X73500000Y-42209861D01*
X73500000Y-97298867D01*
X73499779Y-97301111D01*
X73485222Y-97374293D01*
X73483505Y-97378438D01*
X73442691Y-97439518D01*
X73439518Y-97442691D01*
X73378438Y-97483505D01*
X73374293Y-97485222D01*
X73301111Y-97499779D01*
X73298867Y-97500000D01*
X67551133Y-97500000D01*
X67548889Y-97499779D01*
X67475706Y-97485222D01*
X67471561Y-97483505D01*
X67410481Y-97442691D01*
X67407308Y-97439518D01*
X67366494Y-97378438D01*
X67364777Y-97374294D01*
X67350221Y-97301110D01*
X67350000Y-97298867D01*
X67350000Y-95901132D01*
X67350221Y-95898889D01*
X67350456Y-95897703D01*
X67364778Y-95825704D01*
X67366492Y-95821564D01*
X67407308Y-95760480D01*
X67410481Y-95757308D01*
X67471564Y-95716492D01*
X67475704Y-95714778D01*
X67530949Y-95703789D01*
X67548890Y-95700221D01*
X67551133Y-95700000D01*
X68549998Y-95700000D01*
X68550000Y-95700000D01*
X69591132Y-94658868D01*
X69599264Y-94655500D01*
X70606296Y-94655500D01*
X70606298Y-94655500D01*
X70654575Y-94645897D01*
X70709319Y-94609319D01*
X70745897Y-94554575D01*
X70755500Y-94506298D01*
X70755500Y-94193702D01*
X70745897Y-94145425D01*
X70709319Y-94090681D01*
X70709317Y-94090679D01*
X70654576Y-94054104D01*
X70654577Y-94054104D01*
X70654575Y-94054103D01*
X70654573Y-94054102D01*
X70654572Y-94054102D01*
X70623340Y-94047890D01*
X70606298Y-94044500D01*
X70606296Y-94044500D01*
X69785093Y-94044500D01*
X69776961Y-94041132D01*
X69775134Y-94038750D01*
X69724481Y-93951017D01*
X69658868Y-93885404D01*
X69655500Y-93877272D01*
X69655500Y-90745695D01*
X69655499Y-90745681D01*
X69655499Y-90474834D01*
X69649724Y-90445800D01*
X69640676Y-90400309D01*
X69619943Y-90369279D01*
X69601938Y-90342331D01*
X69600000Y-90335942D01*
X69600000Y-81883975D01*
X69600221Y-81881732D01*
X69600456Y-81880546D01*
X69614778Y-81808547D01*
X69616492Y-81804407D01*
X69657952Y-81742358D01*
X69659373Y-81740626D01*
X70691421Y-80708579D01*
X70750000Y-80650000D01*
X70750000Y-77633975D01*
X70750221Y-77631732D01*
X70750456Y-77630546D01*
X70764778Y-77558547D01*
X70766492Y-77554407D01*
X70807952Y-77492358D01*
X70809373Y-77490626D01*
X71141421Y-77158579D01*
X71200000Y-77100000D01*
X71200000Y-77032518D01*
X71202736Y-77025909D01*
X71202390Y-77025678D01*
X71203019Y-77024735D01*
X71203021Y-77024733D01*
X71219807Y-76984206D01*
X71230500Y-76958392D01*
X71230500Y-62764096D01*
X71214521Y-62725519D01*
X71203021Y-62697755D01*
X71203019Y-62697753D01*
X71203019Y-62697752D01*
X71202390Y-62696810D01*
X71202736Y-62696578D01*
X71200000Y-62689970D01*
X71200000Y-62650001D01*
X71200000Y-62650000D01*
X68409378Y-59859378D01*
X68407948Y-59857635D01*
X68366494Y-59795595D01*
X68364777Y-59791449D01*
X68350221Y-59718267D01*
X68350000Y-59716024D01*
X68350000Y-53050001D01*
X68350000Y-53050000D01*
X68059876Y-52759876D01*
X68058446Y-52758133D01*
X68016997Y-52696104D01*
X68015281Y-52691962D01*
X68000717Y-52618781D01*
X68000497Y-52616552D01*
X68000016Y-48532835D01*
X68000016Y-48531501D01*
X68000014Y-48531495D01*
X68000006Y-48450006D01*
X67850000Y-48300000D01*
X67849999Y-48300000D01*
X67083976Y-48300000D01*
X67081732Y-48299779D01*
X67008549Y-48285222D01*
X67004404Y-48283505D01*
X66942364Y-48242051D01*
X66940621Y-48240621D01*
X66909378Y-48209378D01*
X66907948Y-48207635D01*
X66866494Y-48145595D01*
X66864777Y-48141449D01*
X66850221Y-48068267D01*
X66850000Y-48066024D01*
X66850000Y-45500000D01*
X66849999Y-45499999D01*
X66708899Y-45376537D01*
X66506554Y-45199485D01*
X66450000Y-45150000D01*
X66449999Y-45150000D01*
X63933976Y-45150000D01*
X63931732Y-45149779D01*
X63858549Y-45135222D01*
X63854404Y-45133505D01*
X63792364Y-45092051D01*
X63790621Y-45090621D01*
X63709378Y-45009378D01*
X63707948Y-45007635D01*
X63666494Y-44945595D01*
X63664777Y-44941449D01*
X63650221Y-44868267D01*
X63650000Y-44866024D01*
X63650000Y-43650001D01*
X63650000Y-43650000D01*
X63550000Y-43550000D01*
X63549999Y-43550000D01*
X62200000Y-43550000D01*
X62050000Y-43700000D01*
X62050000Y-44198867D01*
X62049779Y-44201111D01*
X62035222Y-44274293D01*
X62033505Y-44278438D01*
X61992691Y-44339518D01*
X61989518Y-44342691D01*
X61928438Y-44383505D01*
X61924293Y-44385222D01*
X61851111Y-44399779D01*
X61848867Y-44400000D01*
X58550000Y-44400000D01*
X58300000Y-44650000D01*
X58300000Y-45298867D01*
X58299779Y-45301111D01*
X58285222Y-45374293D01*
X58283505Y-45378438D01*
X58242691Y-45439518D01*
X58239518Y-45442691D01*
X58178438Y-45483505D01*
X58174293Y-45485222D01*
X58101111Y-45499779D01*
X58098867Y-45500000D01*
X56351133Y-45500000D01*
X56348889Y-45499779D01*
X56275706Y-45485222D01*
X56271561Y-45483505D01*
X56210481Y-45442691D01*
X56207308Y-45439518D01*
X56166494Y-45378438D01*
X56164777Y-45374294D01*
X56150221Y-45301110D01*
X56150000Y-45298867D01*
X56150000Y-43710000D01*
X56153368Y-43701868D01*
X56158940Y-43698788D01*
X56364022Y-43651980D01*
X56656146Y-43549762D01*
X56934988Y-43415478D01*
X57007455Y-43369943D01*
X57197034Y-43250824D01*
X57197037Y-43250821D01*
X57197041Y-43250819D01*
X57439011Y-43057855D01*
X57657855Y-42839011D01*
X57850819Y-42597041D01*
X57850821Y-42597037D01*
X57850824Y-42597034D01*
X58015474Y-42334994D01*
X58015473Y-42334994D01*
X58015478Y-42334988D01*
X58149762Y-42056146D01*
X58251980Y-41764022D01*
X58320848Y-41462291D01*
X58355500Y-41154746D01*
X58355500Y-40845254D01*
X58320848Y-40537709D01*
X58251980Y-40235978D01*
X58149762Y-39943854D01*
X58015478Y-39665012D01*
X57997206Y-39635932D01*
X57850824Y-39402965D01*
X57657854Y-39160988D01*
X57439011Y-38942145D01*
X57197034Y-38749175D01*
X56934994Y-38584525D01*
X56934991Y-38584524D01*
X56934988Y-38584522D01*
X56804870Y-38521860D01*
X56799006Y-38515298D01*
X56799500Y-38506510D01*
X56806063Y-38500645D01*
X56809861Y-38500000D01*
X69790139Y-38500000D01*
X69798271Y-38503368D01*
G37*
G04 #@! TD.AperFunction*
G04 #@! TA.AperFunction,Conductor*
G36*
X58312587Y-55853373D02*
G01*
X58349375Y-55863230D01*
X58393757Y-55888853D01*
X58411146Y-55906242D01*
X58436768Y-55950621D01*
X58446626Y-55987409D01*
X58450000Y-56013034D01*
X58450000Y-56057405D01*
X58448097Y-56076720D01*
X58438616Y-56124381D01*
X58423835Y-56160067D01*
X58396840Y-56200468D01*
X58384528Y-56215470D01*
X58250000Y-56349999D01*
X58250000Y-56707405D01*
X58248097Y-56726720D01*
X58238616Y-56774381D01*
X58223835Y-56810067D01*
X58196840Y-56850468D01*
X58184528Y-56865471D01*
X57665471Y-57384528D01*
X57650468Y-57396840D01*
X57610067Y-57423835D01*
X57574381Y-57438616D01*
X57526720Y-57448097D01*
X57507405Y-57450000D01*
X57159752Y-57450000D01*
X57140438Y-57448098D01*
X57124470Y-57444921D01*
X57092775Y-57438617D01*
X57092773Y-57438616D01*
X57057089Y-57423835D01*
X57056330Y-57423328D01*
X57024949Y-57402359D01*
X56997640Y-57375050D01*
X56976163Y-57342908D01*
X56961382Y-57307222D01*
X56951902Y-57259561D01*
X56950000Y-57240248D01*
X56950000Y-56759751D01*
X56951902Y-56740438D01*
X56956533Y-56717157D01*
X56961382Y-56692775D01*
X56976162Y-56657092D01*
X56997642Y-56624946D01*
X57024946Y-56597642D01*
X57057092Y-56576162D01*
X57092775Y-56561382D01*
X57118021Y-56556360D01*
X57140439Y-56551902D01*
X57159752Y-56550000D01*
X57599999Y-56550000D01*
X57600000Y-56550000D01*
X57850000Y-56300000D01*
X57850000Y-56059751D01*
X57851902Y-56040438D01*
X57857353Y-56013034D01*
X57861382Y-55992775D01*
X57876162Y-55957092D01*
X57897642Y-55924946D01*
X57924946Y-55897642D01*
X57957092Y-55876162D01*
X57992775Y-55861382D01*
X58033043Y-55853373D01*
X58040439Y-55851902D01*
X58059752Y-55850000D01*
X58286965Y-55850000D01*
X58312587Y-55853373D01*
G37*
G04 #@! TD.AperFunction*
G04 #@! TA.AperFunction,Conductor*
G36*
X59074294Y-53014777D02*
G01*
X59078438Y-53016494D01*
X59139518Y-53057308D01*
X59142691Y-53060481D01*
X59183505Y-53121561D01*
X59185222Y-53125706D01*
X59199779Y-53198888D01*
X59200000Y-53201132D01*
X59200000Y-54850000D01*
X59300000Y-54950000D01*
X60417157Y-54950000D01*
X60499998Y-54950000D01*
X60500000Y-54950000D01*
X60790626Y-54659373D01*
X60792358Y-54657952D01*
X60854407Y-54616492D01*
X60858547Y-54614778D01*
X60913792Y-54603789D01*
X60931733Y-54600221D01*
X60933976Y-54600000D01*
X62548867Y-54600000D01*
X62551110Y-54600221D01*
X62574490Y-54604871D01*
X62624294Y-54614777D01*
X62628438Y-54616494D01*
X62689518Y-54657308D01*
X62692691Y-54660481D01*
X62733505Y-54721561D01*
X62735222Y-54725706D01*
X62749779Y-54798888D01*
X62750000Y-54801132D01*
X62750000Y-58283000D01*
X62746632Y-58291132D01*
X62738500Y-58294500D01*
X62696615Y-58294500D01*
X62593488Y-58322132D01*
X62593478Y-58322136D01*
X62501017Y-58375518D01*
X62425518Y-58451017D01*
X62372136Y-58543478D01*
X62372132Y-58543488D01*
X62345877Y-58641476D01*
X62340519Y-58648459D01*
X62334769Y-58650000D01*
X61917135Y-58650000D01*
X61909003Y-58646632D01*
X61907178Y-58644253D01*
X61904501Y-58639616D01*
X61810384Y-58545499D01*
X61810383Y-58545498D01*
X61695120Y-58478951D01*
X61695118Y-58478950D01*
X61695116Y-58478949D01*
X61695112Y-58478948D01*
X61695110Y-58478947D01*
X61566550Y-58444500D01*
X61433450Y-58444500D01*
X61304889Y-58478947D01*
X61304879Y-58478951D01*
X61189616Y-58545498D01*
X61095500Y-58639614D01*
X61095499Y-58639616D01*
X61092823Y-58644250D01*
X61085842Y-58649608D01*
X61082865Y-58650000D01*
X59401133Y-58650000D01*
X59398889Y-58649779D01*
X59325706Y-58635222D01*
X59321561Y-58633505D01*
X59260481Y-58592691D01*
X59257308Y-58589518D01*
X59227894Y-58545498D01*
X59216493Y-58528437D01*
X59214777Y-58524292D01*
X59200221Y-58451110D01*
X59200000Y-58448867D01*
X59200000Y-57501132D01*
X59200221Y-57498889D01*
X59200456Y-57497703D01*
X59214778Y-57425704D01*
X59216492Y-57421564D01*
X59257308Y-57360480D01*
X59260481Y-57357308D01*
X59321564Y-57316492D01*
X59325704Y-57314778D01*
X59380949Y-57303789D01*
X59398890Y-57300221D01*
X59401133Y-57300000D01*
X60199998Y-57300000D01*
X60200000Y-57300000D01*
X60400000Y-57100000D01*
X60400000Y-55450000D01*
X60200000Y-55250000D01*
X60199999Y-55250000D01*
X58971844Y-55250000D01*
X58969600Y-55249779D01*
X58907626Y-55237451D01*
X58903481Y-55235734D01*
X58851902Y-55201270D01*
X58848729Y-55198097D01*
X58814265Y-55146518D01*
X58812549Y-55142375D01*
X58800221Y-55080400D01*
X58800000Y-55078156D01*
X58800000Y-53201132D01*
X58800221Y-53198889D01*
X58800456Y-53197703D01*
X58814778Y-53125704D01*
X58816492Y-53121564D01*
X58857308Y-53060480D01*
X58860481Y-53057308D01*
X58921564Y-53016492D01*
X58925704Y-53014778D01*
X58997758Y-53000446D01*
X59002242Y-53000446D01*
X59074294Y-53014777D01*
G37*
G04 #@! TD.AperFunction*
G04 #@! TA.AperFunction,Conductor*
G36*
X63415756Y-43700221D02*
G01*
X63445066Y-43706050D01*
X63449210Y-43707767D01*
X63473097Y-43723729D01*
X63476270Y-43726902D01*
X63492232Y-43750789D01*
X63493949Y-43754934D01*
X63499779Y-43784242D01*
X63500000Y-43786486D01*
X63500000Y-45050000D01*
X63750000Y-45300000D01*
X66266024Y-45300000D01*
X66268267Y-45300221D01*
X66291647Y-45304871D01*
X66341451Y-45314777D01*
X66345595Y-45316494D01*
X66407635Y-45357948D01*
X66409378Y-45359378D01*
X66591132Y-45541132D01*
X66594500Y-45549264D01*
X66594500Y-45553385D01*
X66595067Y-45555500D01*
X66622132Y-45656511D01*
X66622136Y-45656521D01*
X66675518Y-45748982D01*
X66696632Y-45770096D01*
X66700000Y-45778228D01*
X66700000Y-47748867D01*
X66699779Y-47751111D01*
X66685222Y-47824293D01*
X66683505Y-47828438D01*
X66642691Y-47889518D01*
X66639518Y-47892691D01*
X66578438Y-47933505D01*
X66574293Y-47935222D01*
X66501111Y-47949779D01*
X66498867Y-47950000D01*
X62633976Y-47950000D01*
X62631732Y-47949779D01*
X62558549Y-47935222D01*
X62554404Y-47933505D01*
X62492364Y-47892051D01*
X62490621Y-47890621D01*
X61758579Y-47158579D01*
X61700000Y-47100000D01*
X61699999Y-47100000D01*
X60951133Y-47100000D01*
X60948889Y-47099779D01*
X60875706Y-47085222D01*
X60871561Y-47083505D01*
X60810481Y-47042691D01*
X60807308Y-47039518D01*
X60766494Y-46978438D01*
X60764777Y-46974292D01*
X60750221Y-46901110D01*
X60750000Y-46898867D01*
X60750000Y-46683975D01*
X60750221Y-46681732D01*
X60750456Y-46680546D01*
X60764778Y-46608547D01*
X60766492Y-46604407D01*
X60807952Y-46542358D01*
X60809373Y-46540626D01*
X61827931Y-45522068D01*
X61829651Y-45520657D01*
X61884206Y-45484206D01*
X61920657Y-45429651D01*
X61922068Y-45427931D01*
X62141421Y-45208579D01*
X62200000Y-45150000D01*
X62200000Y-43871843D01*
X62200221Y-43869599D01*
X62212549Y-43807622D01*
X62214263Y-43803484D01*
X62248729Y-43751901D01*
X62251902Y-43748729D01*
X62303484Y-43714263D01*
X62307624Y-43712549D01*
X62354602Y-43703204D01*
X62369601Y-43700221D01*
X62371844Y-43700000D01*
X63413513Y-43700000D01*
X63415756Y-43700221D01*
G37*
G04 #@! TD.AperFunction*
G04 #@! TA.AperFunction,Conductor*
G36*
X66861971Y-101652381D02*
G01*
X66902346Y-101660412D01*
X66947043Y-101678927D01*
X66970913Y-101694877D01*
X66976805Y-101700769D01*
X66981537Y-101702829D01*
X67005122Y-101729086D01*
X67021072Y-101752956D01*
X67039588Y-101797655D01*
X67047617Y-101838020D01*
X67050000Y-101862210D01*
X67050000Y-103700000D01*
X68067157Y-103700000D01*
X68150000Y-103700000D01*
X68582789Y-103267210D01*
X68601567Y-103251799D01*
X68635802Y-103228924D01*
X68680494Y-103210412D01*
X68720869Y-103202381D01*
X68745054Y-103200000D01*
X73287789Y-103200000D01*
X73311971Y-103202381D01*
X73352346Y-103210412D01*
X73360046Y-103213601D01*
X73365206Y-103213694D01*
X73397043Y-103228927D01*
X73420913Y-103244877D01*
X73455122Y-103279086D01*
X73471072Y-103302956D01*
X73489588Y-103347655D01*
X73497617Y-103388022D01*
X73500000Y-103412210D01*
X73500000Y-110185929D01*
X73497579Y-110210313D01*
X73489424Y-110250974D01*
X73470622Y-110295964D01*
X73447419Y-110330339D01*
X73431771Y-110349195D01*
X71518026Y-112239060D01*
X71456494Y-112272159D01*
X71417013Y-112274050D01*
X71154750Y-112244500D01*
X71154746Y-112244500D01*
X70845254Y-112244500D01*
X70845249Y-112244500D01*
X70537721Y-112279150D01*
X70537705Y-112279152D01*
X70235978Y-112348019D01*
X70235966Y-112348023D01*
X69943850Y-112450239D01*
X69665014Y-112584520D01*
X69402956Y-112749182D01*
X69402952Y-112749185D01*
X69373156Y-112772947D01*
X69308470Y-112799356D01*
X69295844Y-112800000D01*
X67662211Y-112800000D01*
X67638020Y-112797617D01*
X67622744Y-112794578D01*
X67597656Y-112789588D01*
X67552956Y-112771072D01*
X67529086Y-112755122D01*
X67494877Y-112720913D01*
X67478927Y-112697043D01*
X67460412Y-112652346D01*
X67452381Y-112611971D01*
X67450000Y-112587789D01*
X67450000Y-111006300D01*
X69744499Y-111006300D01*
X69754102Y-111054575D01*
X69790680Y-111109319D01*
X69845424Y-111145897D01*
X69893699Y-111155500D01*
X69893702Y-111155500D01*
X71216548Y-111155500D01*
X71216550Y-111155500D01*
X71345116Y-111121051D01*
X71460384Y-111054501D01*
X71554501Y-110960384D01*
X71621051Y-110845116D01*
X71655500Y-110716550D01*
X71655500Y-110583450D01*
X71621051Y-110454884D01*
X71554501Y-110339616D01*
X71460384Y-110245499D01*
X71345116Y-110178949D01*
X71216550Y-110144500D01*
X71083450Y-110144500D01*
X70954884Y-110178949D01*
X70954881Y-110178950D01*
X70839619Y-110245497D01*
X70839613Y-110245501D01*
X70745501Y-110339613D01*
X70745497Y-110339619D01*
X70678950Y-110454881D01*
X70675840Y-110462391D01*
X70674045Y-110461647D01*
X70643195Y-110512257D01*
X70580347Y-110542784D01*
X70559788Y-110544500D01*
X69893700Y-110544500D01*
X69845424Y-110554102D01*
X69790680Y-110590680D01*
X69754102Y-110645424D01*
X69744500Y-110693699D01*
X69744500Y-110693702D01*
X69744500Y-111006298D01*
X69744500Y-111006300D01*
X69744499Y-111006300D01*
X67450000Y-111006300D01*
X67450000Y-110945053D01*
X67452381Y-110920871D01*
X67460413Y-110880492D01*
X67478924Y-110835802D01*
X67501799Y-110801567D01*
X67517210Y-110782789D01*
X68753748Y-109546251D01*
X68767583Y-109534322D01*
X68768508Y-109533636D01*
X68768527Y-109533622D01*
X68787317Y-109518201D01*
X68795350Y-109510919D01*
X69910919Y-108395350D01*
X69918201Y-108387317D01*
X69933622Y-108368527D01*
X69939790Y-108360209D01*
X69941421Y-108358579D01*
X70000000Y-108300000D01*
X70000000Y-108263705D01*
X70019363Y-108233255D01*
X70019597Y-108233049D01*
X70019685Y-108232753D01*
X70045793Y-108210129D01*
X70071947Y-108187247D01*
X70072254Y-108187201D01*
X70072489Y-108186998D01*
X70079715Y-108184401D01*
X70079709Y-108184385D01*
X70087213Y-108181276D01*
X70087215Y-108181274D01*
X70087218Y-108181274D01*
X70168282Y-108134471D01*
X70234471Y-108068282D01*
X70281274Y-107987218D01*
X70305500Y-107896803D01*
X70305500Y-107803197D01*
X70281274Y-107712782D01*
X70234471Y-107631718D01*
X70168282Y-107565529D01*
X70114106Y-107534250D01*
X70087217Y-107518725D01*
X70087049Y-107518656D01*
X70086928Y-107518558D01*
X70080179Y-107514662D01*
X70080786Y-107513609D01*
X70032645Y-107474816D01*
X70010579Y-107408522D01*
X70010500Y-107404094D01*
X70010500Y-106795906D01*
X70030185Y-106728867D01*
X70080259Y-106685477D01*
X70080179Y-106685338D01*
X70080901Y-106684920D01*
X70082989Y-106683112D01*
X70087049Y-106681344D01*
X70087215Y-106681274D01*
X70087218Y-106681274D01*
X70168282Y-106634471D01*
X70234471Y-106568282D01*
X70281274Y-106487218D01*
X70305500Y-106396803D01*
X70305500Y-106303197D01*
X70281274Y-106212782D01*
X70234471Y-106131718D01*
X70168282Y-106065529D01*
X70114106Y-106034250D01*
X70087217Y-106018725D01*
X70087049Y-106018656D01*
X70086928Y-106018558D01*
X70080179Y-106014662D01*
X70080786Y-106013609D01*
X70032645Y-105974816D01*
X70010579Y-105908522D01*
X70010500Y-105904094D01*
X70010500Y-105295906D01*
X70030185Y-105228867D01*
X70080259Y-105185477D01*
X70080179Y-105185338D01*
X70080901Y-105184920D01*
X70082989Y-105183112D01*
X70087049Y-105181344D01*
X70087215Y-105181274D01*
X70087218Y-105181274D01*
X70168282Y-105134471D01*
X70234471Y-105068282D01*
X70281274Y-104987218D01*
X70305500Y-104896803D01*
X70305500Y-104803197D01*
X70281274Y-104712782D01*
X70234471Y-104631718D01*
X70168282Y-104565529D01*
X70127750Y-104542127D01*
X70087219Y-104518726D01*
X70026768Y-104502529D01*
X69996803Y-104494500D01*
X69903197Y-104494500D01*
X69812779Y-104518726D01*
X69750158Y-104554882D01*
X69731718Y-104565529D01*
X69731716Y-104565530D01*
X69724682Y-104569592D01*
X69723661Y-104567823D01*
X69668702Y-104589070D01*
X69658387Y-104589500D01*
X67562211Y-104589500D01*
X67554767Y-104589865D01*
X67551379Y-104590032D01*
X67551374Y-104590032D01*
X67527227Y-104592410D01*
X67527211Y-104592411D01*
X67527200Y-104592413D01*
X67522157Y-104593160D01*
X67508147Y-104594430D01*
X67506064Y-104594500D01*
X67380180Y-104594500D01*
X67354590Y-104599590D01*
X67344483Y-104599930D01*
X67343527Y-104599683D01*
X67340318Y-104600000D01*
X66764091Y-104600000D01*
X66697052Y-104580315D01*
X66676410Y-104563681D01*
X66615260Y-104502531D01*
X66615258Y-104502529D01*
X66568454Y-104475506D01*
X66534193Y-104455725D01*
X66526690Y-104452618D01*
X66528044Y-104449347D01*
X66482233Y-104421414D01*
X66451714Y-104358562D01*
X66450000Y-104338018D01*
X66450000Y-101862210D01*
X66452381Y-101838029D01*
X66460412Y-101797651D01*
X66478927Y-101752956D01*
X66494877Y-101729086D01*
X66529086Y-101694877D01*
X66552956Y-101678927D01*
X66597653Y-101660412D01*
X66638027Y-101652381D01*
X66662211Y-101650000D01*
X66837789Y-101650000D01*
X66861971Y-101652381D01*
G37*
G04 #@! TD.AperFunction*
G04 #@! TA.AperFunction,Conductor*
G36*
X64952112Y-111800875D02*
G01*
X65016309Y-111827466D01*
X65022533Y-111833690D01*
X65049125Y-111897887D01*
X65050000Y-111902288D01*
X65050000Y-112000000D01*
X66000000Y-112950000D01*
X69125370Y-112950000D01*
X69133502Y-112953368D01*
X69136870Y-112961500D01*
X69133502Y-112969632D01*
X68942145Y-113160988D01*
X68749175Y-113402965D01*
X68584525Y-113665005D01*
X68584524Y-113665008D01*
X68450239Y-113943851D01*
X68450237Y-113943854D01*
X68348019Y-114235980D01*
X68320686Y-114355734D01*
X68279152Y-114537709D01*
X68279151Y-114537716D01*
X68279151Y-114537717D01*
X68244500Y-114845255D01*
X68244500Y-115154744D01*
X68270692Y-115387212D01*
X68268255Y-115395670D01*
X68260552Y-115399928D01*
X68259264Y-115400000D01*
X64651133Y-115400000D01*
X64648889Y-115399779D01*
X64575706Y-115385222D01*
X64571561Y-115383505D01*
X64510481Y-115342691D01*
X64507308Y-115339518D01*
X64466494Y-115278438D01*
X64464777Y-115274292D01*
X64450221Y-115201110D01*
X64450000Y-115198867D01*
X64450000Y-112001132D01*
X64450221Y-111998889D01*
X64450456Y-111997703D01*
X64464778Y-111925704D01*
X64466492Y-111921564D01*
X64507308Y-111860480D01*
X64510481Y-111857308D01*
X64571564Y-111816492D01*
X64575704Y-111814778D01*
X64630949Y-111803789D01*
X64648890Y-111800221D01*
X64651133Y-111800000D01*
X64947711Y-111800000D01*
X64952112Y-111800875D01*
G37*
G04 #@! TD.AperFunction*
G04 #@! TA.AperFunction,Conductor*
G36*
X61851110Y-44550221D02*
G01*
X61874490Y-44554871D01*
X61924294Y-44564777D01*
X61928438Y-44566494D01*
X61989518Y-44607308D01*
X61992691Y-44610481D01*
X62033505Y-44671561D01*
X62035222Y-44675706D01*
X62049779Y-44748888D01*
X62050000Y-44751132D01*
X62050000Y-45016024D01*
X62049779Y-45018268D01*
X62035222Y-45091450D01*
X62033505Y-45095595D01*
X61992051Y-45157635D01*
X61990621Y-45159378D01*
X60600000Y-46550000D01*
X60600000Y-47448867D01*
X60599779Y-47451111D01*
X60585222Y-47524293D01*
X60583505Y-47528438D01*
X60542691Y-47589518D01*
X60539518Y-47592691D01*
X60478438Y-47633505D01*
X60474293Y-47635222D01*
X60401111Y-47649779D01*
X60398867Y-47650000D01*
X59050000Y-47650000D01*
X58991421Y-47708579D01*
X58954553Y-47745445D01*
X58950822Y-47747938D01*
X58937001Y-47753663D01*
X58883592Y-47775786D01*
X58825784Y-47833595D01*
X58825783Y-47833594D01*
X58812249Y-47847131D01*
X58804118Y-47850500D01*
X57595885Y-47850500D01*
X57587753Y-47847132D01*
X57303368Y-47562747D01*
X57300000Y-47554615D01*
X57300000Y-45851132D01*
X57300221Y-45848889D01*
X57300456Y-45847703D01*
X57314778Y-45775704D01*
X57316492Y-45771564D01*
X57357308Y-45710480D01*
X57360481Y-45707308D01*
X57421564Y-45666492D01*
X57425704Y-45664778D01*
X57480949Y-45653789D01*
X57498890Y-45650221D01*
X57501133Y-45650000D01*
X58499999Y-45650000D01*
X58500000Y-45650000D01*
X58500000Y-44783975D01*
X58500221Y-44781732D01*
X58500456Y-44780546D01*
X58514778Y-44708547D01*
X58516492Y-44704407D01*
X58557952Y-44642358D01*
X58559373Y-44640626D01*
X58590626Y-44609373D01*
X58592358Y-44607952D01*
X58654407Y-44566492D01*
X58658547Y-44564778D01*
X58713792Y-44553789D01*
X58731733Y-44550221D01*
X58733976Y-44550000D01*
X61848867Y-44550000D01*
X61851110Y-44550221D01*
G37*
G04 #@! TD.AperFunction*
G04 #@! TA.AperFunction,Conductor*
G36*
X67761971Y-81052381D02*
G01*
X67802346Y-81060412D01*
X67847043Y-81078927D01*
X67870913Y-81094877D01*
X67876805Y-81100769D01*
X67881537Y-81102829D01*
X67905122Y-81129086D01*
X67921072Y-81152956D01*
X67939588Y-81197655D01*
X67947617Y-81238020D01*
X67950000Y-81262210D01*
X67950000Y-85387789D01*
X67947617Y-85411982D01*
X67939588Y-85452344D01*
X67936397Y-85460046D01*
X67936305Y-85465206D01*
X67921072Y-85497043D01*
X67905122Y-85520913D01*
X67870913Y-85555122D01*
X67847043Y-85571072D01*
X67802344Y-85589588D01*
X67785841Y-85592870D01*
X67761978Y-85597617D01*
X67737789Y-85600000D01*
X67562211Y-85600000D01*
X67538020Y-85597617D01*
X67522744Y-85594578D01*
X67497656Y-85589588D01*
X67452956Y-85571072D01*
X67429086Y-85555122D01*
X67394877Y-85520913D01*
X67378927Y-85497043D01*
X67360412Y-85452346D01*
X67352381Y-85411971D01*
X67350000Y-85387789D01*
X67350000Y-84450000D01*
X66900000Y-84000000D01*
X66817157Y-84000000D01*
X65612211Y-84000000D01*
X65588020Y-83997617D01*
X65572744Y-83994578D01*
X65547656Y-83989588D01*
X65502956Y-83971072D01*
X65479086Y-83955122D01*
X65444877Y-83920913D01*
X65428927Y-83897043D01*
X65410412Y-83852346D01*
X65402381Y-83811971D01*
X65400000Y-83787789D01*
X65400000Y-82912210D01*
X65402381Y-82888029D01*
X65410412Y-82847651D01*
X65428927Y-82802956D01*
X65444877Y-82779086D01*
X65479086Y-82744877D01*
X65502956Y-82728927D01*
X65547653Y-82710412D01*
X65588027Y-82702381D01*
X65612211Y-82700000D01*
X66900000Y-82700000D01*
X67350000Y-82250000D01*
X67350000Y-81262210D01*
X67352381Y-81238029D01*
X67360412Y-81197651D01*
X67378927Y-81152956D01*
X67394877Y-81129086D01*
X67429086Y-81094877D01*
X67452956Y-81078927D01*
X67497653Y-81060412D01*
X67538027Y-81052381D01*
X67562211Y-81050000D01*
X67737789Y-81050000D01*
X67761971Y-81052381D01*
G37*
G04 #@! TD.AperFunction*
G04 #@! TA.AperFunction,Conductor*
G36*
X70061971Y-99552381D02*
G01*
X70102346Y-99560412D01*
X70147043Y-99578927D01*
X70170913Y-99594877D01*
X70176805Y-99600769D01*
X70181537Y-99602829D01*
X70205122Y-99629086D01*
X70221072Y-99652956D01*
X70239588Y-99697655D01*
X70247617Y-99738022D01*
X70250000Y-99762210D01*
X70250000Y-102787789D01*
X70247617Y-102811982D01*
X70239588Y-102852344D01*
X70236397Y-102860046D01*
X70236305Y-102865206D01*
X70221072Y-102897043D01*
X70205122Y-102920913D01*
X70170913Y-102955122D01*
X70147043Y-102971072D01*
X70102344Y-102989588D01*
X70085841Y-102992870D01*
X70061978Y-102997617D01*
X70037789Y-103000000D01*
X67562211Y-103000000D01*
X67538020Y-102997617D01*
X67522744Y-102994578D01*
X67497656Y-102989588D01*
X67452956Y-102971072D01*
X67429086Y-102955122D01*
X67394877Y-102920913D01*
X67378927Y-102897043D01*
X67360412Y-102852346D01*
X67352381Y-102811971D01*
X67350000Y-102787789D01*
X67350000Y-102229500D01*
X67369685Y-102162461D01*
X67422489Y-102116706D01*
X67474000Y-102105500D01*
X68119822Y-102105500D01*
X68163717Y-102096768D01*
X68163717Y-102096767D01*
X68163722Y-102096767D01*
X68213504Y-102063504D01*
X68246767Y-102013722D01*
X68255500Y-101969820D01*
X68255500Y-101730180D01*
X68255500Y-101730177D01*
X68246768Y-101686282D01*
X68246767Y-101686281D01*
X68246767Y-101686278D01*
X68213504Y-101636496D01*
X68213503Y-101636495D01*
X68163724Y-101603234D01*
X68163717Y-101603231D01*
X68119822Y-101594500D01*
X68119820Y-101594500D01*
X67520268Y-101594500D01*
X67490827Y-101585855D01*
X67460841Y-101579332D01*
X67455825Y-101575577D01*
X67453229Y-101574815D01*
X67432587Y-101558181D01*
X67386319Y-101511913D01*
X67352834Y-101450590D01*
X67350000Y-101424232D01*
X67350000Y-99762210D01*
X67352382Y-99738022D01*
X67358890Y-99705307D01*
X67391276Y-99643396D01*
X67451992Y-99608823D01*
X67480507Y-99605500D01*
X68119822Y-99605500D01*
X68163717Y-99596768D01*
X68163717Y-99596767D01*
X68163722Y-99596767D01*
X68202438Y-99570897D01*
X68269115Y-99550020D01*
X68271328Y-99550000D01*
X70037789Y-99550000D01*
X70061971Y-99552381D01*
G37*
G04 #@! TD.AperFunction*
G04 #@! TA.AperFunction,Conductor*
G36*
X57979129Y-50902381D02*
G01*
X58019505Y-50910412D01*
X58027204Y-50913601D01*
X58032364Y-50913694D01*
X58064198Y-50928924D01*
X58098425Y-50951794D01*
X58117215Y-50967215D01*
X58900000Y-51750000D01*
X59337789Y-51750000D01*
X59361971Y-51752381D01*
X59402346Y-51760412D01*
X59447043Y-51778927D01*
X59470913Y-51794877D01*
X59505122Y-51829086D01*
X59521072Y-51852956D01*
X59539588Y-51897655D01*
X59547617Y-51938022D01*
X59550000Y-51962210D01*
X59550000Y-52504946D01*
X59547617Y-52529137D01*
X59539588Y-52569501D01*
X59521073Y-52614201D01*
X59498205Y-52648425D01*
X59482784Y-52667215D01*
X59367215Y-52782784D01*
X59348425Y-52798205D01*
X59314201Y-52821073D01*
X59306497Y-52824263D01*
X59302785Y-52827846D01*
X59269501Y-52839588D01*
X59229137Y-52847617D01*
X59204946Y-52850000D01*
X58799999Y-52850000D01*
X58650000Y-52999999D01*
X58650000Y-55067076D01*
X58647617Y-55091268D01*
X58641817Y-55120425D01*
X58623301Y-55165125D01*
X58613701Y-55179492D01*
X58579492Y-55213701D01*
X58565125Y-55223301D01*
X58520425Y-55241817D01*
X58491267Y-55247617D01*
X58467077Y-55250000D01*
X57849999Y-55250000D01*
X57700000Y-55399999D01*
X57700000Y-56154946D01*
X57697617Y-56179137D01*
X57689588Y-56219501D01*
X57671073Y-56264201D01*
X57648205Y-56298425D01*
X57632784Y-56317215D01*
X57617215Y-56332784D01*
X57598425Y-56348205D01*
X57564201Y-56371073D01*
X57556497Y-56374263D01*
X57552785Y-56377846D01*
X57519501Y-56389588D01*
X57479137Y-56397617D01*
X57454946Y-56400000D01*
X56999999Y-56400000D01*
X56800000Y-56599999D01*
X56800000Y-58997941D01*
X56794526Y-59016580D01*
X56794014Y-59036004D01*
X56781927Y-59059488D01*
X56780315Y-59064980D01*
X56778510Y-59067710D01*
X56776038Y-59071341D01*
X56775057Y-59072537D01*
X56768643Y-59081176D01*
X56727317Y-59142908D01*
X56727271Y-59142993D01*
X56726290Y-59144435D01*
X56699671Y-59166297D01*
X56673171Y-59188405D01*
X56672497Y-59188615D01*
X56672296Y-59188781D01*
X56671772Y-59188842D01*
X56647983Y-59196281D01*
X56643792Y-59197115D01*
X56641277Y-59197615D01*
X56617077Y-59200000D01*
X56332923Y-59200000D01*
X56308731Y-59197617D01*
X56279574Y-59191817D01*
X56271870Y-59188626D01*
X56266712Y-59188534D01*
X56234874Y-59173301D01*
X56220507Y-59163701D01*
X56186298Y-59129492D01*
X56176698Y-59115125D01*
X56158182Y-59070425D01*
X56152381Y-59041263D01*
X56150000Y-59017076D01*
X56150000Y-58800000D01*
X56041819Y-58691819D01*
X56030853Y-58671737D01*
X56016080Y-58654258D01*
X56012784Y-58638646D01*
X56008334Y-58630496D01*
X56006554Y-58620274D01*
X56005500Y-58612243D01*
X56005500Y-58496615D01*
X55977866Y-58393483D01*
X55977866Y-58393482D01*
X55924481Y-58301017D01*
X55386319Y-57762855D01*
X55352834Y-57701532D01*
X55350000Y-57675174D01*
X55350000Y-56150000D01*
X55267215Y-56067215D01*
X55251794Y-56048425D01*
X55228926Y-56014201D01*
X55210412Y-55969505D01*
X55202381Y-55929129D01*
X55200000Y-55904946D01*
X55200000Y-53895053D01*
X55202381Y-53870871D01*
X55210413Y-53830492D01*
X55228924Y-53785802D01*
X55251799Y-53751567D01*
X55267210Y-53732789D01*
X55332789Y-53667210D01*
X55351567Y-53651799D01*
X55385802Y-53628924D01*
X55430494Y-53610412D01*
X55470869Y-53602381D01*
X55495054Y-53600000D01*
X55950000Y-53600000D01*
X56500000Y-53050000D01*
X56500000Y-51195053D01*
X56502381Y-51170871D01*
X56510413Y-51130492D01*
X56528924Y-51085802D01*
X56551799Y-51051567D01*
X56567210Y-51032789D01*
X56632789Y-50967210D01*
X56651567Y-50951799D01*
X56685802Y-50928924D01*
X56730494Y-50910412D01*
X56770869Y-50902381D01*
X56795054Y-50900000D01*
X57954946Y-50900000D01*
X57979129Y-50902381D01*
G37*
G04 #@! TD.AperFunction*
G04 #@! TA.AperFunction,Conductor*
G36*
X60059561Y-55401902D02*
G01*
X60107222Y-55411382D01*
X60142908Y-55426163D01*
X60175050Y-55447640D01*
X60202359Y-55474949D01*
X60211754Y-55489009D01*
X60223835Y-55507089D01*
X60238616Y-55542775D01*
X60248097Y-55590436D01*
X60250000Y-55609751D01*
X60250000Y-55647071D01*
X60231093Y-55705262D01*
X60181593Y-55741226D01*
X60138308Y-55743780D01*
X60138191Y-55744977D01*
X60133349Y-55744500D01*
X60133348Y-55744500D01*
X59566652Y-55744500D01*
X59566647Y-55744500D01*
X59527132Y-55752360D01*
X59527130Y-55752360D01*
X59527130Y-55752361D01*
X59504566Y-55767438D01*
X59482311Y-55782309D01*
X59482309Y-55782311D01*
X59452360Y-55827132D01*
X59444500Y-55866647D01*
X59444500Y-56133352D01*
X59452360Y-56172867D01*
X59452361Y-56172870D01*
X59482310Y-56217690D01*
X59527130Y-56247639D01*
X59566652Y-56255500D01*
X59566654Y-56255500D01*
X60133346Y-56255500D01*
X60133348Y-56255500D01*
X60133349Y-56255499D01*
X60138191Y-56255023D01*
X60138348Y-56256623D01*
X60192431Y-56263014D01*
X60237368Y-56304539D01*
X60250000Y-56352928D01*
X60250000Y-56940248D01*
X60248097Y-56959561D01*
X60248097Y-56959563D01*
X60238616Y-57007224D01*
X60223835Y-57042910D01*
X60202362Y-57075047D01*
X60175047Y-57102362D01*
X60142910Y-57123835D01*
X60107224Y-57138616D01*
X60059563Y-57148097D01*
X60040248Y-57150000D01*
X59409752Y-57150000D01*
X59390438Y-57148098D01*
X59374470Y-57144921D01*
X59342775Y-57138617D01*
X59342773Y-57138616D01*
X59307089Y-57123835D01*
X59306330Y-57123328D01*
X59274949Y-57102359D01*
X59247640Y-57075050D01*
X59226163Y-57042908D01*
X59211382Y-57007222D01*
X59201902Y-56959561D01*
X59200000Y-56940248D01*
X59200000Y-55580464D01*
X59201902Y-55561150D01*
X59209153Y-55524696D01*
X59223934Y-55489011D01*
X59239060Y-55466372D01*
X59266372Y-55439060D01*
X59289011Y-55423934D01*
X59324694Y-55409153D01*
X59349191Y-55404280D01*
X59361150Y-55401902D01*
X59380464Y-55400000D01*
X60040248Y-55400000D01*
X60059561Y-55401902D01*
G37*
G04 #@! TD.AperFunction*
G04 #@! TA.AperFunction,Conductor*
G36*
X69711971Y-104702381D02*
G01*
X69752346Y-104710412D01*
X69797043Y-104728927D01*
X69820913Y-104744877D01*
X69826805Y-104750769D01*
X69831537Y-104752829D01*
X69855122Y-104779086D01*
X69871072Y-104802956D01*
X69889588Y-104847655D01*
X69897617Y-104888020D01*
X69900000Y-104912210D01*
X69900000Y-108154946D01*
X69897617Y-108179137D01*
X69889588Y-108219501D01*
X69871073Y-108264201D01*
X69848205Y-108298425D01*
X69832784Y-108317215D01*
X68717215Y-109432784D01*
X68698425Y-109448205D01*
X68664201Y-109471073D01*
X68619501Y-109489588D01*
X68579137Y-109497617D01*
X68554946Y-109500000D01*
X67562211Y-109500000D01*
X67538020Y-109497617D01*
X67522744Y-109494578D01*
X67497656Y-109489588D01*
X67489952Y-109486397D01*
X67484793Y-109486305D01*
X67452956Y-109471072D01*
X67429086Y-109455122D01*
X67394877Y-109420913D01*
X67378927Y-109397043D01*
X67360412Y-109352346D01*
X67352381Y-109311971D01*
X67350000Y-109287789D01*
X67350000Y-109229500D01*
X67369685Y-109162461D01*
X67422489Y-109116706D01*
X67474000Y-109105500D01*
X68119822Y-109105500D01*
X68163717Y-109096768D01*
X68163717Y-109096767D01*
X68163722Y-109096767D01*
X68213504Y-109063504D01*
X68246767Y-109013722D01*
X68255500Y-108969820D01*
X68255500Y-108730180D01*
X68255500Y-108730177D01*
X68246768Y-108686282D01*
X68246767Y-108686281D01*
X68246767Y-108686278D01*
X68235148Y-108668889D01*
X68214271Y-108602213D01*
X68232756Y-108534833D01*
X68235149Y-108531109D01*
X68246767Y-108513722D01*
X68251483Y-108490015D01*
X68255500Y-108469822D01*
X68255500Y-108230177D01*
X68246768Y-108186282D01*
X68246767Y-108186281D01*
X68246767Y-108186278D01*
X68213504Y-108136496D01*
X68213503Y-108136495D01*
X68163724Y-108103234D01*
X68163717Y-108103231D01*
X68119822Y-108094500D01*
X68119820Y-108094500D01*
X67474000Y-108094500D01*
X67465314Y-108091949D01*
X67456353Y-108093238D01*
X67432312Y-108082259D01*
X67406961Y-108074815D01*
X67401033Y-108067974D01*
X67392797Y-108064213D01*
X67378507Y-108041978D01*
X67361206Y-108022011D01*
X67358918Y-108011496D01*
X67355023Y-108005435D01*
X67350000Y-107970500D01*
X67350000Y-107729500D01*
X67369685Y-107662461D01*
X67422489Y-107616706D01*
X67474000Y-107605500D01*
X68119822Y-107605500D01*
X68163717Y-107596768D01*
X68163717Y-107596767D01*
X68163722Y-107596767D01*
X68213504Y-107563504D01*
X68246767Y-107513722D01*
X68255500Y-107469820D01*
X68255500Y-107230180D01*
X68255500Y-107230177D01*
X68246768Y-107186282D01*
X68246767Y-107186281D01*
X68246767Y-107186278D01*
X68235148Y-107168889D01*
X68214271Y-107102213D01*
X68232756Y-107034833D01*
X68235149Y-107031109D01*
X68246767Y-107013722D01*
X68255500Y-106969820D01*
X68255500Y-106730180D01*
X68255500Y-106730177D01*
X68246768Y-106686282D01*
X68246767Y-106686281D01*
X68246767Y-106686278D01*
X68213504Y-106636496D01*
X68213503Y-106636495D01*
X68163724Y-106603234D01*
X68163717Y-106603231D01*
X68119822Y-106594500D01*
X68119820Y-106594500D01*
X67474000Y-106594500D01*
X67465314Y-106591949D01*
X67456353Y-106593238D01*
X67432312Y-106582259D01*
X67406961Y-106574815D01*
X67401033Y-106567974D01*
X67392797Y-106564213D01*
X67378507Y-106541978D01*
X67361206Y-106522011D01*
X67358918Y-106511496D01*
X67355023Y-106505435D01*
X67350000Y-106470500D01*
X67350000Y-106229500D01*
X67369685Y-106162461D01*
X67422489Y-106116706D01*
X67474000Y-106105500D01*
X68119822Y-106105500D01*
X68163717Y-106096768D01*
X68163717Y-106096767D01*
X68163722Y-106096767D01*
X68213504Y-106063504D01*
X68246767Y-106013722D01*
X68255500Y-105969820D01*
X68255500Y-105730180D01*
X68255500Y-105730177D01*
X68246768Y-105686282D01*
X68246767Y-105686281D01*
X68246767Y-105686278D01*
X68235148Y-105668889D01*
X68214271Y-105602213D01*
X68232756Y-105534833D01*
X68235149Y-105531109D01*
X68246767Y-105513722D01*
X68255500Y-105469820D01*
X68255500Y-105230180D01*
X68255500Y-105230177D01*
X68246768Y-105186282D01*
X68246767Y-105186281D01*
X68246767Y-105186278D01*
X68213504Y-105136496D01*
X68213503Y-105136495D01*
X68163724Y-105103234D01*
X68163717Y-105103231D01*
X68119822Y-105094500D01*
X68119820Y-105094500D01*
X67474000Y-105094500D01*
X67465314Y-105091949D01*
X67456353Y-105093238D01*
X67432312Y-105082259D01*
X67406961Y-105074815D01*
X67401033Y-105067974D01*
X67392797Y-105064213D01*
X67378507Y-105041978D01*
X67361206Y-105022011D01*
X67358918Y-105011496D01*
X67355023Y-105005435D01*
X67350000Y-104970500D01*
X67350000Y-104912210D01*
X67352381Y-104888029D01*
X67360412Y-104847651D01*
X67378927Y-104802956D01*
X67394877Y-104779086D01*
X67429086Y-104744877D01*
X67452956Y-104728927D01*
X67497653Y-104710412D01*
X67538027Y-104702381D01*
X67562211Y-104700000D01*
X69687789Y-104700000D01*
X69711971Y-104702381D01*
G37*
G04 #@! TD.AperFunction*
G04 #@! TA.AperFunction,Conductor*
G36*
X58891261Y-55402381D02*
G01*
X58920427Y-55408183D01*
X58965125Y-55426698D01*
X58979492Y-55436298D01*
X58985386Y-55442192D01*
X58990116Y-55444251D01*
X59013701Y-55470507D01*
X59023301Y-55484874D01*
X59041817Y-55529574D01*
X59047617Y-55558731D01*
X59050000Y-55582923D01*
X59050000Y-58467076D01*
X59047617Y-58491268D01*
X59041817Y-58520425D01*
X59038626Y-58528128D01*
X59038534Y-58533287D01*
X59023301Y-58565125D01*
X59013701Y-58579492D01*
X58979492Y-58613701D01*
X58965125Y-58623301D01*
X58920425Y-58641817D01*
X58891267Y-58647617D01*
X58867077Y-58650000D01*
X57132923Y-58650000D01*
X57108731Y-58647617D01*
X57079574Y-58641817D01*
X57034874Y-58623301D01*
X57020507Y-58613701D01*
X56986298Y-58579492D01*
X56976698Y-58565125D01*
X56958182Y-58520425D01*
X56952381Y-58491263D01*
X56950000Y-58467076D01*
X56950000Y-57895053D01*
X56952381Y-57870871D01*
X56960413Y-57830492D01*
X56978924Y-57785802D01*
X57001799Y-57751567D01*
X57017210Y-57732789D01*
X57082789Y-57667210D01*
X57101567Y-57651799D01*
X57135802Y-57628924D01*
X57143502Y-57625734D01*
X57147217Y-57622151D01*
X57180492Y-57610413D01*
X57220869Y-57602381D01*
X57245054Y-57600000D01*
X57650000Y-57600000D01*
X58350000Y-56900000D01*
X58350000Y-56793031D01*
X58352383Y-56768839D01*
X58356473Y-56748279D01*
X58358065Y-56737554D01*
X58359968Y-56718239D01*
X58360500Y-56707405D01*
X58360500Y-56500991D01*
X58365827Y-56482846D01*
X58366165Y-56463940D01*
X58379666Y-56435716D01*
X58380185Y-56433952D01*
X58381363Y-56432152D01*
X58401800Y-56401565D01*
X58417205Y-56382794D01*
X58541421Y-56258579D01*
X58600000Y-56200000D01*
X58600000Y-55850000D01*
X58450000Y-55700000D01*
X58016325Y-55700000D01*
X57984232Y-55695775D01*
X57957091Y-55688502D01*
X57901505Y-55656409D01*
X57893590Y-55648494D01*
X57861496Y-55592905D01*
X57858598Y-55582088D01*
X57858598Y-55550742D01*
X57857587Y-55548032D01*
X57858598Y-55543384D01*
X57858598Y-55517913D01*
X57861495Y-55507099D01*
X57869512Y-55493211D01*
X57872439Y-55479759D01*
X57893587Y-55451508D01*
X57901507Y-55443588D01*
X57957092Y-55411496D01*
X57984236Y-55404223D01*
X58016325Y-55400000D01*
X58867077Y-55400000D01*
X58891261Y-55402381D01*
G37*
G04 #@! TD.AperFunction*
G04 #@! TA.AperFunction,Conductor*
G36*
X63351110Y-111750221D02*
G01*
X63374490Y-111754871D01*
X63424294Y-111764777D01*
X63428438Y-111766494D01*
X63489518Y-111807308D01*
X63492691Y-111810481D01*
X63533505Y-111871561D01*
X63535222Y-111875706D01*
X63549779Y-111948888D01*
X63550000Y-111951132D01*
X63550000Y-115198867D01*
X63549779Y-115201111D01*
X63535222Y-115274293D01*
X63533505Y-115278438D01*
X63492691Y-115339518D01*
X63489518Y-115342691D01*
X63428438Y-115383505D01*
X63424293Y-115385222D01*
X63351111Y-115399779D01*
X63348867Y-115400000D01*
X61401133Y-115400000D01*
X61398889Y-115399779D01*
X61325706Y-115385222D01*
X61321561Y-115383505D01*
X61260481Y-115342691D01*
X61257308Y-115339518D01*
X61216494Y-115278438D01*
X61214777Y-115274294D01*
X61200221Y-115201110D01*
X61200000Y-115198867D01*
X61200000Y-113200001D01*
X61200000Y-113200000D01*
X60350000Y-112350000D01*
X60349999Y-112350000D01*
X60151133Y-112350000D01*
X60148889Y-112349779D01*
X60075706Y-112335222D01*
X60071561Y-112333505D01*
X60010481Y-112292691D01*
X60007308Y-112289518D01*
X59966494Y-112228438D01*
X59964777Y-112224292D01*
X59950221Y-112151110D01*
X59950000Y-112148867D01*
X59950000Y-111951132D01*
X59950221Y-111948889D01*
X59950456Y-111947703D01*
X59964778Y-111875704D01*
X59966492Y-111871564D01*
X60007308Y-111810480D01*
X60010481Y-111807308D01*
X60071564Y-111766492D01*
X60075704Y-111764778D01*
X60130949Y-111753789D01*
X60148890Y-111750221D01*
X60151133Y-111750000D01*
X63348867Y-111750000D01*
X63351110Y-111750221D01*
G37*
G04 #@! TD.AperFunction*
G04 #@! TA.AperFunction,Conductor*
G36*
X64621073Y-54750221D02*
G01*
X64644453Y-54754871D01*
X64694257Y-54764777D01*
X64698401Y-54766494D01*
X64760441Y-54807948D01*
X64762184Y-54809378D01*
X65052806Y-55100000D01*
X67651673Y-55100000D01*
X67653916Y-55100221D01*
X67677296Y-55104871D01*
X67727100Y-55114777D01*
X67731244Y-55116494D01*
X67792324Y-55157308D01*
X67795497Y-55160481D01*
X67836311Y-55221561D01*
X67838028Y-55225706D01*
X67852585Y-55298888D01*
X67852806Y-55301132D01*
X67852806Y-59899730D01*
X67910901Y-59957888D01*
X67910908Y-59957896D01*
X70208223Y-62257692D01*
X70209895Y-62259815D01*
X70256484Y-62335924D01*
X70258141Y-62341030D01*
X70264999Y-62428599D01*
X70264157Y-62433901D01*
X70230522Y-62515042D01*
X70227366Y-62519384D01*
X70160565Y-62576419D01*
X70155782Y-62578855D01*
X70069013Y-62599682D01*
X70066329Y-62600000D01*
X62657997Y-62600000D01*
X62649865Y-62596632D01*
X62646497Y-62588500D01*
X62646889Y-62585524D01*
X62655500Y-62553384D01*
X62655500Y-62446615D01*
X62627867Y-62343487D01*
X62627866Y-62343482D01*
X62574481Y-62251017D01*
X62498983Y-62175519D01*
X62498982Y-62175518D01*
X62406522Y-62122136D01*
X62406520Y-62122135D01*
X62406518Y-62122134D01*
X62406514Y-62122133D01*
X62406512Y-62122132D01*
X62303385Y-62094500D01*
X62196615Y-62094500D01*
X62093488Y-62122132D01*
X62093478Y-62122136D01*
X62001017Y-62175518D01*
X61579904Y-62596632D01*
X61571772Y-62600000D01*
X59467000Y-62600000D01*
X59458868Y-62596632D01*
X59455500Y-62588500D01*
X59455500Y-62548336D01*
X59457040Y-62542587D01*
X59477866Y-62506517D01*
X59505501Y-62403385D01*
X59505501Y-62296615D01*
X59477866Y-62193482D01*
X59424481Y-62101017D01*
X59348983Y-62025519D01*
X59348982Y-62025518D01*
X59256516Y-61972133D01*
X59256517Y-61972133D01*
X59153385Y-61944499D01*
X59046615Y-61944499D01*
X58943484Y-61972133D01*
X58851017Y-62025518D01*
X58819632Y-62056904D01*
X58811500Y-62060272D01*
X58803368Y-62056904D01*
X58800000Y-62048772D01*
X58800000Y-60250001D01*
X58800000Y-60250000D01*
X58600000Y-60050000D01*
X58599999Y-60050000D01*
X58468843Y-60050000D01*
X58465867Y-60049608D01*
X58446803Y-60044500D01*
X58353197Y-60044500D01*
X58334133Y-60049608D01*
X58331157Y-60050000D01*
X57001661Y-60050000D01*
X56999413Y-60049778D01*
X56998560Y-60049608D01*
X56972939Y-60044500D01*
X56926076Y-60035157D01*
X56921922Y-60033432D01*
X56860762Y-59992449D01*
X56857588Y-59989264D01*
X56836728Y-59957896D01*
X56816818Y-59927956D01*
X56815110Y-59923802D01*
X56800746Y-59850411D01*
X56800532Y-59848161D01*
X56800642Y-59816950D01*
X56802513Y-59283557D01*
X56802740Y-59281324D01*
X56817424Y-59208503D01*
X56819141Y-59204379D01*
X56860467Y-59142647D01*
X56861883Y-59140922D01*
X56993432Y-59009373D01*
X56995164Y-59007952D01*
X57057213Y-58966492D01*
X57061353Y-58964778D01*
X57118717Y-58953368D01*
X57134539Y-58950221D01*
X57136782Y-58950000D01*
X62421772Y-58950000D01*
X62429904Y-58953368D01*
X62841132Y-59364596D01*
X62844500Y-59372728D01*
X62844500Y-59725165D01*
X62856915Y-59787581D01*
X62859324Y-59799691D01*
X62859325Y-59799692D01*
X62915792Y-59884204D01*
X62915795Y-59884207D01*
X62932697Y-59895500D01*
X63000309Y-59940676D01*
X63074833Y-59955500D01*
X63425166Y-59955499D01*
X63499691Y-59940676D01*
X63584206Y-59884206D01*
X63640676Y-59799691D01*
X63655500Y-59725167D01*
X63655500Y-59412419D01*
X63655500Y-59146615D01*
X63655500Y-59145919D01*
X63655499Y-59145901D01*
X63655499Y-59074834D01*
X63653493Y-59064748D01*
X63640676Y-59000309D01*
X63584206Y-58915794D01*
X63584204Y-58915792D01*
X63542089Y-58887653D01*
X63499691Y-58859324D01*
X63499689Y-58859323D01*
X63482011Y-58855806D01*
X63476123Y-58852659D01*
X62998982Y-58375518D01*
X62908556Y-58323310D01*
X62903198Y-58316327D01*
X62902806Y-58313351D01*
X62902806Y-54951132D01*
X62903027Y-54948889D01*
X62903262Y-54947703D01*
X62917584Y-54875704D01*
X62919298Y-54871564D01*
X62960114Y-54810480D01*
X62963287Y-54807308D01*
X63024370Y-54766492D01*
X63028510Y-54764778D01*
X63083755Y-54753789D01*
X63101696Y-54750221D01*
X63103939Y-54750000D01*
X64618830Y-54750000D01*
X64621073Y-54750221D01*
G37*
G04 #@! TD.AperFunction*
M02*
