G04 #@! TF.GenerationSoftware,KiCad,Pcbnew,9.0.4*
G04 #@! TF.CreationDate,2025-08-21T00:06:41-07:00*
G04 #@! TF.ProjectId,DisplayAdapter,44697370-6c61-4794-9164-61707465722e,rev?*
G04 #@! TF.SameCoordinates,Original*
G04 #@! TF.FileFunction,Paste,Top*
G04 #@! TF.FilePolarity,Positive*
%FSLAX46Y46*%
G04 Gerber Fmt 4.6, Leading zero omitted, Abs format (unit mm)*
G04 Created by KiCad (PCBNEW 9.0.4) date 2025-08-21 00:06:41*
%MOMM*%
%LPD*%
G01*
G04 APERTURE LIST*
G04 Aperture macros list*
%AMRoundRect*
0 Rectangle with rounded corners*
0 $1 Rounding radius*
0 $2 $3 $4 $5 $6 $7 $8 $9 X,Y pos of 4 corners*
0 Add a 4 corners polygon primitive as box body*
4,1,4,$2,$3,$4,$5,$6,$7,$8,$9,$2,$3,0*
0 Add four circle primitives for the rounded corners*
1,1,$1+$1,$2,$3*
1,1,$1+$1,$4,$5*
1,1,$1+$1,$6,$7*
1,1,$1+$1,$8,$9*
0 Add four rect primitives between the rounded corners*
20,1,$1+$1,$2,$3,$4,$5,0*
20,1,$1+$1,$4,$5,$6,$7,0*
20,1,$1+$1,$6,$7,$8,$9,0*
20,1,$1+$1,$8,$9,$2,$3,0*%
%AMFreePoly0*
4,1,18,-0.400000,0.600000,-0.200000,0.800000,0.240000,0.800000,0.301229,0.787821,0.353137,0.753137,0.387821,0.701229,0.400000,0.640000,0.400000,-0.640000,0.387821,-0.701229,0.353137,-0.753137,0.301229,-0.787821,0.240000,-0.800000,-0.240000,-0.800000,-0.301229,-0.787821,-0.353137,-0.753137,-0.387821,-0.701229,-0.400000,-0.640000,-0.400000,0.600000,-0.400000,0.600000,$1*%
%AMFreePoly1*
4,1,18,-2.250000,0.765000,-2.243530,0.797528,-2.225104,0.825104,-2.197528,0.843530,-2.165000,0.850000,1.995000,0.850000,2.250000,0.595000,2.250000,-0.765000,2.243530,-0.797528,2.225104,-0.825104,2.197528,-0.843530,2.165000,-0.850000,-2.165000,-0.850000,-2.197528,-0.843530,-2.225104,-0.825104,-2.243530,-0.797528,-2.250000,-0.765000,-2.250000,0.765000,-2.250000,0.765000,$1*%
G04 Aperture macros list end*
%ADD10RoundRect,0.150000X-0.150000X-0.300000X0.150000X-0.300000X0.150000X0.300000X-0.150000X0.300000X0*%
%ADD11RoundRect,0.150000X0.150000X0.300000X-0.150000X0.300000X-0.150000X-0.300000X0.150000X-0.300000X0*%
%ADD12RoundRect,0.045000X0.355000X-0.105000X0.355000X0.105000X-0.355000X0.105000X-0.355000X-0.105000X0*%
%ADD13RoundRect,0.045000X-0.355000X0.105000X-0.355000X-0.105000X0.355000X-0.105000X0.355000X0.105000X0*%
%ADD14RoundRect,0.060000X0.340000X-0.140000X0.340000X0.140000X-0.340000X0.140000X-0.340000X-0.140000X0*%
%ADD15RoundRect,0.162500X0.447500X0.162500X-0.447500X0.162500X-0.447500X-0.162500X0.447500X-0.162500X0*%
%ADD16RoundRect,0.090000X-0.310000X-0.210000X0.310000X-0.210000X0.310000X0.210000X-0.310000X0.210000X0*%
%ADD17RoundRect,0.100000X0.200000X-0.100000X0.200000X0.100000X-0.200000X0.100000X-0.200000X-0.100000X0*%
%ADD18RoundRect,0.150000X0.300000X-0.150000X0.300000X0.150000X-0.300000X0.150000X-0.300000X-0.150000X0*%
%ADD19RoundRect,0.150000X1.550000X-0.350000X1.550000X0.350000X-1.550000X0.350000X-1.550000X-0.350000X0*%
%ADD20RoundRect,0.120000X-0.280000X-0.480000X0.280000X-0.480000X0.280000X0.480000X-0.280000X0.480000X0*%
%ADD21RoundRect,0.162500X0.162500X-0.447500X0.162500X0.447500X-0.162500X0.447500X-0.162500X-0.447500X0*%
%ADD22RoundRect,0.095000X-0.130000X-0.095000X0.130000X-0.095000X0.130000X0.095000X-0.130000X0.095000X0*%
%ADD23FreePoly0,0.000000*%
%ADD24RoundRect,0.050000X-0.050000X0.150000X-0.050000X-0.150000X0.050000X-0.150000X0.050000X0.150000X0*%
%ADD25RoundRect,0.050000X-0.150000X-0.050000X0.150000X-0.050000X0.150000X0.050000X-0.150000X0.050000X0*%
%ADD26RoundRect,0.050000X0.150000X0.050000X-0.150000X0.050000X-0.150000X-0.050000X0.150000X-0.050000X0*%
%ADD27RoundRect,0.050000X0.050000X-0.150000X0.050000X0.150000X-0.050000X0.150000X-0.050000X-0.150000X0*%
%ADD28FreePoly1,0.000000*%
%ADD29RoundRect,0.150000X-0.300000X0.150000X-0.300000X-0.150000X0.300000X-0.150000X0.300000X0.150000X0*%
%ADD30RoundRect,0.100000X-0.200000X0.100000X-0.200000X-0.100000X0.200000X-0.100000X0.200000X0.100000X0*%
%ADD31RoundRect,0.090000X-0.210000X0.310000X-0.210000X-0.310000X0.210000X-0.310000X0.210000X0.310000X0*%
%ADD32C,0.220000*%
%ADD33RoundRect,0.100000X0.100000X0.200000X-0.100000X0.200000X-0.100000X-0.200000X0.100000X-0.200000X0*%
%ADD34RoundRect,0.067500X-0.183848X-0.088388X-0.088388X-0.183848X0.183848X0.088388X0.088388X0.183848X0*%
%ADD35RoundRect,0.090000X-0.183848X-0.056569X-0.056569X-0.183848X0.183848X0.056569X0.056569X0.183848X0*%
%ADD36RoundRect,0.067500X0.192500X-0.067500X0.192500X0.067500X-0.192500X0.067500X-0.192500X-0.067500X0*%
%ADD37RoundRect,0.090000X0.170000X-0.090000X0.170000X0.090000X-0.170000X0.090000X-0.170000X-0.090000X0*%
%ADD38RoundRect,0.067500X0.183848X0.088388X0.088388X0.183848X-0.183848X-0.088388X-0.088388X-0.183848X0*%
%ADD39RoundRect,0.090000X0.183848X0.056569X0.056569X0.183848X-0.183848X-0.056569X-0.056569X-0.183848X0*%
%ADD40RoundRect,0.067500X-0.067500X-0.192500X0.067500X-0.192500X0.067500X0.192500X-0.067500X0.192500X0*%
%ADD41RoundRect,0.090000X-0.090000X-0.170000X0.090000X-0.170000X0.090000X0.170000X-0.090000X0.170000X0*%
%ADD42RoundRect,0.090000X0.310000X0.210000X-0.310000X0.210000X-0.310000X-0.210000X0.310000X-0.210000X0*%
%ADD43RoundRect,0.062500X-0.062500X-0.187500X0.062500X-0.187500X0.062500X0.187500X-0.062500X0.187500X0*%
%ADD44RoundRect,0.062500X0.062500X0.187500X-0.062500X0.187500X-0.062500X-0.187500X0.062500X-0.187500X0*%
%ADD45RoundRect,0.112500X0.112500X0.137500X-0.112500X0.137500X-0.112500X-0.137500X0.112500X-0.137500X0*%
%ADD46RoundRect,0.045000X0.355000X0.105000X-0.355000X0.105000X-0.355000X-0.105000X0.355000X-0.105000X0*%
%ADD47RoundRect,0.060000X0.340000X0.140000X-0.340000X0.140000X-0.340000X-0.140000X0.340000X-0.140000X0*%
%ADD48RoundRect,0.150000X-0.350000X-1.550000X0.350000X-1.550000X0.350000X1.550000X-0.350000X1.550000X0*%
%ADD49RoundRect,0.075000X0.662500X0.075000X-0.662500X0.075000X-0.662500X-0.075000X0.662500X-0.075000X0*%
%ADD50RoundRect,0.075000X0.075000X0.662500X-0.075000X0.662500X-0.075000X-0.662500X0.075000X-0.662500X0*%
%ADD51RoundRect,0.067500X0.067500X0.192500X-0.067500X0.192500X-0.067500X-0.192500X0.067500X-0.192500X0*%
%ADD52RoundRect,0.090000X0.090000X0.170000X-0.090000X0.170000X-0.090000X-0.170000X0.090000X-0.170000X0*%
%ADD53RoundRect,0.210000X1.090000X0.490000X-1.090000X0.490000X-1.090000X-0.490000X1.090000X-0.490000X0*%
%ADD54RoundRect,0.195000X0.455000X0.505000X-0.455000X0.505000X-0.455000X-0.505000X0.455000X-0.505000X0*%
%ADD55RoundRect,0.212500X-0.262500X-0.212500X0.262500X-0.212500X0.262500X0.212500X-0.262500X0.212500X0*%
%ADD56RoundRect,0.053000X0.212000X-0.572000X0.212000X0.572000X-0.212000X0.572000X-0.212000X-0.572000X0*%
%ADD57RoundRect,0.030000X-0.320000X-0.120000X0.320000X-0.120000X0.320000X0.120000X-0.320000X0.120000X0*%
%ADD58RoundRect,0.030000X0.120000X-0.320000X0.120000X0.320000X-0.120000X0.320000X-0.120000X-0.320000X0*%
%ADD59RoundRect,0.140000X0.310000X-0.000010X0.310000X0.000010X-0.310000X0.000010X-0.310000X-0.000010X0*%
%ADD60RoundRect,0.140000X0.000010X0.310000X-0.000010X0.310000X-0.000010X-0.310000X0.000010X-0.310000X0*%
%ADD61RoundRect,0.140000X-0.310000X0.000010X-0.310000X-0.000010X0.310000X-0.000010X0.310000X0.000010X0*%
%ADD62RoundRect,0.140000X-0.000010X-0.310000X0.000010X-0.310000X0.000010X0.310000X-0.000010X0.310000X0*%
%ADD63RoundRect,0.185000X1.665000X-1.665000X1.665000X1.665000X-1.665000X1.665000X-1.665000X-1.665000X0*%
%ADD64RoundRect,0.040000X-0.360000X-0.710000X0.360000X-0.710000X0.360000X0.710000X-0.360000X0.710000X0*%
%ADD65RoundRect,0.030000X-0.270000X-0.120000X0.270000X-0.120000X0.270000X0.120000X-0.270000X0.120000X0*%
%ADD66RoundRect,0.040000X-0.160000X-0.835000X0.160000X-0.835000X0.160000X0.835000X-0.160000X0.835000X0*%
%ADD67RoundRect,0.150000X-0.150000X-1.650000X0.150000X-1.650000X0.150000X1.650000X-0.150000X1.650000X0*%
%ADD68RoundRect,0.095000X-0.095000X0.130000X-0.095000X-0.130000X0.095000X-0.130000X0.095000X0.130000X0*%
%ADD69FreePoly0,270.000000*%
%ADD70RoundRect,0.112500X-0.112500X-0.137500X0.112500X-0.137500X0.112500X0.137500X-0.112500X0.137500X0*%
G04 APERTURE END LIST*
G36*
X48000000Y-43000000D02*
G01*
X48250000Y-43000000D01*
X48250000Y-43250000D01*
X48000000Y-43250000D01*
X48000000Y-43000000D01*
G37*
G36*
X71000000Y-43000000D02*
G01*
X71250000Y-43000000D01*
X71250000Y-43250000D01*
X71000000Y-43250000D01*
X71000000Y-43000000D01*
G37*
G36*
X71000000Y-116250000D02*
G01*
X71250000Y-116250000D01*
X71250000Y-116500000D01*
X71000000Y-116500000D01*
X71000000Y-116250000D01*
G37*
G36*
X48000000Y-116250000D02*
G01*
X48250000Y-116250000D01*
X48250000Y-116500000D01*
X48000000Y-116500000D01*
X48000000Y-116250000D01*
G37*
D10*
X67650000Y-82750000D03*
X69150000Y-82750000D03*
D11*
X66750000Y-102050000D03*
X65250000Y-102050000D03*
D12*
X67700000Y-79450000D03*
D13*
X67700000Y-78950000D03*
D12*
X67700000Y-78450000D03*
X67700000Y-77950000D03*
D14*
X70200000Y-80450000D03*
X70200000Y-76950000D03*
D15*
X64710000Y-53150000D03*
X64710000Y-51250000D03*
X62090000Y-52200000D03*
D11*
X70550000Y-65600000D03*
X69050000Y-65600000D03*
D10*
X67650000Y-85150000D03*
X69150000Y-85150000D03*
D16*
X67400000Y-51100000D03*
X67400000Y-49700000D03*
D17*
X61800000Y-93900000D03*
X61800000Y-94900000D03*
D11*
X60750000Y-52200000D03*
X59250000Y-52200000D03*
D10*
X69250000Y-90800000D03*
X70750000Y-90800000D03*
D18*
X57400000Y-59550000D03*
X57400000Y-58050000D03*
D11*
X61550000Y-76800000D03*
X60050000Y-76800000D03*
D19*
X64400000Y-49200000D03*
X64400000Y-46800000D03*
D20*
X66400000Y-112200000D03*
X68400000Y-112200000D03*
D11*
X56350000Y-57800000D03*
X54850000Y-57800000D03*
D16*
X60400000Y-115900000D03*
X60400000Y-114500000D03*
D21*
X56050000Y-51510000D03*
X57950000Y-51510000D03*
X57000000Y-48890000D03*
D10*
X67250000Y-75800000D03*
X68750000Y-75800000D03*
D22*
X56425000Y-58950000D03*
X56425000Y-59600000D03*
X56425000Y-60250000D03*
X54775000Y-60250000D03*
X54775000Y-59550000D03*
X54775000Y-58950000D03*
D23*
X55600000Y-59600000D03*
D10*
X59050000Y-72400000D03*
X60550000Y-72400000D03*
X56850000Y-47400000D03*
X58350000Y-47400000D03*
X69250000Y-92000000D03*
X70750000Y-92000000D03*
D17*
X61000000Y-93900000D03*
X61000000Y-94900000D03*
D22*
X55225000Y-73550000D03*
X55225000Y-74200000D03*
X55225000Y-74850000D03*
X53575000Y-74850000D03*
X53575000Y-74150000D03*
X53575000Y-73550000D03*
D23*
X54400000Y-74200000D03*
D18*
X60600000Y-50750000D03*
X60600000Y-49250000D03*
D11*
X55150000Y-72400000D03*
X53650000Y-72400000D03*
D10*
X67650000Y-81500000D03*
X69150000Y-81500000D03*
D24*
X63400000Y-95525000D03*
X63000000Y-95525000D03*
X62600000Y-95525000D03*
X62200000Y-95525000D03*
X61800000Y-95525000D03*
X61400000Y-95525000D03*
X61000000Y-95525000D03*
X60600000Y-95525000D03*
X60200000Y-95525000D03*
X59800000Y-95525000D03*
X59400000Y-95525000D03*
X59000000Y-95525000D03*
X58600000Y-95525000D03*
X58200000Y-95525000D03*
D25*
X57825000Y-96000000D03*
X57825000Y-96400000D03*
X57825000Y-96800000D03*
X57825000Y-97200000D03*
X57825000Y-97600000D03*
D26*
X57825000Y-98000000D03*
D27*
X58200000Y-98475000D03*
D24*
X58600000Y-98475000D03*
X59000000Y-98475000D03*
X59400000Y-98475000D03*
X59800000Y-98475000D03*
X60200000Y-98475000D03*
X60600000Y-98475000D03*
X61000000Y-98475000D03*
X61400000Y-98475000D03*
X61800000Y-98475000D03*
X62200000Y-98475000D03*
X62600000Y-98475000D03*
X63000000Y-98475000D03*
X63400000Y-98475000D03*
D25*
X63775000Y-98000000D03*
X63775000Y-97600000D03*
X63775000Y-97200000D03*
X63775000Y-96800000D03*
X63775000Y-96400000D03*
X63775000Y-96000000D03*
D28*
X60800000Y-97000000D03*
D29*
X58200000Y-76650000D03*
X58200000Y-78150000D03*
D18*
X52400000Y-101950000D03*
X52400000Y-100450000D03*
X64600000Y-75950000D03*
X64600000Y-74450000D03*
D30*
X58400000Y-100900000D03*
X58400000Y-99900000D03*
D18*
X59000000Y-45150000D03*
X59000000Y-43650000D03*
D31*
X69100000Y-63200000D03*
X70500000Y-63200000D03*
D29*
X68000000Y-63050000D03*
X68000000Y-64550000D03*
D32*
X64200000Y-110800000D03*
X64200000Y-111200000D03*
X63800000Y-110800000D03*
X63800000Y-111200000D03*
X63400000Y-110800000D03*
X63400000Y-111200000D03*
X63000000Y-110800000D03*
X63000000Y-111200000D03*
D33*
X62900000Y-110000000D03*
X63900000Y-110000000D03*
D10*
X67650000Y-74600000D03*
X69150000Y-74600000D03*
D34*
X54304325Y-103761360D03*
X53738640Y-103195675D03*
D35*
X53328518Y-104171482D03*
D17*
X60200000Y-93900000D03*
X60200000Y-94900000D03*
D10*
X55850000Y-61400000D03*
X57350000Y-61400000D03*
D30*
X64400000Y-102900000D03*
X64400000Y-101900000D03*
D10*
X69050000Y-66800000D03*
X70550000Y-66800000D03*
D36*
X53360000Y-67350000D03*
X53360000Y-68150000D03*
D37*
X54340000Y-67750000D03*
D11*
X56350000Y-56600000D03*
X54850000Y-56600000D03*
D18*
X65800000Y-55950000D03*
X65800000Y-54450000D03*
D38*
X50820675Y-104713640D03*
X51386360Y-105279325D03*
D39*
X51796482Y-104303518D03*
D11*
X70550000Y-64400000D03*
X69050000Y-64400000D03*
D40*
X56400000Y-79310000D03*
X55600000Y-79310000D03*
D41*
X56000000Y-80290000D03*
D30*
X62000000Y-102900000D03*
X62000000Y-101900000D03*
D10*
X59050000Y-66800000D03*
X60550000Y-66800000D03*
X53650000Y-76000000D03*
X55150000Y-76000000D03*
D11*
X52550000Y-99400000D03*
X51050000Y-99400000D03*
X55150000Y-71200000D03*
X53650000Y-71200000D03*
X58750000Y-57000000D03*
X57250000Y-57000000D03*
D10*
X57250000Y-88800000D03*
X58750000Y-88800000D03*
X58250000Y-69600000D03*
X59750000Y-69600000D03*
D29*
X63400000Y-74450000D03*
X63400000Y-75950000D03*
D11*
X70550000Y-69200000D03*
X69050000Y-69200000D03*
D30*
X59600000Y-102900000D03*
X59600000Y-101900000D03*
D10*
X57250000Y-90000000D03*
X58750000Y-90000000D03*
D11*
X66750000Y-103250000D03*
X65250000Y-103250000D03*
D42*
X67400000Y-52100000D03*
X67400000Y-53500000D03*
D43*
X59000000Y-104400000D03*
D44*
X59500000Y-104400000D03*
D45*
X60000000Y-104400000D03*
D44*
X60500000Y-104400000D03*
X61000000Y-104400000D03*
X61000000Y-103600000D03*
X60500000Y-103600000D03*
D45*
X60000000Y-103600000D03*
D44*
X59500000Y-103600000D03*
X59000000Y-103600000D03*
D46*
X67750000Y-109850000D03*
X67750000Y-109350000D03*
X67750000Y-108850000D03*
X67750000Y-108350000D03*
X67750000Y-107850000D03*
X67750000Y-107350000D03*
X67750000Y-106850000D03*
X67750000Y-106350000D03*
X67750000Y-105850000D03*
X67750000Y-105350000D03*
X67750000Y-104850000D03*
X67750000Y-104350000D03*
X67750000Y-103850000D03*
X67750000Y-103350000D03*
X67750000Y-102850000D03*
X67750000Y-102350000D03*
X67750000Y-101850000D03*
X67750000Y-101350000D03*
X67750000Y-100850000D03*
X67750000Y-100350000D03*
X67750000Y-99850000D03*
X67750000Y-99350000D03*
X67750000Y-98850000D03*
X67750000Y-98350000D03*
X67750000Y-97850000D03*
X67750000Y-97350000D03*
X67750000Y-96850000D03*
X67750000Y-96350000D03*
X67750000Y-95850000D03*
X67750000Y-95350000D03*
D47*
X70250000Y-110850000D03*
X70250000Y-94350000D03*
D48*
X61600000Y-56400000D03*
X64000000Y-56400000D03*
D31*
X69100000Y-68000000D03*
X70500000Y-68000000D03*
D49*
X66162500Y-85350000D03*
X66162500Y-84850000D03*
X66162500Y-84350000D03*
X66162500Y-83850000D03*
X66162500Y-83350000D03*
X66162500Y-82850000D03*
X66162500Y-82350000D03*
X66162500Y-81850000D03*
X66162500Y-81350000D03*
X66162500Y-80850000D03*
X66162500Y-80350000D03*
X66162500Y-79850000D03*
D50*
X64750000Y-78437500D03*
X64250000Y-78437500D03*
X63750000Y-78437500D03*
X63250000Y-78437500D03*
X62750000Y-78437500D03*
X62250000Y-78437500D03*
X61750000Y-78437500D03*
X61250000Y-78437500D03*
X60750000Y-78437500D03*
X60250000Y-78437500D03*
X59750000Y-78437500D03*
X59250000Y-78437500D03*
D49*
X57837500Y-79850000D03*
X57837500Y-80350000D03*
X57837500Y-80850000D03*
X57837500Y-81350000D03*
X57837500Y-81850000D03*
X57837500Y-82350000D03*
X57837500Y-82850000D03*
X57837500Y-83350000D03*
X57837500Y-83850000D03*
X57837500Y-84350000D03*
X57837500Y-84850000D03*
X57837500Y-85350000D03*
D50*
X59250000Y-86762500D03*
X59750000Y-86762500D03*
X60250000Y-86762500D03*
X60750000Y-86762500D03*
X61250000Y-86762500D03*
X61750000Y-86762500D03*
X62250000Y-86762500D03*
X62750000Y-86762500D03*
X63250000Y-86762500D03*
X63750000Y-86762500D03*
X64250000Y-86762500D03*
X64750000Y-86762500D03*
D11*
X60550000Y-64400000D03*
X59050000Y-64400000D03*
D18*
X66200000Y-53550000D03*
X66200000Y-52050000D03*
D11*
X60550000Y-65600000D03*
X59050000Y-65600000D03*
D51*
X57200000Y-103690000D03*
X58000000Y-103690000D03*
D52*
X57600000Y-102710000D03*
D18*
X53600000Y-101950000D03*
X53600000Y-100450000D03*
D29*
X54600000Y-54050000D03*
X54600000Y-55550000D03*
D40*
X56400000Y-64410000D03*
X55600000Y-64410000D03*
D41*
X56000000Y-65390000D03*
D29*
X59800000Y-56850000D03*
X59800000Y-58350000D03*
D30*
X61200000Y-102900000D03*
X61200000Y-101900000D03*
D29*
X67000000Y-54450000D03*
X67000000Y-55950000D03*
D10*
X69250000Y-93200000D03*
X70750000Y-93200000D03*
D18*
X67400000Y-48750000D03*
X67400000Y-47250000D03*
D53*
X65300000Y-44400000D03*
D54*
X62850000Y-44400000D03*
D18*
X60200000Y-45150000D03*
X60200000Y-43650000D03*
D11*
X70550000Y-70400000D03*
X69050000Y-70400000D03*
D30*
X60000000Y-100900000D03*
X60000000Y-99900000D03*
X60400000Y-102900000D03*
X60400000Y-101900000D03*
D11*
X70550000Y-71800000D03*
X69050000Y-71800000D03*
D55*
X61675000Y-64375000D03*
X61675000Y-63225000D03*
X63125000Y-63225000D03*
X63125000Y-64375000D03*
D11*
X60550000Y-63200000D03*
X59050000Y-63200000D03*
D18*
X65800000Y-75950000D03*
X65800000Y-74450000D03*
X56600000Y-46350000D03*
X56600000Y-44850000D03*
D10*
X57250000Y-91200000D03*
X58750000Y-91200000D03*
D29*
X58600000Y-58050000D03*
X58600000Y-59550000D03*
D56*
X60285000Y-46945000D03*
D57*
X59450000Y-46450000D03*
X59450000Y-46950000D03*
X59450000Y-47450000D03*
X59450000Y-47950000D03*
D58*
X60400000Y-48250000D03*
D57*
X61350000Y-47950000D03*
X61350000Y-47450000D03*
X61350000Y-46950000D03*
X61350000Y-46450000D03*
D58*
X60400000Y-46150000D03*
D30*
X62800000Y-102900000D03*
X62800000Y-101900000D03*
D11*
X64750000Y-59400000D03*
X63250000Y-59400000D03*
D59*
X61650000Y-67600000D03*
X61650000Y-68100000D03*
X61650000Y-68600000D03*
X61650000Y-69100000D03*
X61650000Y-69600000D03*
X61650000Y-70100000D03*
X61650000Y-70600000D03*
X61650000Y-71100000D03*
X61650000Y-71600000D03*
D60*
X62400000Y-72350000D03*
X62900000Y-72350000D03*
X63400000Y-72350000D03*
X63900000Y-72350000D03*
X64400000Y-72350000D03*
X64900000Y-72350000D03*
X65400000Y-72350000D03*
X65900000Y-72350000D03*
X66400000Y-72350000D03*
D61*
X67150000Y-71600000D03*
X67150000Y-71100000D03*
X67150000Y-70600000D03*
X67150000Y-70100000D03*
X67150000Y-69600000D03*
X67150000Y-69100000D03*
X67150000Y-68600000D03*
X67150000Y-68100000D03*
X67150000Y-67600000D03*
D62*
X66400000Y-66850000D03*
X65900000Y-66850000D03*
X65400000Y-66850000D03*
X64900000Y-66850000D03*
X64400000Y-66850000D03*
X63900000Y-66850000D03*
X63400000Y-66850000D03*
X62900000Y-66850000D03*
X62400000Y-66850000D03*
D63*
X64400000Y-69600000D03*
D18*
X57800000Y-46350000D03*
X57800000Y-44850000D03*
D64*
X58250000Y-54050000D03*
D65*
X58150000Y-55100000D03*
X58150000Y-55550000D03*
X58150000Y-56000000D03*
X59850000Y-56000000D03*
X59850000Y-55550000D03*
X59850000Y-55100000D03*
D64*
X59750000Y-54050000D03*
D66*
X59000000Y-53925000D03*
D30*
X63200000Y-100900000D03*
X63200000Y-99900000D03*
D18*
X60400000Y-113550000D03*
X60400000Y-112050000D03*
D10*
X67650000Y-83950000D03*
X69150000Y-83950000D03*
D11*
X57150000Y-53000000D03*
X55650000Y-53000000D03*
D29*
X66800000Y-63050000D03*
X66800000Y-64550000D03*
D30*
X61600000Y-100900000D03*
X61600000Y-99900000D03*
D18*
X59400000Y-50750000D03*
X59400000Y-49250000D03*
D67*
X63250000Y-113600000D03*
X64750000Y-113600000D03*
D42*
X57400000Y-86300000D03*
X57400000Y-87700000D03*
D29*
X48800000Y-100450000D03*
X48800000Y-101950000D03*
D30*
X58800000Y-102900000D03*
X58800000Y-101900000D03*
D29*
X64400000Y-63050000D03*
X64400000Y-64550000D03*
D18*
X61400000Y-45150000D03*
X61400000Y-43650000D03*
D11*
X52350000Y-75400000D03*
X50850000Y-75400000D03*
D30*
X63600000Y-102900000D03*
X63600000Y-101900000D03*
D68*
X51250000Y-102025000D03*
X50600000Y-102025000D03*
X49950000Y-102025000D03*
X49950000Y-100375000D03*
X50650000Y-100375000D03*
X51250000Y-100375000D03*
D69*
X50600000Y-101200000D03*
D44*
X64200000Y-103600000D03*
D43*
X63700000Y-103600000D03*
D70*
X63200000Y-103600000D03*
D43*
X62700000Y-103600000D03*
X62200000Y-103600000D03*
X62200000Y-104400000D03*
X62700000Y-104400000D03*
D70*
X63200000Y-104400000D03*
D43*
X63700000Y-104400000D03*
X64200000Y-104400000D03*
M02*
